<?xml version="1.0" encoding="utf-8"?>
<!-- Generator: Adobe Illustrator 23.0.2, SVG Export Plug-In . SVG Version: 6.00 Build 0)  -->
<svg version="1.1" id="Layer_1" xmlns="http://www.w3.org/2000/svg" xmlns:xlink="http://www.w3.org/1999/xlink" x="0px" y="0px"
	 viewBox="0 0 120 104" style="enable-background:new 0 0 120 104;" xml:space="preserve">
<style type="text/css">
	.st0{fill:#3C98D3;}
	.st1{fill:#2488C9;}
	.st2{fill:#0877B8;}
	.st3{fill:#1070B2;}
	.st4{fill:#2B93D1;}
	.st5{fill:#2E95D2;}
	.st6{fill:#1E8ACA;}
	.st7{fill:#0073B6;}
	.st8{fill:#0571B6;}
	.st9{fill:#FEFEFE;}
	.st10{fill:#0074B6;}
</style>
<g>
	<path class="st0" d="M109.87,85.81c-0.54,2.14-1.91,3.63-3.83,4.59c-6.9,3.42-13.84,6.77-20.74,10.2c-1.4,0.7-2.67,0.9-3.95-0.14
		c-0.19-0.56,0.18-0.89,0.57-1.08c2.11-1.01,2.44-2.8,2.43-4.9c-0.03-6.86-0.08-13.71,0.02-20.57c-0.18-14.34-0.01-28.68-0.09-43.02
		c0-0.3,0.01-0.6-0.05-0.9c-0.05-0.28-0.05-0.57-0.03-0.86c0.42-5.48,0.09-10.97,0.18-16.45c0.03-1.73,0.02-3.46-0.01-5.18
		c0.09-1.72-1.4-2.53-2.18-3.76C82.9,2.53,84.14,3.58,85,3.06c6.15,3.1,12.55,5.67,18.56,9.08c1.75,1,3.84,1.37,5.33,2.96
		c0.68,0.73,1.02,1.42,0.98,2.36c-0.26,0.58-0.15,1.19-0.16,1.79c-0.01,21.59-0.01,43.18,0,64.76
		C109.71,84.62,109.61,85.23,109.87,85.81z"/>
	<path class="st1" d="M84.99,73.92c0.02,7.47-0.03,14.93,0.08,22.4c0.04,2.69-2.09,3.11-3.71,4.14
		c-5.23-4.62-10.34-9.38-15.55-14.02c-5.72-5.09-11.29-10.36-17.13-15.33c-2.98-2.53-5.45-5.67-8.95-7.59
		c-4.44-3.23-8.15-7.29-12.3-10.85c-0.23-0.2-0.33-0.5-0.37-0.8c-2.82-3.25-6.2-5.9-9.37-8.76c-2.36-2.13-4.66-4.33-6.99-6.5
		c-0.32-0.87-0.27-1.74-0.01-2.61c2.4-2.23,4.85-4.4,7.18-6.71c1.81-1.79,3.48-1.31,5.18,0c5.03,3.89,10.04,7.81,15.07,11.7
		c0.51,0.39,1.08,0.7,1.63,1.05c1.12,0.22,2.06,0.79,2.97,1.48c4.39,3.32,8.81,6.59,13.19,9.9c5.77,4.85,12.04,9.04,17.92,13.74
		c3.11,2.49,6.4,4.75,9.55,7.19C83.98,72.82,84.51,73.34,84.99,73.92z"/>
	<path class="st2" d="M55.7,51.85c-5.32-3.93-10.63-7.87-15.95-11.8c3.19-1.43,5.19-4.34,7.78-6.5c3.36-2.8,6.61-5.81,9.82-8.8
		c3.7-3.44,7.42-6.87,11.12-10.31c3.74-3.47,7.62-6.79,11.43-10.17c0.51-0.18,1.02-0.4,1.53-0.59c0.33-0.13,0.64-0.1,0.92,0.14
		c1.51,0.33,2.12,1.52,2.64,2.79c-0.43,5.31-0.05,10.63-0.2,15.94c-0.06,2.24,0.27,4.48-0.2,6.71c0,0.14,0,0.28-0.01,0.41
		c0.18,1.09-0.79,1.37-1.39,1.81c-8.33,6.31-16.62,12.69-24.97,18.98C57.46,51.04,56.72,51.71,55.7,51.85z"/>
	<path class="st3" d="M27.06,51.86c4.07,3.55,8.15,7.1,12.2,10.68c0.25,0.22,0.32,0.65,0.47,0.98c-5.63,4.27-11.27,8.54-16.88,12.83
		c-1.79,1.37-3.35,1.28-4.98-0.31c-1.97-1.92-4.07-3.7-6.09-5.57c-2.1-1.94-1.86-2.71,0.22-4.78c2.48-2.47,5.22-4.64,7.74-7.06
		c0.63-0.24,1.05-0.72,1.43-1.24C23.13,55.55,25.1,53.7,27.06,51.86z"/>
	<path class="st4" d="M109.87,85.81c-0.65-0.71-0.37-1.58-0.37-2.38c-0.02-21.19-0.02-42.38,0-63.58c0-0.8-0.28-1.67,0.37-2.38
		c0.02,11.09,0.07,22.18,0.07,33.26C109.94,62.43,109.9,74.12,109.87,85.81z"/>
	<path class="st5" d="M82.35,3.81c-0.31,0.01-0.62,0.02-0.93,0.03c-0.13-0.1-0.18-0.21-0.14-0.32c0.04-0.11,0.08-0.17,0.12-0.17
		c1.14-0.79,2.37-0.52,3.6-0.29C84.26,3.83,83.06,2.94,82.35,3.81z"/>
	<path class="st6" d="M10.69,34c0,0.87,0.01,1.74,0.01,2.61C9.81,35.74,9.89,34.87,10.69,34z"/>
	<path class="st7" d="M81.4,3.35c0.01,0.16,0.01,0.33,0.02,0.49c-0.39,0.57-0.97,0.44-1.52,0.41C80.25,3.7,80.75,3.41,81.4,3.35z"/>
	<path class="st8" d="M21.17,57.39c-0.08,0.87-0.57,1.27-1.43,1.24C20.1,58.08,20.47,57.55,21.17,57.39z"/>
	<path class="st9" d="M55.7,51.85c8.93-6.83,17.86-13.67,26.78-20.51c0.71-0.55,1.41-1.12,2.11-1.68c0.65,0.3,0.44,0.9,0.44,1.38
		c0,14.29-0.02,28.58-0.04,42.87c-2.28-0.91-3.96-2.72-5.93-4.08c-4.47-3.08-8.69-6.52-12.96-9.89
		C62.65,57.23,58.93,54.85,55.7,51.85z"/>
	<path class="st10" d="M84.59,29.25c0-6.84-0.01-13.68,0-20.51c0-0.72-0.25-1.52,0.4-2.13c0.01,6.99,0.03,13.99,0.04,20.98
		C85.03,28.17,85.16,28.8,84.59,29.25z"/>
</g>
</svg>
