<?xml version="1.0" encoding="utf-8"?>
<!-- Generator: Adobe Illustrator 22.1.0, SVG Export Plug-In . SVG Version: 6.00 Build 0)  -->
<svg version="1.1" id="Layer_1" xmlns="http://www.w3.org/2000/svg" xmlns:xlink="http://www.w3.org/1999/xlink" x="0px" y="0px"
	 viewBox="0 0 120 120" style="enable-background:new 0 0 120 120;" xml:space="preserve">
<style type="text/css">
	.st0{fill:#EE4323;}
</style>
<path class="st0" d="M45.2,110c-6-2.6-11.6-9.2-11.6-15.9c0-7.3,4.6-13.6,10.4-17.7c-0.7,2.6-1.1,5,0.6,7.4c1.6,2.2,4.4,3.3,7.1,2.7
	c6.2-1.4,6.5-8.2,2.8-12.1c-3.6-3.9-7.1-8.4-5.8-14.1c0.7-2.9,2.4-5.5,4.7-7.4c-1.7,4.5,3.1,8.9,6.3,11.1
	c5.5,3.8,11.6,6.7,16.7,11.2c5.4,4.7,9.3,11.1,8.5,18.5c-0.9,8-7.2,13.6-14.4,16.4c15.1-3.3,30.7-15,31-31.8
	c0.3-13.8-9.2-24.4-20.9-30.4l-0.6-0.3c0.3,0.8,0.4,1.4,0.4,2c0.1-0.4,0.2-0.9,0.2-1.4c0,0.6-0.1,1.1-0.2,1.6l0-0.3
	c-0.2,0.7-0.5,1.4-0.9,2.1l0.2-0.2c-2.3,3.9-8.7,4.7-11.8,0.7c-5-6.4,0.1-13.4,0.8-20.2C69.8,23.3,64.4,15,57.8,10
	c3.7,5.9-1.2,13.8-5,18.2C49,32.4,44.4,36,40.3,39.8c-4.4,4.1-8.7,8.5-12.4,13.4c-7.3,9.7-11.8,22-8.5,34.2
	C22.7,99.5,33.3,107.3,45.2,110L45.2,110z"/>
</svg>
