<?xml version="1.0" encoding="utf-8"?>
<!-- Generator: Adobe Illustrator 22.1.0, SVG Export Plug-In . SVG Version: 6.00 Build 0)  -->
<svg version="1.1" id="Layer_1" xmlns="http://www.w3.org/2000/svg" xmlns:xlink="http://www.w3.org/1999/xlink" x="0px" y="0px"
	 viewBox="0 0 120 120" style="enable-background:new 0 0 120 120;" xml:space="preserve">
<style type="text/css">
	.st0{fill:#7D6A4C;}
	.st1{fill:#644D31;}
	.st2{fill:#885630;}
	.st3{fill:#FFFFFF;}
	.st4{fill:#1A1A1A;}
	.st5{fill:#2E2E2E;}
	.st6{fill:#F6E5CC;}
</style>
<path class="st0" d="M76.9,100.8l14.6-6l0.2-5.2l2.5-5.2l0.6-5.8l2.9-8.7l3.2-7.3l-0.2-1.7l-0.5-1.6l0.3-1.8l-0.6-2.1l0.3-1.5
	l-2.9-3.5l-12.7,4.5l0.6,1.7l-1.2,2l1.1,3.4l-1.7,3.4l2.5,7.4l5.2,2.8c-0.2,0.1-6.7-0.6-6.7-0.6l1.5,3.1l-1.7,4.9l-2.1,1l-1.7,0.6
	l-3.4,4l-2.5,6.3l2.1,6.2L76.9,100.8L76.9,100.8z M23.1,56.9l13,1.5l1.7,8.3L35,73.3l1.6,1.1l2.7,7.5l3.2,3.5l2.2,1.3l3.9,3.7
	l4.5,3.3l-1.6,3.4l0.3,2.5l-0.5,1.4l-1,2.7l-9.4-2.7l0.3-1.6l-1.3-1.7l0.4-1.7l-12.8-9.4l-1-2.4l-2.8-0.9l-0.1-20.1l-1.1-2.9
	L23.1,56.9L23.1,56.9z"/>
<path class="st1" d="M89.1,71.7c-0.2,0-0.5-0.1-0.7-0.1c-0.1,0-0.2,0-0.2,0c-0.3,0-0.4,0.2-0.4,0.3c0,0.1,0,0.2-0.1,0.3
	c0,0,0,0.1,0,0.1c0.6,0.2,1.3,0.5,1.9,0.7c0,0,0,0,0,0C89.6,72.5,89.8,71.9,89.1,71.7z M88.6,78.3c0,0,0.1,0.1,0.1,0.1
	c0,0.1,0.1,0.1,0.1,0.2c0.3,0.3,0.6,0.7,0.8,1v0c0,0,0,0,0,0c0-0.3,0.2-0.9,0-1.1C89.4,78.2,88.9,78.3,88.6,78.3z M94.2,71.5
	c-0.2,0-0.2,0.2-0.1,0.2C94.3,71.7,94.3,71.5,94.2,71.5z M94.2,59.5c0,0.6,0,1,0.7,1c0.7,0,1.2,0.1,1.3-0.8c0-0.3,0.1-0.8-0.2-1.1
	c-0.2-0.2-0.7-0.1-0.9-0.1C94.3,58.5,94.1,58.6,94.2,59.5L94.2,59.5z M91.7,64.7c0.1-0.2,0.1-0.6,0-0.8c0-0.2,0-0.8-0.1-0.9
	c-0.2-0.3-1.3-0.2-1.6,0c-0.3,0.2-0.4,1.6,0,1.8C90.3,64.9,91.5,65,91.7,64.7L91.7,64.7z M50,97.7C50,97.7,50,97.6,50,97.7
	c0.1-0.2,0.1-0.2,0.1-0.3c0-0.1,0-0.2,0-0.3c0-0.1,0-0.2,0-0.2c0,0,0-0.1,0-0.1v0c0-0.1,0-0.1,0-0.2c0-0.2,0-0.4,0-0.6h-0.3
	c-0.4,0-1-0.2-1.3,0c-0.2,0.1-0.3,0.4-0.3,0.6c0,0.2,0,0.3,0,0.4c0,0,0,0.1,0,0.1c0,0.4,0,0.6,0.4,0.8c0.2,0.1,0.9,0.1,1.3,0
	C49.8,97.7,49.9,97.7,50,97.7L50,97.7L50,97.7z M51.3,96c-0.1,0-0.1,0-0.2,0c-0.2,0.1-0.5,0.1-0.8,0.1c0,0.1,0,0.2,0,0.3
	c0,0.1,0,0.2,0,0.3c0,0,0,0.1,0,0.1c0,0.1,0,0.2,0,0.3v0c0,0,0,0.1,0,0.1c0,0,0,0,0,0.1c0,0.1,0,0.2,0,0.3c0,0.1,0,0.1,0,0.2h0.2
	c0-0.2,0-0.4,0.1-0.5C50.9,96.8,51.2,96.4,51.3,96C51.3,96,51.3,96,51.3,96L51.3,96L51.3,96z M50.4,98.2
	C50.4,98.2,50.4,98.3,50.4,98.2c0,0.1,0,0.1,0,0.1h-0.1c0,0.3,0,0.7,0,1c0,0.1,0,0.2,0,0.3c0.1,0.2,0.2,0.2,0.4,0.3
	c0.2,0,0.3,0,0.5,0v0c0-0.6-0.2-1.2-0.4-1.6L50.4,98.2L50.4,98.2z M50.6,100.3c-0.1,0-0.2,0.1-0.2,0.1c-0.1,0.2-0.1,0.7-0.1,0.9v0.1
	c0.2-0.1,0.4-0.2,0.5-0.4c0.2-0.2,0.3-0.5,0.3-0.8C51,100.2,50.8,100.3,50.6,100.3L50.6,100.3L50.6,100.3z M77.3,97.8
	c0.4,0,0.9,0.1,1.2-0.1c0.1-0.1,0.2-0.5,0.2-0.9c0-0.4-0.1-0.8-0.2-0.9c-0.2-0.2-1.5-0.2-1.6-0.1c-0.2,0.1-0.2,0.4-0.2,0.6
	c0,0.1,0,0.3,0,0.4s0,0.3,0,0.4c0,0,0,0,0,0.1c0,0.1,0.1,0.3,0.1,0.4c0,0,0,0,0,0.1h0.4C77.2,97.8,77.3,97.8,77.3,97.8L77.3,97.8z
	 M95.5,71.7c-0.4-0.1-1.1-0.1-1.3,0.2c-0.1,0.2-0.1,1.3,0.1,1.6c0.2,0.3,0.8,0.2,1.3,0.2c0.1,0,0.1,0,0.2,0c0-0.1-0.1-0.1-0.1-0.2
	c0,0,0-0.1,0-0.1c0-0.2,0.1-0.4,0.1-0.6l0-0.1h0v0C95.7,72.2,96.2,71.8,95.5,71.7z M28.6,60.4c0.3,0.2,1.5,0.2,1.7-0.2
	c0.1-0.3-0.3-1.6,0.3-1.7c-0.1-0.1-0.3-0.1-0.5-0.1c-0.5,0.3-1.3-0.2-1.7,0.2C28.2,58.9,28.2,60.2,28.6,60.4z M89.5,93.8
	c-0.1-0.1-0.2-0.1-0.3-0.2c-0.4-0.1-1.1-0.1-1.3,0.2c-0.2,0.2-0.3,1.3-0.1,1.6c0.1,0.1,0.3,0.2,0.5,0.2c0.2,0,0.5,0,0.7,0
	c0,0,0.1,0,0.1,0c0.1,0,0.2,0,0.3,0c0,0,0.1,0,0.1-0.1l0-0.4C89.5,94.7,89.5,94.2,89.5,93.8L89.5,93.8z M83.8,91.4
	C83.7,91.4,83.7,91.4,83.8,91.4C83.7,91.4,83.7,91.4,83.8,91.4c-0.6,0.1-0.5,0.6-0.5,1.1c0,0.7-0.1,0.9,0.6,0.9c0.4,0,1,0.1,1.3-0.2
	c0.2-0.3,0-0.9,0.1-1.3c0-0.1,0-0.1,0.1-0.2c-0.1-0.1-0.2-0.3-0.2-0.3c-0.1,0-0.1,0-0.2,0C84.5,91.5,84.1,91.4,83.8,91.4z
	 M38.6,91.5c-0.3,0-1.2-0.1-1.4,0.2c-0.2,0.3-0.1,1.1-0.1,1.6c0,0,0.1,0,0.1,0.1c0,0,0.1-0.1,0.1-0.1c0,0,0,0.1,0,0.1c0,0,0,0,0,0
	c0.1,0.1,0.2,0.1,0.2,0.2c0.4-0.1,0.7-0.1,1.1,0c0.6,0,0.4-0.6,0.4-1C39.1,91.9,39.2,91.5,38.6,91.5L38.6,91.5z M86.6,56
	c0.2,0,0.3,0,0.5,0c0.1-0.1,0.2-0.2,0.3-0.2c0-0.1,0-0.1,0-0.2c0,0,0-0.1-0.1-0.1c0-0.3-0.1-0.5-0.1-0.8h0c-0.5,0.3-0.8,0.1-0.6,0.9
	C86.6,55.8,86.6,55.9,86.6,56z M86.9,58.2c0.4,0,0.4-0.9,0.4-1.2c0-0.1,0-0.2,0-0.4c-0.2,0-0.3-0.1-0.3-0.3c-0.2,0-0.3,0-0.5,0
	c-0.2,0.6-0.8,1.1-1.2,1.6c0,0.1,0,0.2,0,0.3C85.9,58.3,86.5,58.2,86.9,58.2z M91.7,71.8c-0.2-0.2-1.4-0.2-1.7,0
	c-0.4,0.3,0,1-0.3,1.4c0.2,0.1,0.3,0.2,0.5,0.3c0.1,0,0.1,0.1,0.2,0.1c0,0,0,0,0.1,0l0,0c0.1-0.1,0.2-0.1,0.3,0
	c0.3-0.2,0.7,0.1,1-0.2C91.9,73.2,91.9,72,91.7,71.8L91.7,71.8z M25.8,80.5c-0.3-0.3-1.1,0-1.5-0.2c-0.1,0.5-0.3,1-0.3,1.5
	c0,0.2,0,0.4,0.1,0.5h0c0.5,0,2,0.3,1.9-0.5C25.9,81.5,26.1,80.8,25.8,80.5L25.8,80.5z M91.7,80.1c0.3-0.3,0.1-1.1,0.1-1.5
	c0-0.5-1.3-0.5-1.6-0.3c-0.5,0.2-0.2,1.1-0.4,1.5c0.1,0.1,0.1,0.3,0.3,0.4C90.4,80.2,91.3,80.4,91.7,80.1L91.7,80.1z M95.8,53.9
	c0.3,0,0.4-0.4,0.5-0.7c0,0.1,0,0.3,0.1,0.4c0,0,0,0,0,0c0,0.1,0,0,0,0c0.2,0.3,0.5,0.3,0.7,0.3c0.4,0,1,0.1,1.2-0.3
	c0.1-0.2,0.1-1.2,0-1.5c0,0-0.1-0.1-0.2-0.2c-0.2-0.1-0.5,0-0.7,0c-0.3,0-0.8,0-1,0.2c-0.1,0.1-0.2,0.3-0.2,0.6
	c0-0.2-0.1-0.4-0.1-0.5c-0.3-0.5-1,0-1.3-0.4c-0.1,0-0.1,0.1-0.2,0.1c0,0.2-0.2,0.4-0.4,0.3c0,0.2-0.1,0.6-0.1,0.9
	c0,0.2,0,0.5,0.1,0.6C94.5,54,95.5,53.9,95.8,53.9L95.8,53.9z M42.1,100c0.4,0,1,0.1,1.2-0.2c0.2-0.2,0.2-1.4,0.1-1.6
	c-0.1-0.2-1.3-0.3-1.6-0.1c-0.4,0.2-0.2,0.9-0.3,1.3C41.5,99.7,41.9,99.9,42.1,100C42.1,100,42.1,100,42.1,100L42.1,100z M79.3,89.3
	c-0.3,0-0.4,0.3-0.4,0.6c0,0.2,0,0.4,0,0.5v0.1c0,0.1,0,0.2,0,0.3c0,0.3,0.1,0.4,0.6,0.5c0.2,0,1,0.1,1.2-0.1l0.1-0.1
	c0.2-0.2,0.2-0.6,0.2-0.8c0-0.3-0.1-0.6-0.1-0.9v0c-0.2,0-0.3,0-0.4,0L79.3,89.3L79.3,89.3z M32.1,87.1c-0.3,0-1.2-0.2-1.5,0.1
	c-0.2,0.2-0.2,1-0.1,1.3c0,0,0,0.1,0,0.1c0.2,0.2,0.4,0.3,0.6,0.4c0.1,0,0.2,0,0.2,0h0c0.5-0.2,1.1,0.2,1.1-0.6
	C32.5,88.1,32.7,87.1,32.1,87.1L32.1,87.1z M91.7,76.8c0-0.1,0-0.3,0-0.4c-0.4-0.2-0.9-0.3-1.4-0.4c-0.1,0-0.2,0-0.3,0
	c-0.1,0.4-0.2,1.2,0,1.6c0.1,0.3,0.4,0.3,0.7,0.4c0.3,0,0.9,0.1,1.1-0.1c0.2-0.3,0-0.7,0.1-1C91.8,76.9,91.7,76.8,91.7,76.8z
	 M85.2,97c0-0.3,0.1-0.7,0-0.9c-0.2-0.3-1-0.3-1.4-0.3l0,0c-0.2,0.2-0.3,0-0.3,0c0,0,0,0,0,0c0,0,0,0,0,0c-0.2,0.4-0.3,1.2-0.2,1.7
	c0,0.2,0.1,0.3,0.2,0.3c0.1,0.1,0.3,0,0.5,0c0.1,0,0.2-0.1,0.3-0.1c0.2,0,0.4-0.1,0.6-0.1c0.2-0.1,0.4-0.2,0.6-0.3c0,0-0.1,0-0.1,0
	c0.1,0,0.1,0,0.1,0C85.2,97.3,85.2,97.1,85.2,97L85.2,97z M78.5,91.5L78.5,91.5L78.5,91.5c-0.5-0.1-0.9,0-1.4-0.1
	c-0.2,0.4-0.3,0.8-0.5,1.1c0.1,0.3,0,0.6,0.3,0.8c0.2,0.1,1,0.1,1.2,0c0.8-0.2,0.4-1,0.6-1.7C78.7,91.7,78.6,91.6,78.5,91.5
	C78.6,91.5,78.6,91.5,78.5,91.5z M34.7,70.4c-0.1-0.3,0-0.9-0.3-0.9c-0.3,0-1.1-0.1-1.4,0c-0.3,0.2-0.2,0.6-0.2,0.9
	c0,0.3-0.1,0.7,0.1,0.9c0.2,0.2,0.6,0.2,1,0.2c0.2-0.2,0.3-0.4,0.5-0.6l0,0l0,0C34.6,70.8,34.6,70.6,34.7,70.4L34.7,70.4L34.7,70.4z
	 M49.9,100.3c-0.3-0.2-0.9-0.1-1.3-0.1c-0.4,0.1-0.4,0.2-0.4,0.6c0,0.3-0.1,1,0.1,1.2c0.2,0.2,1.1,0.1,1.3,0.1h0
	c0.1-0.3,0.4-0.4,0.6-0.6c0,0,0-0.1,0-0.1C50,101.1,50.2,100.5,49.9,100.3L49.9,100.3z M89.6,77.6c0.1-0.4,0.1-1.3-0.2-1.5
	c-0.2-0.1-1.4-0.1-1.6,0c-0.2,0.2-0.1,0.5-0.1,0.8c0,0,0,0,0,0.1c0,0.2,0,0.4,0,0.5c0.2,0.2,0.4,0.3,0.6,0.5c0.1,0,0.1,0.1,0.2,0.1
	C88.9,77.8,89.4,78.2,89.6,77.6z M27.5,80.5c-0.9,0.1-1.3-0.2-1.4,0.9c0,0.3-0.1,0.7,0.1,1c0.1,0.1,0.2,0.1,0.4,0.1h0
	c0.2,0,0.3,0,0.4,0.1c0,0,0,0,0,0c0.2-0.2,0.7-0.6,0.8-0.2c0,0,0,0.1,0,0.2C28.2,82,28.4,80.4,27.5,80.5L27.5,80.5z M87.7,55.6
	c0,0.3,0.2,0.4,0.5,0.4c0.3,0,1.2,0.1,1.4-0.2c0.2-0.2,0.1-1,0.1-1.3c0-0.4-0.1-0.6-0.5-0.6c-0.3,0.1-0.6,0.2-0.9,0.3
	c-0.2,0.1-0.4,0.2-0.6,0.3c0.1,0.3,0.1,0.6,0.1,0.9C87.8,55.5,87.7,55.6,87.7,55.6z M39.7,93.7c-0.5,0.2-0.3,0.6-0.3,1
	c0,0.1,0,0.1,0,0.2v0.1c0.1,0.1,0.2,0.1,0.2,0.2c0,0,0,0,0,0c0.2,0.2,0.4,0.3,0.6,0.5c0,0,0.1,0,0.1,0c0,0,0.1,0,0.1,0
	c0.1,0,0.2,0,0.2,0.1c0.2,0,0.4,0,0.5-0.2c0.2-0.2,0.1-1.1,0.1-1.4C41.3,93.4,40,93.5,39.7,93.7z M45.2,100.2c-0.2,0-0.9-0.1-1.2,0
	c-0.4,0.2-0.3,0.9-0.3,1.4v0.1c0.6,0.2,1.3,0.3,1.9,0.5c0,0,0-0.1,0-0.1c0-0.2,0-0.4,0-0.6C45.7,101,45.9,100.3,45.2,100.2
	L45.2,100.2z M83.3,93.8c0.1,0.6,0.1,1.3,0.5,1.8c0.3-0.2,0.7-0.1,1-0.1c0.3,0,0.4-0.2,0.5-0.5c0-0.2,0.1-1,0-1.2
	C85,93.4,83.7,93.6,83.3,93.8z M79.5,89c0.3,0,0.5-0.1,0.8,0c0.2,0,0.3,0.1,0.4,0.2c-0.1-0.6-0.2-1.2-0.2-1.7c0-0.2,0.2-1.2,0-1.3
	c-0.1,0-0.2,0.1-0.4,0.3c-0.5,0.5-1.1,1.6-1.3,1.8C78.9,88.7,78.8,89.1,79.5,89L79.5,89z M100.2,60.9c-0.1-0.1-0.2-0.1-0.3-0.2v0h0
	l0,0c0,0-0.1,0-0.1,0c-0.1,0-0.1,0-0.2,0c-0.1,0-0.2,0-0.3,0c0,0,0,0,0,0c-0.2,0.1-0.4,0.3-0.6,0.3c-0.1,0.3,0,0.7,0,0.9
	c0,0.3,0,0.6,0.2,0.7c0.2,0.1,0.6,0.1,0.9,0.1c0.2,0,0.3,0,0.5-0.1v0.3c-0.1,0-0.3,0-0.5,0c-0.3,0-0.6,0-0.8,0.1
	c-0.4,0.2-0.2,0.6-0.2,1c0,0.6,0,0.7,0.2,0.8c0.1,0,0.3,0.1,0.5,0.2c0.3-0.7,0.8-1.2,0.8-2c0.1-0.1,0.1-0.2,0.1-0.4
	c0.1-0.5,0.2-1,0.3-1.4C100.5,61.1,100.4,61,100.2,60.9L100.2,60.9z M86.9,65.1c-0.3,0-0.6,0.1-0.9,0c-0.1,0.5-0.3,1-0.4,1.6
	c0.2,0.1,0.3,0.2,0.4,0.4c0.4,0,1.1,0.1,1.4-0.2c0.1-0.2,0-0.5,0-0.7C87.4,65.7,87.5,65.1,86.9,65.1L86.9,65.1z M80.8,98.4
	C80.9,98.4,80.9,98.5,80.8,98.4C80.9,98.4,80.9,98.4,80.8,98.4C80.8,98.4,80.8,98.4,80.8,98.4C80.8,98.4,80.8,98.4,80.8,98.4
	L80.8,98.4C80.8,98,80.4,98,80.1,98c-0.3,0-0.9-0.1-1.1,0.1c-0.2,0.3-0.2,1.1,0,1.6c0.1,0.2,0.2,0.3,0.3,0.3v0
	c0.6-0.3,1.2-0.5,1.8-0.8c-0.1-0.1-0.2-0.3-0.2-0.4C80.8,98.8,80.9,98.6,80.8,98.4L80.8,98.4z M87,84.9c-0.4,0-0.8,0-1.2-0.1
	c0,0.7-0.2,1.5,0,2.2c0.1-0.5,1.4,0.1,1.6-0.4c0.1-0.3,0.1-0.9,0.1-1.2C87.4,85,87.4,84.8,87,84.9L87,84.9z M87.4,58.7
	c0-0.2-1.8-0.4-2,0.3c0.2,0.6,0.5,1.1,0.9,1.5c0.1-0.1,0.3-0.1,0.4-0.1c0.1,0,0.2,0,0.2,0.1c0.2,0,0.3,0,0.5-0.1
	C87.6,60,87.3,59.1,87.4,58.7L87.4,58.7z M92.5,73.9c-0.6,0.2-0.1,0.6-0.4,1c0,0,0.1,0.1,0.1,0.1c0.2,0,0.4,0.1,0.5,0.2
	c0.2,0.1,0.4,0.4,0.4,0.6c0.3,0,0.6,0.1,0.8-0.1c0.1-0.2,0.1-1.5,0-1.7C93.7,73.8,92.8,73.8,92.5,73.9L92.5,73.9z M35.9,83.1
	c-0.3,0.1-0.6,0-1,0c-0.1,0.4,0,0.9,0,1.1c0.1,0.4,0.4,0.4,0.8,0.4c0.6,0,1.2,0.1,1.2-0.6c-0.2-0.4-0.5-0.7-0.6-1
	C36.2,83,36.1,83,35.9,83.1z M33.6,78.2c-0.4,0.5-0.7,1-0.9,1.6c0.1,0.4,0.4,0.4,0.8,0.4c0.3,0,1,0.1,1.2-0.2c0.1-0.2,0.1-1.3,0-1.5
	C34.5,78.1,34,78.4,33.6,78.2z M40.2,86.1c0.1,0,0.1,0.1,0.1,0.1c0,0.1-0.1,0.2-0.2,0.2c-0.2,0.1-0.5-0.1-0.7-0.1h0c0.1,0,0,0,0,0
	c0,0.5,1.2,0.6,1.6,0.4c0.3-0.1,0.3-0.5,0.3-0.8c-0.2,0-0.3-0.2-0.3-0.4c0-0.1,0-0.1,0-0.2c-0.7-0.5-1.1-1.1-1.7-1.7l0,0
	C39.4,84.6,39.3,85.6,40.2,86.1z M87,87c-0.4,0.1-0.8,0-1.2,0v0.5c0,0.5,0,1,0.1,1.5c0.6,0,1.5,0.3,1.6-0.4c0-0.2,0.1-0.4,0.1-0.7
	C87.5,87.4,87.4,87,87,87L87,87z M87,93.4c0.5-0.2,0.4-0.5,0.4-1c0-0.4,0.2-0.9-0.4-0.9c-0.3,0-0.6,0.1-0.9-0.1
	c0.1,0.4,0.1,0.8,0.2,1.3c-0.2-0.1-0.3-0.3-0.5-0.4c-0.1-0.1-0.2-0.2-0.3-0.3c0,0,0,0.1,0,0.1c0,0.4-0.1,1.1,0.1,1.3
	C85.8,93.4,86.9,93.4,87,93.4L87,93.4z M86.8,82.7c-0.3-0.1-0.6,0.1-0.8-0.2c-0.2,0.7-0.3,1.4-0.3,2.2c0.7-0.3,1.6,0.3,1.7-0.7
	c0-0.1,0.1-0.5,0.1-0.7c0-0.2,0-0.3-0.1-0.4C87.3,82.7,87,82.7,86.8,82.7L86.8,82.7z M30.8,76.1c-0.3,0.2-0.2,0.8-0.2,1.1
	c0,0.9,0.4,0.8,1.2,0.8h0c0.3-0.6,0.5-1.2,0.6-1.8h0C32,76,31.1,75.9,30.8,76.1L30.8,76.1z M97.8,67.5c-0.1,0-0.2,0-0.2,0h0
	C97.6,67.5,97.7,67.5,97.8,67.5c-0.1,0-0.2,0-0.3,0c-0.1,0-0.2-0.1-0.2-0.2v0c-0.5,0-1,0-1.1,0.5c0,0.1,0,0.2,0,0.4
	c0,0.3,0,0.7,0.2,0.9c0.1,0.1,0.2,0.2,0.3,0.2c0,0,0.1-0.1,0.1-0.1h0.6c-0.1-0.1-0.2-0.1-0.3-0.1c0.1,0,0.3,0,0.3,0.1h0.1
	c0.3-0.6,0.5-1,0.7-1.6C98.1,67.6,97.9,67.5,97.8,67.5C97.8,67.5,97.8,67.5,97.8,67.5L97.8,67.5z M48.3,91.4L48.3,91.4
	c-0.2,0.5-0.4,1.9,0.2,2c0.3,0,1,0.1,1.4,0c0.4-0.2,0.1-0.5,0.3-0.7C49.7,92,48.9,91.7,48.3,91.4L48.3,91.4z M92.3,54.5
	c0-0.1,0.2-0.2,0.2-0.3c-0.1,0-0.3,0-0.4,0c-0.1,0.1-0.1,0.2-0.1,0.4C92.2,54.5,92.1,54.5,92.3,54.5z M92.2,53.8
	C92.2,53.8,92.2,53.8,92.2,53.8c0.3,0,0.5,0,0.7,0c0.4,0,0.7,0,1,0c0.2-0.3,0.1-0.9,0.1-1.3h-0.5v-0.4c-0.2,0.1-0.4,0.1-0.6,0.2
	c0,0,0,0-0.1,0.1c-0.3,0.3-0.6,0.5-0.9,0.6v0.5c0,0,0,0,0,0C92.1,53.7,92.1,53.7,92.2,53.8L92.2,53.8z M92.7,56
	c0.5,0,1.1,0.2,1.3-0.4c0.1-0.3-0.1-0.7-0.1-1c0-0.2,0-0.3,0-0.4c-0.2,0-0.4,0-0.5,0c-0.1,0-0.1,0.1-0.2,0.1c0.1,0,0.1-0.1,0.1-0.1
	c-0.2,0-0.5,0-0.7,0c-0.1,0.1-0.2,0.2-0.3,0.3c-0.2,0-0.1,0-0.3,0.1C92.1,55.4,91.8,56,92.7,56L92.7,56z M81.5,93.3
	C81.5,93.3,81.5,93.3,81.5,93.3c0.1,0,0.1,0,0.1,0c0.1,0,0.2,0,0.3,0c-0.2-0.6-0.5-1.3-0.7-1.9c-0.1,0.1-0.1,0.4-0.1,0.6
	c-0.1,0.4-0.1,0.8,0,1C81.2,93.1,81.3,93.2,81.5,93.3L81.5,93.3z M81.8,93.7c-0.1,0-0.2,0-0.3,0c0,0,0,0-0.1,0c-0.1,0-0.2,0-0.2,0.1
	c-0.2,0.3-0.1,1-0.1,1.3c0,0.1,0,0.2,0,0.3c0.1,0.1,0.1,0.1,0.1,0.2c0.1,0.1,0.3,0.1,0.6,0.1c0.4,0,0.8,0.1,1.1-0.1
	c0,0,0.1-0.1,0.1-0.1c-0.3-0.6-0.7-1.1-1-1.7C82,93.6,81.9,93.6,81.8,93.7z M34.8,59.1c-0.7-0.1-1.4-0.2-2.1-0.3
	c-0.7-0.1-1.4-0.2-2.1-0.3c-0.1,0.5,0,1,0,1.5c0,0.6,0.4,0.5,0.9,0.5c0.4,0,0.8,0.1,1-0.3c0.2-0.4-0.1-0.8,0.2-1.3
	c0.3,0.8-0.3,1.6,0.8,1.6c0.3,0,0.9,0.1,1.1-0.1C34.8,60.2,34.7,59.4,34.8,59.1C34.8,59.1,34.8,59.1,34.8,59.1L34.8,59.1L34.8,59.1
	C34.8,59.1,34.8,59.1,34.8,59.1L34.8,59.1z M25.2,80.2c0.8,0.1,0.7-0.6,0.7-1.3c0-0.8-0.7-0.6-1.3-0.6c-0.2,0.6-0.3,1.3-0.4,1.9
	C24.6,80.2,24.9,80.2,25.2,80.2z M33.8,89.2L33.8,89.2c-0.8,0-0.9,0-1.1,0.7c0,0,0,0.1,0,0.1v0c0.6,0.4,1.1,0.8,1.8,1.2c0,0,0,0,0,0
	c0.2-0.2,0.3-0.7,0.3-1.1c0-0.2,0-0.5-0.1-0.6C34.5,89.1,34.2,89.2,33.8,89.2L33.8,89.2z M36.4,67c0-0.2,0-0.5,0.1-0.7
	c-0.1-0.4-0.1-0.8-0.2-1.2c-0.3,0-0.6,0-0.9,0c-0.3,0-0.4,0.1-0.4,0.4c0,0.2-0.1,1,0,1.2C35.1,67.2,35.9,67.1,36.4,67L36.4,67z
	 M78.2,98c-0.3,0-0.6,0-0.9,0c0,0-0.1,0.1-0.1,0.1h-0.3c0.1,0.4,0.2,1.3,0.5,1.7c0.1,0,0.2,0,0.4,0.1c0.3-0.1,0.7,0.2,0.8-0.4
	c0,0,0,0,0,0c0-0.2,0.1-0.4,0.1-0.6C78.7,98.5,78.6,98,78.2,98z M87,89.3h-1.2c0.1,0.7,0.2,1.3,0.3,2c0.5-0.2,1.1,0.2,1.3-0.5
	C87.5,90.4,87.6,89.2,87,89.3L87,89.3z M87.4,81.1c0-0.1,0-0.1,0-0.2c0-0.1-0.1-0.2-0.2-0.2c0,0-0.1,0-0.1,0c-0.5,0.2-0.8,0.5-1,1
	c0,0,0,0,0,0.1c0,0.2-0.1,0.5-0.1,0.7c0.4,0,1,0.1,1.3-0.2c0-0.3-0.1-0.6,0-0.8C87.3,81.3,87.4,81.2,87.4,81.1L87.4,81.1z
	 M93.1,76.1C93.1,76.1,93.1,76.1,93.1,76.1c0.2,0.3,0.8,1,0.4,1c-0.1,0-0.5-0.2-0.6-0.3c-0.3-0.1-0.6-0.2-0.9-0.3v0c0,0,0,0.1,0,0.1
	c0,0.1,0,0.1,0,0.2c0,0.4-0.1,0.9,0.2,1.1c0.2,0.2,1.3,0.2,1.5,0c0.3-0.2,0.2-1.2,0.2-1.5C93.9,76,93.5,76.1,93.1,76.1L93.1,76.1z
	 M24.8,76.1c-0.1,0.2-0.2,0.4-0.3,0.6l0.1,1.2l0,0.1v0c0.7,0,1.3,0.2,1.3-0.7c0-0.3,0.1-1-0.2-1.2C25.5,75.9,25.1,76.1,24.8,76.1
	L24.8,76.1z M37.6,84.8C37.6,84.8,37.5,84.8,37.6,84.8L37.6,84.8c-0.5,0.2-0.7,1.6-0.3,1.9c0.2,0.1,0.6,0.1,0.8,0.1
	c0.5,0,1,0.1,1.1-0.5C38.6,85.8,38.1,85.3,37.6,84.8C37.6,84.8,37.6,84.8,37.6,84.8L37.6,84.8z M51.1,93.6
	C51.1,93.6,51.1,93.6,51.1,93.6c-0.2,0.1-0.5,0-0.7,0.2c-0.2,0.2-0.1,0.8-0.1,1c0,0.8,0.3,0.7,0.7,0.7c0,0,0.1,0,0.1,0
	c0.1,0,0.2,0.1,0.3,0.1h0.1c0.3-0.4,0.4-0.7,0.4-1C51.9,94.3,51.6,94,51.1,93.6L51.1,93.6z M100,56.6c0,0-0.1,0.1-0.1,0.1h0
	c-0.2,0-0.6,0-0.7,0.1C99,56.9,99,57.2,99,57.4l-0.1,0.3c0,0,0,0.1,0,0.1c0.4,0.1,1,0.4,1.2,0.2c0.1-0.1,0.2-0.7,0.2-0.8
	c0-0.1,0-0.3,0-0.4c-0.1-0.1-0.1-0.3-0.1-0.5h-0.1c0,0,0,0,0,0C100.2,56.5,100.1,56.6,100,56.6L100,56.6z M47.6,93.3
	c0.3-0.4,0.3-1.4-0.2-1.6c-0.1,0-0.1,0.1-0.2,0.1c-0.1,0-0.2,0-0.3,0c-0.1,0-0.2,0-0.4,0c-0.2,0.2-0.3,0.5-0.5,0.7
	c0.1,0.2,0,0.4-0.1,0.6c0,0.1-0.1,0.2-0.2,0.2c0,0,0,0,0,0c0,0,0,0,0,0c0,0,0,0,0,0C46.3,93.5,47.4,93.7,47.6,93.3L47.6,93.3z
	 M87,62.9C87,62.9,87,62.9,87,62.9c-0.2,0.1-0.3,0.1-0.4,0.1c-0.1,0.1-0.2,0.2-0.3,0.2c0,0,0,0.1,0,0.1v0c0,0.5-0.1,1.1-0.2,1.6
	c0.5,0,1.1,0.1,1.3-0.4C87.5,64.1,87.6,62.9,87,62.9L87,62.9z M87.4,61.9c0-0.2,0.1-0.8-0.1-1.1c-0.1-0.1-0.3-0.1-0.5-0.1
	c0,0,0,0-0.1,0c-0.1,0-0.2,0.1-0.3,0.1c0.3,0.6,0.5,1.1,0.2,1.7c0,0,0,0,0,0c0.1,0,0.2,0,0.3,0h0c0,0,0.1,0,0.1,0
	C87.3,62.5,87.4,62.4,87.4,61.9L87.4,61.9z M98.4,56.7c0-0.4-0.4-0.4-0.8-0.4c-0.2,0-0.4,0-0.6,0c-0.5,0-0.7,0.5-0.6,1
	c0,0.2,0.1,0.3,0.2,0.5c0.6-0.6,1.2-0.2,1.9-0.1c0-0.1,0-0.1-0.1-0.2C98.4,57.2,98.4,57,98.4,56.7L98.4,56.7z M84.7,91.2
	c0.1,0,0.2,0,0.2,0c-0.4-0.5-0.6-1.4-0.8-2c-0.1,0-0.2,0.1-0.2,0.1c-0.1,0.1-0.2,0.1-0.3,0c-0.3,0.1-0.4,0.4-0.4,0.8
	c0,0.3,0.1,0.6,0.1,0.8C83.4,91.3,84.2,91.2,84.7,91.2L84.7,91.2z M86.5,69.3c0.3-0.2,0.6,0,0.8-0.2c0.2-0.3,0.1-1,0.1-1.4
	c0-0.6-0.8-0.4-1.3-0.4c0,0,0,0.1,0,0.1c0,0.1,0,0.2-0.1,0.3C86.2,68.3,86.3,68.8,86.5,69.3L86.5,69.3z M91.8,81
	C91.8,80.9,91.8,80.9,91.8,81c0-0.8-1.2-0.5-1.6-0.5c0,0,0,0,0,0c0.4,0.6,0.5,1.3,0.8,1.9h0c0,0,0,0,0,0c0.3,0,0.6,0.1,0.8-0.2
	C91.9,82,91.8,81.3,91.8,81L91.8,81z M35.5,62.9c-0.8-0.1-0.6,0.8-0.6,1.3c0,0.9,0.7,0.4,1.3,0.7c-0.1-0.8-0.3-1.5-0.4-2.3
	C35.8,62.8,35.7,62.9,35.5,62.9z M78.4,91.1c0.3-0.2,0.2-0.6,0.2-0.9h0c0-0.4,0-0.7-0.2-0.8c0,0-0.1-0.1-0.1-0.1h-0.5
	c-0.2,0.6-0.4,1.2-0.6,1.9v0C77.5,91.2,78.2,91.3,78.4,91.1L78.4,91.1z M43.4,100.6C43.5,100.7,43.5,100.8,43.4,100.6
	C43.4,100.5,43.4,100.5,43.4,100.6c-0.1-0.5-0.8-0.5-1.3-0.4c-0.1,0.1-0.1,0.1-0.2,0.1c0,0-0.1,0-0.1,0c0,0.2,0,0.4,0,0.6
	c0,0,0,0,0,0.1v0c0,0.2,0.1,0.3,0.3,0.4c0.3,0.2,1.1,0.3,1.5,0.4c0,0,0-0.1,0-0.1C43.4,101.3,43.5,101,43.4,100.6L43.4,100.6z
	 M35.1,82.2c0.2,0,0.5,0,0.7,0c0.1,0,0.2-0.1,0.3-0.1c-0.1-0.4-0.1-0.8-0.2-1.2c-0.1-0.1-0.2-0.2-0.2-0.2c0,0-0.1-0.1-0.1-0.1
	c-0.3,0-0.5,0.1-0.7,0.3c-0.1,0.2,0,0.9,0,1.2C35,82,35,82.1,35.1,82.2z M87,95.8c-0.3,0-1.2-0.2-1.4,0.1c-0.1,0.1-0.2,0.6-0.2,1
	c0,0.2,0,0.4,0,0.5c0.6-0.3,1.1-0.5,1.7-0.8c0-0.2,0.1-0.3,0.2-0.4c0,0,0-0.1,0-0.1C87.3,95.9,87.2,95.8,87,95.8L87,95.8z
	 M98.8,55.9c0.1,0.1,0.3,0.1,0.6,0.1c0,0,0.1-0.1,0.1-0.1c0.1,0,0.2-0.1,0.2-0.1c0,0,0,0,0.1,0c-0.2-0.2-0.2-0.5-0.2-0.7
	c-0.1-0.3,0-0.6,0.2-0.9c0-0.1,0-0.1,0.1-0.2c-0.2,0-0.4,0-0.6,0c-0.1,0-0.2,0-0.3,0c-0.4,0.1-0.4,0.4-0.4,0.8
	C98.7,55.2,98.6,55.7,98.8,55.9L98.8,55.9z M35.1,60.3c0.1,0,0.2,0,0.3,0c0,0,0,0,0.1,0c-0.1-0.2-0.1-0.5-0.2-0.6
	c-0.1-0.2-0.1-0.3-0.2-0.4c-0.1,0-0.1-0.1-0.2-0.1c0,0.2,0,0.5,0,0.7C34.9,60,35,60.2,35.1,60.3L35.1,60.3z M35,61.8L35,61.8
	C35,61.8,35,61.8,35,61.8C35,61.8,35,61.8,35,61.8c0,0.1,0,0.2,0,0.3C35,62,35,61.9,35,61.8c0,0.9,0,0.9,0.9,0.9c0,0,0-0.1,0-0.1
	c0-0.4-0.1-1.1-0.2-1.8c0,0,0,0-0.1,0c-0.1,0-0.2,0-0.3,0C35.1,60.8,35,60.9,35,61C34.9,61.2,35,61.5,35,61.8L35,61.8L35,61.8z
	 M32.7,73C32.7,73,32.7,73,32.7,73c0,0.3,0.1,0.5,0.3,0.6c0-0.1,0.1-0.2,0.1-0.3c0,0,0,0,0-0.1c0.1-0.5,0.3-0.9,0.6-1.3
	c-0.4,0.1-0.7,0-0.7,0.6c0,0,0-0.1,0-0.1c0,0,0,0.1,0,0.1h0c0,0.2,0,0.4,0.1,0.6c0,0,0-0.1-0.1-0.1c-0.1-0.2-0.1-0.6-0.1-0.8
	c0.1-0.4,0.4-0.3,0.7-0.4c0-0.1,0.1-0.1,0.1-0.2c-0.3,0-0.8,0-0.9,0c-0.1,0-0.1,0.1-0.1,0.2C32.6,72.2,32.7,72.7,32.7,73z
	 M35.6,91.4c-0.2,0-0.4,0-0.6,0.1c0,0,0,0,0,0c0.6,0.5,1.2,0.9,1.8,1.4c0,0,0.1,0,0.1,0.1v0c0-0.2,0-0.5,0-0.7c0-0.3,0-0.5-0.1-0.6
	C36.5,91.3,35.9,91.4,35.6,91.4L35.6,91.4z M35.2,69.4L35.2,69.4c0.3-0.7,0.7-1.3,1.1-1.8c0,0,0-0.1,0-0.1c0,0,0-0.1,0-0.1
	c-0.4,0-0.7,0-1,0C34.7,67.5,34.9,68.9,35.2,69.4C35.2,69.4,35.2,69.4,35.2,69.4L35.2,69.4z M45.6,93.7c-0.5,0.6-1.1,1.2-1.7,1.8
	c0.4,0,1.4,0.2,1.7-0.2C45.8,95.1,45.7,94.2,45.6,93.7C45.6,93.8,45.6,93.7,45.6,93.7L45.6,93.7z M87.8,80.8L87.8,80.8
	c0,0.2-0.1,0.4-0.1,0.6c0,0.3,0,0.5,0,0.8c0.1,0.2,0.2,0.3,0.4,0.3c0.4,0,0.8,0,1.2,0h0.2C88.9,81.8,88.5,81.2,87.8,80.8L87.8,80.8z
	 M83.3,88.8c0,0.1,0.1,0.1,0.1,0.1c0.1,0,0.1,0,0.2,0.1l0,0c0,0,0.1,0,0.1-0.1c0.1,0,0.1-0.1,0.2-0.1c-0.1-0.1-0.2-0.2-0.3-0.4
	c0-0.1-0.1-0.2-0.1-0.3c0,0.1,0,0.2,0.1,0.3c0.1,0.2,0.2,0.3,0.3,0.4c0.1,0,0.1,0,0.2,0c-0.2-1.1-0.4-2.3-0.3-3.4c0,0-0.1,0-0.1,0
	c-0.1,0.5-0.2,1-0.3,1.5c0,0.2-0.1,0.4-0.1,0.7V88c0-0.1,0-0.2,0-0.2C83.5,88,83.1,88.5,83.3,88.8L83.3,88.8z M82.7,98.1
	C82.7,98.1,82.7,98.1,82.7,98.1C82.7,98.1,82.7,98.1,82.7,98.1L82.7,98.1c-0.5-0.1-1.3-0.3-1.6,0.2C81,98.4,81,98.6,81,98.8
	c0,0.2,0,0.3,0,0.5c0.6-0.3,1.3-0.6,1.9-0.9C82.9,98.3,82.9,98.1,82.7,98.1L82.7,98.1z M87.4,70.3c0-0.8-0.2-0.7-0.9-0.9
	c0.2,0.6,0.3,1.2,0.4,1.9c0,0.3,0,0.6,0.1,0.8c0.1,0.1,0.1,0.2,0.3,0.2c0,0,0-0.1,0-0.1c0-0.1,0-0.1,0-0.1c-0.1-0.2-0.2-0.4-0.1-0.6
	c0-0.2,0.2-0.3,0.3-0.5C87.5,70.7,87.4,70.5,87.4,70.3L87.4,70.3z M35.6,78.2c-0.5,0.2-0.7,0.5-0.6,1c0,0.7,0.1,0.9,0.6,1
	c0-0.2,0-0.4,0.2-0.6C35.7,79.1,35.6,78.6,35.6,78.2L35.6,78.2z M99.1,53.8c0.1,0,0.2,0,0.3,0h0.1c0.1,0,0.3,0,0.4,0.1l0.1-0.2
	c-0.2-0.5-1.2-1.4-1.4-1.6c0,0.1,0,0.2,0,0.3c0,0.3-0.1,0.5-0.1,0.7h0v0C98.6,53.7,98.8,53.8,99.1,53.8z M29.8,87.2
	c-0.3,0-0.6,0-0.8,0c0.1,0.2,0.3,0.3,0.4,0.5c0.1,0.1,0.1,0.2,0.2,0.3c0.2,0.2,0.5,0.4,0.7,0.5c0,0,0,0.1,0,0.2c0-0.1,0-0.3,0-0.5
	C30.3,87.8,30.3,87.2,29.8,87.2L29.8,87.2z M27.9,82.6c-0.3,0.7-0.6,1.3-0.8,2c0.2,0,0.7,0.1,0.8-0.1c0.2-0.2,0.1-0.6,0.1-0.9h0
	C28.1,83.3,28.2,82.8,27.9,82.6L27.9,82.6z M35.6,76L35.6,76c-0.3,0.1-0.5,0-0.6,0.2c-0.1,0.2,0,0.7,0,0.9c0,0.6,0,0.7,0.6,0.9
	c-0.1-0.3-0.4-0.5-0.4-0.8c0,0.3,0.2,0.5,0.4,0.8v0C35.6,77.4,35.5,76.7,35.6,76L35.6,76z M24.1,82.7L24.1,82.7
	c0,0.3,0.8,0.7,1.4,0.9c0,0,0.1-0.1,0.1-0.1c0.1-0.1,0.2-0.2,0.2-0.4c0,0,0.1-0.1,0.1-0.1C25.7,82.4,24.5,82.7,24.1,82.7z
	 M96.8,69.5L96.8,69.5C96.8,69.5,96.8,69.5,96.8,69.5c-0.3,0.1-0.4,0.2-0.4,0.6v0.4c0,0.4,0,0.8,0.1,1.1c0.3-0.7,0.6-1.4,0.9-2.2
	H96.8L96.8,69.5z M27.6,84.9c-0.2,0-0.4,0-0.5-0.2c-0.1,0.1-0.1,0.3,0,0.4c0,0.2,0.1,0.3,0.2,0.5c0.1,0.1,0.2,0.3,0.4,0.4
	c0,0.1,0.1,0.1,0.2,0.2c0.1,0.1,0.2,0.2,0.3,0.2C28.1,85.9,28.3,84.8,27.6,84.9L27.6,84.9z M49.1,102.4
	C49.1,102.4,49.1,102.4,49.1,102.4L49.1,102.4c0,0-0.1,0-0.1,0C49,102.4,49,102.4,49.1,102.4l-0.1,0l0,0c-0.4,0-0.8,0.1-1,0.5
	c0,0,0,0.1,0,0.1c0.2,0.1,0.9,0.5,1.2,0.4c0.3-0.1,0.3-0.8,0.4-1c0,0,0,0,0,0C49.4,102.4,49.2,102.4,49.1,102.4L49.1,102.4z
	 M41.8,86.8c0.3,0.1,0.8,0.1,1.2,0l-0.1-0.1c-0.1,0-0.1,0-0.2,0c0,0,0.1,0,0.2,0c-0.1-0.1-0.1-0.2-0.2-0.3c-0.3-0.2-0.7-0.4-1-0.5
	c0,0-0.1,0.1-0.1,0.1c0.2,0.5,0.5,0.7,1,0.7c-0.5,0-0.9-0.2-1.1-0.7c0,0,0,0-0.1,0C41.5,86.3,41.5,86.6,41.8,86.8z M43.9,91
	c0.1,0.1,0.2,0.2,0.3,0.4h0v0c-0.4,0.1-0.3,0.4-0.3,0.8c0,0.2-0.1,0.6-0.1,0.8c0,0.2,0.1,0.3,0.3,0.4h0c0-0.2,0.1-0.3,0-0.3
	c0-0.4,0.1-1,0.1-1.3c0-0.1,0-0.3,0-0.3c0-0.1,0.1-0.1,0-0.2c0,0,0,0,0,0c0,0,0,0,0-0.1c0-0.3,0.1-0.6,0.1-1c0-0.2,0-0.4,0-0.6
	c-0.2,0-0.3-0.2-0.3-0.3c-0.1,0.1-0.2,0.2-0.2,0.3c0,0,0,0.1,0,0.1v0.1c0,0.2,0,0.4,0,0.5C43.7,90.6,43.7,90.8,43.9,91L43.9,91z
	 M90.9,53.9C90.9,53.9,91,53.8,90.9,53.9L90.9,53.9c0.5,0,0.6-0.1,0.7-0.3v-0.3c-0.2,0.1-0.5,0.1-0.7,0.1c-0.2,0.1-0.4,0.1-0.5,0.2
	c-0.2,0.1-0.4,0.2-0.6,0.3c0,0,0,0,0,0C90.1,53.9,90.5,53.9,90.9,53.9C90.9,53.9,90.9,53.9,90.9,53.9L90.9,53.9z M91,83L91,83
	c0.3,0.6,0.4,1.1,0.4,1.8c0.4-0.3,0.4-1,0.3-1.4C91.7,83.1,91.4,83,91,83z M24.3,57.9C24.3,57.9,24.3,57.9,24.3,57.9L24.3,57.9
	L24.3,57.9c0.1,0.4,0.7,0.4,1,0.4c0.4,0,0.6-0.3,1-0.4c0,0.2,0.1,0.3,0.4,0.4c0.5,0.1,1-0.1,1.5-0.1c-0.1,0-0.1,0-0.2,0
	c-0.6-0.1-1.1-0.2-1.7-0.2l0,0c-0.6-0.2-1.3-0.2-2-0.3C24.3,57.7,24.3,57.8,24.3,57.9z M87,76.1c-0.3,0-0.7,0-1,0l1.5,1.1V77
	c0-0.1,0-0.1,0.1-0.1C87.4,76.4,87.4,76.1,87,76.1L87,76.1z M38.5,93.8c-0.2,0-0.5,0-0.7-0.1h0c0,0,0.1,0.1,0.1,0.2c0,0,0,0,0,0
	c0.2,0.2,0.5,0.5,0.8,0.7c0.1,0,0.2,0,0.3,0.1c0,0,0-0.1,0-0.1v0c0-0.1,0.1-0.2,0.1-0.2C39,94,38.9,93.7,38.5,93.8L38.5,93.8z
	 M97.3,51.6c0.3,0,0.5,0,0.8,0h0.1c-0.2-0.3-0.5-0.5-0.7-0.6c-0.3-0.1-0.7,0-1.1,0.2C96.6,51.6,96.9,51.7,97.3,51.6z M33.7,78
	c0.6,0,1,0.1,1-0.6v-0.9c0,0-0.1,0-0.1,0h0C34.3,77,34,77.5,33.7,78z M89.9,83.4c-0.1,0.3-0.1,0.6,0,0.9c0.1,0.2,0.3,0.2,0.5,0.3
	c0.1,0,0.3,0,0.4,0.1c-0.2-0.6-0.4-1-0.8-1.5C89.9,83.2,89.9,83.3,89.9,83.4L89.9,83.4z M89.8,94.2c0,0.3,0,0.5,0,0.8
	c0,0.1,0,0.2,0,0.4l0.2-0.2c0,0,0.1-0.1,0.1-0.1c0-0.1,0-0.1,0-0.2c0-0.4,0.1-1.1,0.1-1.3C90,93.6,89.9,93.9,89.8,94.2z M98.6,65.5
	c0,0.1,0,0.1,0,0.2l0,0l0,0c0,0.1,0,0.1,0,0c0,0.2,0,0.5,0,0.7c0.3-0.4,0.5-1,0.7-1.4c-0.3,0-0.4,0-0.5,0.1
	C98.7,65.2,98.7,65.3,98.6,65.5L98.6,65.5z M47.3,102.4C47.4,102.4,47.4,102.4,47.3,102.4C47.4,102.4,47.4,102.4,47.3,102.4
	c-0.2,0-0.5,0-0.7,0h-0.2c0.5,0.2,1,0.4,1.5,0.5c0,0,0-0.1,0-0.1v-0.1C47.9,102.5,47.7,102.4,47.3,102.4L47.3,102.4z M91.1,73.9
	h-0.3v0c0.3,0.3,0.6,0.5,1,0.8C91.9,74,91.8,73.9,91.1,73.9L91.1,73.9z M31.9,89.5L31.9,89.5c-0.1,0-0.2,0-0.2-0.1
	C31.8,89.4,31.8,89.5,31.9,89.5c0.1,0.2,0.3,0.5,0.5,0.6c0,0,0,0,0,0.1l0,0c0-0.1,0-0.3,0-0.4C32.4,89.6,32.3,89.5,31.9,89.5
	L31.9,89.5z M50.9,93.4c-0.1-0.1-0.2-0.3-0.3-0.4c-0.1,0-0.2-0.1-0.3-0.2c0,0,0,0,0,0C50.3,93.4,50.4,93.4,50.9,93.4z M42.5,97.8
	L42.5,97.8c0.9,0,0.9-0.2,1-1v-0.2c0-0.7-0.2-0.7-1-0.7c-0.7,0-1,0-1,0.8v0.2c0,0.3,0,0.5,0.1,0.6s0.2,0.2,0.4,0.2
	C42.1,97.8,42.3,97.8,42.5,97.8L42.5,97.8L42.5,97.8L42.5,97.8z M33.8,62.9h-0.1c-0.7,0-0.8,0.2-0.8,0.9v0h0c0,0.8,0.1,0.9,1,1
	c0.9,0,0.9-0.1,1-1C34.8,63.1,34.6,62.9,33.8,62.9z M32.8,86.1c0,0.4,0,0.6,0.4,0.7c0.3,0.1,0.8,0,1.1,0c0.6-0.1,0.4-0.5,0.4-1
	c0-0.6,0-0.9-0.7-0.9c-0.3,0-0.9-0.1-1.2,0.1C32.6,85.2,32.8,85.8,32.8,86.1L32.8,86.1z M31.5,82.7c-0.8,0-0.9,0.1-0.9,0.9
	c0,0.6,0,0.9,0.6,1c0.3,0,0.9,0.1,1.1-0.1c0.2-0.2,0.2-0.7,0.2-0.9v-0.1C32.5,82.8,32.2,82.7,31.5,82.7L31.5,82.7z M47.2,95.8
	c-0.3,0-0.9-0.1-1.2,0.1c-0.3,0.3-0.1,0.9-0.1,1.2c0,0.7,0.5,0.6,1.1,0.6c0.5,0,0.8,0,0.8-0.6C47.9,96.5,48,95.8,47.2,95.8z
	 M28.4,64c0,0.9,0.4,0.8,1.2,0.8c0.6,0,0.7-0.2,0.7-0.7v0c0-0.1,0-0.2,0-0.4c0-0.9-0.1-0.9-1-0.9h0c-0.8,0-1,0.2-1,0.9V64z M29.3,78
	c0.8,0.1,0.9-0.1,0.9-0.9V77c0-0.7-0.1-0.9-0.9-0.9c-0.8,0-0.9,0.1-0.9,0.9c0,0.1,0,0.2,0,0.3C28.4,77.9,28.6,78,29.3,78z
	 M45.7,96.8c0-0.6,0-1-0.7-1c-0.3,0-0.8-0.1-1.1,0.1c-0.1,0.1-0.2,0.3-0.2,0.5c0,0.1,0,0.3,0,0.4V97c0,0.6,0.2,0.7,0.7,0.7
	c0,0,0,0,0,0c0.1,0,0.1,0,0.2,0C45.5,97.8,45.7,97.7,45.7,96.8L45.7,96.8z M32.8,68.5c0,0.8,0.4,0.7,1.2,0.7c0.7,0,0.8-0.1,0.8-0.8
	c0-0.9,0-1.1-0.9-1.1C32.8,67.3,32.7,67.6,32.8,68.5L32.8,68.5z M30.3,79.2c-0.1-0.8-0.2-0.9-1-0.9c-0.8,0-1,0.1-1,1
	c0,0.8,0.1,0.9,0.8,1l0.2,0C30.2,80.2,30.4,80.1,30.3,79.2L30.3,79.2z M31.5,64.9c0.9,0,1-0.1,1-1c0-0.9-0.2-1-1-1
	c-0.8,0-0.9,0.2-0.9,1C30.6,64.8,30.6,64.9,31.5,64.9L31.5,64.9z M46.9,95.6c0.8,0,0.9-0.1,0.9-0.9c0-0.7,0-1-0.8-1h-0.3
	c-0.7,0-0.9,0.1-0.9,0.9h0C45.9,95.5,46.1,95.6,46.9,95.6L46.9,95.6z M31.5,60.7c-0.9,0-0.9,0.3-1,1.1v0.1c0,0.8,0.4,0.8,1.1,0.8
	c0.8,0,0.8-0.3,0.8-0.9v-0.3C32.5,60.7,32.3,60.7,31.5,60.7L31.5,60.7z M50,93.8c-0.2-0.3-0.6-0.1-0.8-0.1c-0.8,0-1.2-0.1-1.2,0.8
	c0,0.9,0.2,1.1,1.1,1.1h0.1c0.7,0,0.8,0,0.8-0.8c0-0.1,0-0.4,0-0.6C50.1,94,50.1,93.9,50,93.8L50,93.8z M43.5,94.4v0.2
	c0-0.9-0.1-1-1-1c-0.8,0-1,0.1-1,1c0,0.7,0,1,0.8,1c0.1,0,0.2,0,0.2,0c0.7,0,0.9-0.1,0.9-0.9C43.5,94.5,43.5,94.4,43.5,94.4
	L43.5,94.4z M35.9,87.1c-0.9,0-1,0.1-1,1c0,0.9,0.2,1,1.1,1c0.8,0,0.8-0.3,0.8-1C36.9,87.2,36.8,87.1,35.9,87.1z M38.1,89.3h-0.3
	c-0.5,0-0.6,0.1-0.6,0.8c0,0.9-0.1,1.2,0.9,1.2c0.2,0,0.7,0.1,0.9-0.1c0.2-0.2,0.1-0.8,0.1-1.1C39.2,89.2,38.9,89.3,38.1,89.3z
	 M29.1,73.6h0.5c0.5,0,0.7-0.1,0.7-0.8c0-0.9-0.2-1.2-1.1-1.1c-0.8,0-0.8,0.3-0.8,1C28.4,73.5,28.4,73.6,29.1,73.6L29.1,73.6z
	 M33.8,87.1c-0.9,0-1,0.1-1,0.9v0.1c0,0.7,0.2,0.8,1,0.8c0.8,0,0.9-0.2,0.9-1v-0.1C34.7,87.2,34.6,87,33.8,87.1z M34.4,82.8
	c-0.1-0.1-0.4-0.1-0.7-0.1c-0.7,0-1,0-1,0.8c0,0.8,0.1,1.1,1,1.1c0.9,0,1-0.1,1-1l0-0.1c0-0.2,0-0.3-0.1-0.4
	C34.5,83,34.5,82.9,34.4,82.8z M32.7,61.2c0,0.2-0.1,1,0,1.2c0.2,0.4,1,0.3,1.4,0.2c0.6-0.1,0.5-0.6,0.5-1.2c0-0.8-0.3-0.8-1-0.7
	C33.1,60.8,32.8,60.5,32.7,61.2L32.7,61.2z M40,89c0.7,0,1.2,0.1,1.3-0.6c0.1-0.9,0.1-1.2-0.8-1.3c-0.7-0.1-1-0.1-1.1,0.6
	C39.3,88.4,39.2,88.9,40,89L40,89z M34,80.5h-0.3c-0.9,0-1,0.5-0.9,1.3c0.1,0.7,0.6,0.6,1.2,0.6c0.3,0,0.5,0,0.7-0.2
	c0.2-0.2,0.1-0.8,0.1-1.1C34.7,80.5,34.4,80.5,34,80.5z M42.1,87.1c-0.6,0-0.5,0.4-0.5,0.8c0,0.4-0.2,0.9,0.3,1.1
	c0.2,0.1,1.1,0.1,1.4,0c0.4-0.2,0.3-0.6,0.2-0.9c0-0.1,0-0.3,0-0.4v0c0,0,0-0.1,0-0.1c0,0,0-0.1,0-0.1c-0.1-0.1-0.2-0.2-0.3-0.3
	C42.9,87,42.3,87.1,42.1,87.1L42.1,87.1z M46.5,100.2c-0.7,0.1-0.6,0.7-0.6,1.3c0.1,0.7,0.5,0.6,1.2,0.6c0.8,0,0.8-0.3,0.7-1.1
	C47.7,100.2,47.4,100.2,46.5,100.2L46.5,100.2z M33.7,65.1c-0.8,0-0.9,0.1-1,0.9c0,0.1,0,0.2,0,0.3c0,0.6,0.2,0.7,0.9,0.7
	c0.9,0,1-0.1,1-1v0C34.7,65.2,34.6,65.1,33.7,65.1z M29.4,71.4c0.8,0,0.9-0.1,0.9-1c0-0.9,0-1-0.9-1c-0.9,0-1,0.1-1,1
	C28.4,71.3,28.5,71.4,29.4,71.4L29.4,71.4z M42.6,89.3c-0.3,0-0.7-0.1-0.9,0.2c-0.2,0.2-0.2,0.7-0.2,1c-0.1,0.9,0.5,0.7,1.3,0.7
	c0.7,0,0.7-0.1,0.7-0.8C43.5,89.5,43.5,89.3,42.6,89.3z M26.9,80.2c0.1,0,0.3,0,0.4,0c0.4,0,0.7-0.1,0.7-0.6
	c0.1-0.7,0.2-1.3-0.6-1.4h-0.1c-0.1,0-0.4,0-0.6,0c-0.2,0-0.4,0-0.4,0.1c-0.2,0.2-0.1,0.6-0.1,0.8h0C26.2,80,26.2,80.2,26.9,80.2
	L26.9,80.2z M27.6,71.7c-0.3,0-0.9-0.1-1.3,0c-0.4,0.2-0.2,0.7-0.2,1c0,0.8,0,0.9,0.8,0.9c0.4,0,0.9,0.1,1-0.3
	C28.2,72.8,28.3,71.7,27.6,71.7L27.6,71.7z M49.9,98.2L49.9,98.2C49.8,98,49.6,98,49.5,98c-0.1,0-0.2,0-0.4,0c-0.3,0-0.8-0.1-1,0.3
	c-0.1,0.2,0,0.8,0,1c0,0.6,0.3,0.6,0.8,0.6c0.4,0,0.7,0,0.9-0.1c0-0.2,0-0.4,0-0.6C49.9,98.9,49.9,98.5,49.9,98.2z M36,84.9
	c-0.9,0-1,0.2-1,1.1c0,0.8,0.2,0.8,0.9,0.8c0.7,0,1-0.1,1-0.8C36.9,85.1,36.9,84.9,36,84.9L36,84.9z M29.4,86.8c0.8,0,0.9-0.2,0.9-1
	c0.1-0.8-0.1-0.9-0.9-0.9c-1,0-1,0.3-1,1.2C28.4,86.8,28.6,86.8,29.4,86.8z M32.5,67.8c0-0.3-0.1-0.5-0.5-0.5
	c-0.5,0-1.3-0.3-1.5,0.3c0,0.1,0,0.2,0,0.3c0,0.2,0,0.5,0,0.6c0,0.1,0,0.1,0,0.1c0,0.2,0,0.3,0.1,0.4c0.2,0.2,1.2,0.2,1.5,0.1
	c0.3-0.1,0.3-0.3,0.3-0.5c0-0.1,0-0.3,0-0.4v0C32.5,68.1,32.5,68,32.5,67.8L32.5,67.8z M29.3,62.6h0.2c0.7,0,0.8-0.1,0.8-0.9
	c0-0.9-0.2-1-1.1-1c-0.8,0-0.8,0.2-0.8,1C28.4,62.5,28.5,62.6,29.3,62.6L29.3,62.6z M30.2,80.5c-0.2-0.2-0.8-0.1-1,0
	c-0.8,0-0.8,0.1-0.8,0.8c0,0.2-0.1,0.8,0.1,1c0.2,0.2,0.6,0.1,0.8,0.1c0.4,0,0.4,0,0.3,0c0.7,0,0.8-0.2,0.7-1.1
	C30.3,81.1,30.4,80.7,30.2,80.5L30.2,80.5z M28.4,66.2c0,0.2,0.1,0.7,0.3,0.8c0.2,0.2,0.6,0,0.8,0c0,0,0.1,0,0.1,0c0,0,0,0,0,0
	c0-0.1,0.1-0.1,0.2-0.1h0.4l0,0c0.1-0.2,0.2-0.5,0.2-0.7c0-0.3,0-0.6-0.1-0.9c-0.2-0.5-0.9-0.3-1.3-0.3
	C28.4,65.2,28.3,65.6,28.4,66.2L28.4,66.2z M28.7,69.2c0.4,0.1,1.4,0.2,1.6-0.2c0.1-0.1,0.1-0.4,0.1-0.7c0-0.4-0.1-0.8-0.2-1h-0.4
	c0,0-0.1,0-0.1,0c-0.4,0-1.1-0.1-1.3,0.3c-0.1,0.1-0.1,0.4-0.1,0.6C28.3,68.6,28.4,69.1,28.7,69.2z M38.1,87.1c-0.5,0-0.8-0.1-1,0.4
	c-0.1,0.3-0.1,1.2,0.2,1.4c0.2,0.2,1,0.2,1.3,0.1c0.5-0.1,0.5-0.5,0.4-1C39.1,86.9,39.1,87.1,38.1,87.1z M40.3,93.4
	c0.8,0,1-0.1,1-0.9c0-0.8-0.1-1-0.9-1c-0.8,0-1,0-1,0.9C39.3,93.2,39.4,93.4,40.3,93.4L40.3,93.4z M30.7,69.6
	c-0.3,0.2-0.3,1.1-0.3,1.4c0,0.6,0.1,0.6,0.6,0.6v-0.1h0.8c0.4,0,0.5-0.4,0.5-0.7c0-0.3,0.2-1,0-1.1C32.1,69.4,30.9,69.4,30.7,69.6
	L30.7,69.6z M30.3,74.7c0-0.4,0.1-0.8-0.4-0.8c-0.8,0-1.4-0.2-1.5,0.8c0,0.8,0,1.1,0.9,1.1c0.2,0,0.7,0.1,0.9-0.1
	C30.4,75.5,30.3,75,30.3,74.7z M42.7,93.4c0.7,0,0.8-0.3,0.8-0.9v-0.3c0-0.8-0.2-0.8-1-0.8c-0.9,0-0.9,0.2-0.9,1
	c0,0.2-0.1,0.4-0.1,0.5c0,0.2,0,0.3,0.1,0.4C41.9,93.5,42.4,93.4,42.7,93.4L42.7,93.4z M31.6,84.9c-0.6,0-1.1-0.1-1,0.6
	c0,0.2,0.1,0.4,0.1,0.5c0,0.1-0.1,0.3-0.1,0.4c0.1,0.5,0.9,0.3,1.3,0.3c0.7,0,0.6-0.4,0.6-1C32.5,84.9,32.4,84.9,31.6,84.9
	L31.6,84.9z M26.7,69.2c0.5,0,1.3,0.2,1.4-0.4c0.1-0.3,0-0.8,0-1.1c0-0.3,0.1-0.5-0.3-0.5c-0.4,0-0.8,0.1-1,0
	c-0.6-0.1-0.7,0.2-0.7,0.7C26.2,68.6,26,69.2,26.7,69.2L26.7,69.2z M47.2,98c-0.3,0-0.9-0.1-1.1,0c-0.4,0.3-0.1,0.8-0.1,1.1
	c0,0.1,0,0.2,0,0.3c0-0.1,0-0.1,0-0.2c0,0.8,0.5,0.7,1.3,0.7c0.7,0,0.6-0.3,0.6-0.9C47.9,98.4,47.9,98.1,47.2,98L47.2,98z
	 M27.5,65.1c-0.3,0-0.7-0.1-1,0c-0.5,0.1-0.4,0.6-0.4,1c0,0.7,0,0.9,0.7,0.9c0.5,0,1,0.3,1.2-0.3C28.2,66.1,28.3,65,27.5,65.1z
	 M26.1,59.6c0,0.2,0,0.3,0,0.4c0.1,0.4,0.3,0.5,0.6,0.5h0.2c1,0,1.1,0,1.1-1c0-0.4,0-0.7-0.4-0.8c-0.3-0.1-1.1-0.3-1.4,0
	C26.2,58.8,26.1,59.2,26.1,59.6z M28,64.2L28,64.2c0.1-0.4,0.2-1-0.3-1.2c-0.3-0.1-1.4-0.2-1.5,0.1c-0.1,0.2,0,0.6,0,0.9
	c0,0.1-0.1,0.4,0,0.6c0.1,0.3,0.4,0.3,0.7,0.3h0l0,0C27.7,64.9,28,65.2,28,64.2L28,64.2z M26.4,78c0.2,0.1,1.3,0.2,1.5,0
	c0.3-0.2,0.1-1.2,0.1-1.6c0-0.5-0.7-0.3-1-0.3c-0.3,0-0.7-0.1-0.9,0.1C26,76.5,26.1,77.8,26.4,78L26.4,78z M24.1,60.3
	c0.1,0.1,0.2,0.1,0.4,0.1c0.3,0,0.9,0.1,1.1-0.1c0.3-0.2,0.2-0.7,0.2-1c0-0.3,0.1-0.6-0.2-0.8c-0.3-0.2-1.2,0-1.5,0
	c-0.1,0.1-0.1,0.2-0.1,0.3c0,0.3,0,0.6-0.1,0.8C24,59.9,24.1,60.1,24.1,60.3L24.1,60.3z M41.3,89.9c0-0.6-0.3-0.7-0.9-0.7
	c-0.7,0-1,0.1-1,0.7v0.2c0,0.8,0.1,1.1,1,1.1c0.2,0,0.7,0.1,0.9-0.1c0.1-0.1,0.1-0.3,0.1-0.5c0-0.2,0-0.3,0-0.4V90
	C41.3,90,41.3,89.9,41.3,89.9L41.3,89.9z M32.5,72.9c0-0.7,0.1-1.2-0.7-1.2c-0.7,0-1.1-0.2-1.2,0.5c-0.1,0.9-0.2,1.2,0.8,1.3
	C32.1,73.7,32.5,73.7,32.5,72.9L32.5,72.9z M27.2,73.9c-1,0-0.9,0.2-1,1.1c0,0.1,0,0.2,0,0.3c0,0.6,0.3,0.6,1,0.6
	c0.7,0,0.9-0.1,0.9-0.8V75C28.1,74.2,28,73.9,27.2,73.9L27.2,73.9L27.2,73.9L27.2,73.9z M28.8,84.6c0.4,0,1,0.1,1.2-0.3
	c0.1-0.3,0.2-0.8,0.2-1c-0.2-0.7-0.8-0.6-1.3-0.6c-0.7,0-0.7,0.9-0.7,1.5C28.3,84.7,28.4,84.6,28.8,84.6L28.8,84.6z M26.4,71.5
	c0.3,0.2,1.3,0,1.5-0.2c0.4-0.3,0.5-1.9-0.2-1.9h0c-0.3,0-1.1,0-1.3,0.2c-0.3,0.2-0.2,0.8-0.2,1.1h0C26.2,71.2,26.1,71.4,26.4,71.5z
	 M32.2,65.1c-0.3-0.1-1.3-0.1-1.5,0.2c-0.1,0.2-0.1,0.9-0.1,1.2c0,0.3,0,0.6,0.4,0.6c0.3,0,1,0.1,1.3,0c0.3-0.2,0.2-0.6,0.2-1
	C32.5,65.6,32.6,65.3,32.2,65.1z M32.5,74.7c0-0.6-0.1-0.8-0.8-0.9c-0.6,0-1.2-0.1-1.2,0.6c0.1,0.8,0.1,1.3,1,1.3c0,0,0,0,0,0
	c0,0,0,0,0.1,0c0.2,0,0.3,0,0.5,0c0.2,0,0.3,0,0.4-0.1c0.1-0.1,0.2-0.3,0.2-0.6C32.5,74.9,32.5,74.8,32.5,74.7L32.5,74.7z M45,98
	C45,98,45,98,45,98c-0.8,0-1.1,0-1.2,0.8c-0.1,0.6-0.2,1.2,0.6,1.2c0.6,0,1.2,0,1.3-0.6C45.8,98.6,45.8,98,45,98L45,98z M35,90.3
	c0.1,0.8,0.3,0.9,1.1,0.9c0.7,0,0.9-0.2,0.9-0.9c-0.1-0.8-0.2-1-1-1C35,89.3,34.9,89.4,35,90.3z M24.9,62.6c0.1,0.1,0.6,0.1,0.8,0.1
	c0.4-0.2,0.4-1.9,0-1.9c-0.5,0-1-0.1-1.4,0.1c0.1,0.3,0.3,0.5,0.4,0.8C24.9,61.8,24.6,62.3,24.9,62.6L24.9,62.6z M25.3,69.5
	c-0.8,0-0.6,0.4-0.6,1.1c0,0.6,0,1,0.8,0.8c0.6-0.1,0.4-0.7,0.4-1.2C25.9,69.7,25.9,69.5,25.3,69.5L25.3,69.5z M25.5,71.7
	c-0.1,0-0.1,0-0.2,0c0,0,0,0-0.1,0c0,0,0,0,0,0c-0.3,0-0.5,0-0.6,0.3c-0.1,0.3-0.2,1.3,0.1,1.6c0.4,0.3,1,0,1.1-0.4
	C26,72.7,26.1,71.8,25.5,71.7L25.5,71.7z M25.2,75.8c0.9,0,0.7-0.8,0.7-1.5c0-0.4-0.8-0.7-1.1-0.4c-0.2,0.2-0.2,0.6-0.2,0.9
	c0.2,0.3,0.2,0.6,0.2,0.9C24.9,75.8,25,75.8,25.2,75.8L25.2,75.8z M25.9,67.7c0-0.4-0.5-0.5-0.8-0.3c-0.3,0.2-0.3,0.5-0.4,0.8v0.3
	c0,0.6,0.1,0.8,0.7,0.7C26.2,69.2,25.9,68.3,25.9,67.7L25.9,67.7z M24.9,65c0.1,0.1,0.6,0.1,0.8,0c0.2-0.1,0.3-0.5,0.3-1
	c0-0.4-0.1-0.8-0.3-0.9c0,0,0,0,0,0v-0.1c-0.1,0-0.1,0-0.2,0c0,0,0,0,0,0l0,0c-0.6-0.1-0.7,0.6-0.7,1.2C24.8,64.6,24.7,64.8,24.9,65
	L24.9,65z M25.4,65.1c-0.4,0-0.6,0-0.7,0.4c-0.1,0.4-0.2,1.3,0.3,1.5c0.4,0.2,0.8-0.1,0.9-0.5C26,66.1,26.1,65.1,25.4,65.1
	L25.4,65.1z M30.6,82.3c0.2,0.3,1.4,0.2,1.6,0.1c0.5-0.3,0.3-1.6,0.1-2c-0.3,0.6-0.6,1.1-0.9,1.7l-0.1,0V82c0.1-1.1,0.1-2.2,0.2-3.3
	c0-0.1,0.1-0.2,0.1-0.3c0,0,0,0,0,0c-0.1,0-0.1,0.1-0.2,0.1c0,0-0.1-0.1-0.1-0.1c-0.2,0-0.6,0-0.9,0v0c0,0,0,0-0.1,0.1
	c-0.2,0.3-0.1,1.2,0,1.6c0.2,0.3,0.6,0.2,0.9,0.2c0,0.4-0.4,0.2-0.6,0.3c-0.4,0.1-0.1,0.1-0.1,0.3C30.6,81.1,30.3,81.9,30.6,82.3
	L30.6,82.3z M88.8,60.3c0.1,0,0.1,0.1,0.2,0.1c0.1,0,0.2,0,0.2,0c0.4-0.1,0.4-0.2,0.4-0.6c0-0.3,0.1-0.7,0-1
	c-0.1-0.4-0.3-0.3-0.7-0.3c-0.6,0-1.2-0.3-1.2,0.5c0,0.4-0.1,0.9,0.1,1.3C88.1,60.3,88.4,60.3,88.8,60.3z M89.5,60.7
	c-0.1-0.1-0.6,0-0.8-0.1c-0.3,0-0.5,0-0.8,0c-0.2,0.2-0.2,0.5-0.2,0.8c0.1,0.6-0.3,1.1,0.5,1.1c0.6,0,1.3,0.2,1.4-0.4
	C89.7,61.9,89.7,61,89.5,60.7L89.5,60.7z M95.7,69.5c-0.2,0-0.3,0-0.4,0c-0.1,0-0.3,0-0.5,0c-0.2,0-0.4,0-0.5,0.1
	c-0.2,0.2-0.1,0.9-0.1,1.1c0,0.2-0.1,0.2-0.1,0.2c-0.1,0-0.2-0.4-0.2-0.6v0c0-0.6,0-0.8-0.7-0.9c-0.1,0-0.3,0-0.5,0
	c-0.4,0-0.7,0.1-0.8,0.4c-0.1,0.3-0.1,1.3,0.3,1.5c0.6,0.4,1.6-0.3,2.3,0c0.3,0,1,0.1,1.3,0c0.3-0.2,0.2-0.4,0.3-0.7
	c0-0.3,0.2-0.8,0-1C96.1,69.5,95.9,69.5,95.7,69.5L95.7,69.5z M94.2,57.6c0-0.1,0-0.1,0-0.2C94.3,57.5,94.3,57.6,94.2,57.6
	L94.2,57.6c0.1,0.3,0,0.5,0.4,0.6c0.1,0,0.2,0,0.4,0c0.3,0,0.6,0,0.7-0.1c0.3-0.1,0.4-0.3,0.5-0.5h0c0-0.1,0-0.2,0-0.3
	c0.1-0.2,0-0.5,0-0.7c0-0.4-0.2-0.5-0.5-0.5c-0.2,0-0.5,0.1-0.7,0.1c-0.6,0.1-0.6,0.4-0.7,0.9C94.2,57.3,94.2,57.5,94.2,57.6z
	 M93,80.2c0.8,0,0.9-0.1,0.9-0.9v0c0-0.9-0.1-1-1-1c-0.8,0-0.9,0.2-0.9,0.9v0.3C92.1,80.2,92.3,80.2,93,80.2z M91,58.5
	c-0.7,0-1.1-0.1-1.1,0.6c0,0.2,0,0.3,0,0.5c0,0.5,0.1,0.8,0.7,0.8c0.7,0,1.2,0,1.2-0.8c0-0.2,0-0.3,0-0.4
	C91.8,58.7,91.7,58.5,91,58.5L91,58.5z M92.7,73.6c0.3,0,0.9,0.1,1.1-0.1c0.3-0.2,0.2-0.6,0.2-1c0-0.1,0-0.2,0-0.2c0,0,0,0,0-0.1
	c0,0,0,0,0,0.1c0-0.4-0.1-0.6-0.7-0.6c-0.5,0-1.1-0.1-1.3,0.4C91.9,72.8,91.9,73.6,92.7,73.6L92.7,73.6z M88.2,58.2L88.2,58.2
	c0.4,0,1.3,0.2,1.3-0.4c0,0,0.1,0,0.1,0c0-0.1,0.1-0.1,0.1-0.2c0-0.3,0.1-1.1-0.2-1.2c-0.2-0.2-1-0.3-1.4-0.1c0,0,0.1,0,0.1,0
	c-0.1,0-0.1,0-0.2,0.1c0,0,0,0-0.1,0c0,0.1-0.1,0.2-0.2,0.2c0,0,0,0,0,0c-0.1,0.3-0.1,0.9-0.1,1.2C87.4,58.4,87.8,58.2,88.2,58.2
	L88.2,58.2z M95.2,60.7c-0.3,0-0.6-0.1-0.8,0.2c-0.1,0.3-0.1,0.8-0.1,1.1c0,0.7,0.7,0.6,1.3,0.6c0.8,0,0.6-0.6,0.6-1.2
	C96.2,60.6,95.9,60.7,95.2,60.7L95.2,60.7z M91.4,69.5c-0.2,0-0.5-0.1-0.8-0.1c-0.2,0-0.5,0-0.6,0.2c-0.2,0.2-0.2,1.2-0.1,1.5
	c0.1,0.4,0.4,0.4,0.7,0.4c0.1,0,0.2,0,0.3,0H91c0.1,0,0.3,0,0.4,0c0.1,0,0.3,0,0.3-0.1c0.2-0.2,0-0.7,0.1-0.9c0-0.1,0-0.2,0-0.3v0h0
	l0,0l0,0c0,0,0,0,0,0c0-0.1,0-0.1,0,0C91.9,69.8,91.8,69.6,91.4,69.5L91.4,69.5z M93.3,60.5c0.7,0,0.7-0.2,0.7-0.7v-0.4
	c0-0.9-0.1-0.9-1-0.9s-1,0.1-1,1c0,0.1,0,0.2,0,0.4c0,0.2,0,0.4,0.2,0.5C92.5,60.5,93,60.5,93.3,60.5L93.3,60.5z M89.3,65.1
	c-0.2-0.1-0.9-0.1-1.1,0c-0.4,0-0.5,0.1-0.5,0.5c0,0.2,0,0.4,0,0.7c0,0.2,0,0.4,0,0.5c0.1,0.2,0.3,0.3,0.5,0.3v0c0.1,0,0.1,0,0.2,0
	h0v0c0.4,0,1.1,0.2,1.2-0.4c0,0,0,0,0-0.1c0-0.1,0-0.3,0-0.5C89.7,65.6,89.6,65.2,89.3,65.1L89.3,65.1z M90,69.2
	c0.3,0.2,1.6,0.3,1.7-0.1c0.1-0.2,0.1-0.5,0.1-0.7c0,0.2,0,0.5-0.1,0.7c0.1-0.3,0.1-1.3,0-1.5c-0.1-0.1-1.5-0.2-1.7-0.1
	C89.7,67.5,89.6,69,90,69.2z M93,67.3c-0.9,0-1,0.2-0.9,1.1c0,0.8,0.3,0.8,1.1,0.8c0.8,0,0.8-0.1,0.8-1C94,67.4,93.9,67.3,93,67.3
	L93,67.3z M94,56.6c-0.2-0.3-0.5-0.2-0.8-0.3c-0.9,0-1-0.1-1.1,0.8c0,0.1,0,0.3,0,0.4c0,0.5,0.1,0.7,0.8,0.7c0.7,0,1.1,0.2,1.2-0.6
	c0-0.1,0-0.4,0-0.6C94,56.9,94,56.7,94,56.6L94,56.6z M88,69.2c0.1,0,0.3,0.1,0.5,0h0c0.1,0,0.2,0,0.3,0c0.3,0,0.5,0,0.6-0.4
	c0.1-0.3,0.1-1.2-0.1-1.4c-0.1-0.1-0.4-0.2-0.7-0.2s-0.6,0-0.7,0.1c-0.5,0.1-0.4,0.6-0.4,1v0C87.6,69.1,87.6,69.2,88,69.2z
	 M97.9,54.1L97.9,54.1C97.9,54.1,97.9,54.1,97.9,54.1c-0.1,0-0.2,0-0.2,0c-0.7,0-1.2-0.2-1.2,0.7c0,0.9,0,1.2,0.9,1.2
	c0.3,0,0.8,0.1,1-0.1c0.2-0.2,0.1-0.9,0.1-1.1C98.4,54.3,98.3,54.2,97.9,54.1L97.9,54.1z M90,60.8c-0.2,0.2-0.1,0.7-0.1,0.9
	c0,0.4-0.1,0.8,0.4,0.9c0.6,0,1.4,0.3,1.5-0.5c0.1-0.3,0.2-1.2-0.2-1.5C91.4,60.6,90.1,60.6,90,60.8L90,60.8z M96.2,65.7
	c0-0.7-0.3-0.6-1-0.6c-0.8,0-1,0.1-1,0.9v0.1c0,0.6,0,0.8,0.6,0.9c0.3,0,0.9,0.1,1.1-0.1c0.2-0.1,0.2-0.4,0.2-0.6
	C96.2,66.1,96.2,65.9,96.2,65.7L96.2,65.7z M93.1,65.1c-0.9,0-1,0.1-1,1c0,0.9,0.1,1,1,0.9c0.8,0,0.9-0.2,0.9-1
	C94,65.2,94,65.1,93.1,65.1z M89.5,63c-0.1-0.2-0.7-0.1-0.9-0.1c-0.6,0-0.9,0-0.9,0.7c0,0.7-0.1,1.2,0.7,1.2c0.2,0,0.9,0.1,1.1,0
	c0.2-0.2,0.1-0.9,0-1.1C89.4,63.5,89.7,63.2,89.5,63L89.5,63z M88.8,69.5c-0.7,0-1.1,0-1.1,0.8c0,0.9,0,1.1,1,1.1c0.9,0,1-0.1,1-1
	C89.6,69.7,89.6,69.5,88.8,69.5z M90.8,65.1c-0.8,0-1-0.1-1,0.7c0,0.8,0,1.2,0.9,1.2c0.9,0,1-0.2,1-1.1
	C91.8,65.1,91.6,65.1,90.8,65.1L90.8,65.1z M90.9,54.1c-0.3,0-0.7-0.1-0.9,0.1c-0.2,0.2-0.1,0.8-0.1,1c0,0.6,0.1,0.7,0.7,0.7
	c0.2,0,0.7,0.1,0.9,0c0.4-0.2,0.3-0.9,0.3-1.3C91.8,54,91.5,54.1,90.9,54.1z M97.9,65.1c-0.8,0.1-1.3-0.2-1.4,0.7
	c0,0.9-0.1,1.2,0.9,1.2c0.2,0,0.4,0,0.5,0c0.2,0,0.4-0.1,0.4-0.5c0-0.2,0.1-0.4,0.1-0.6C98.5,65.5,98.4,65,97.9,65.1L97.9,65.1z
	 M91.2,56.3c-1.1-0.1-1.3,0.1-1.3,1.2v0c0,0.7,0.2,0.8,0.9,0.8H91v0c0.4,0,0.8,0,0.8-0.6c0-0.2,0-0.4,0-0.6
	C91.9,56.6,91.7,56.3,91.2,56.3L91.2,56.3z M94.5,69.2c0.2,0.2,1.2,0.2,1.5,0.1c0.2-0.1,0.3-0.3,0.3-0.5c0-0.1,0-0.2,0-0.3v-0.3
	c0-0.8-0.1-0.8-1-0.8c-0.6,0-0.8,0-0.9,0.6c0,0.2-0.1,0.4-0.1,0.7C94.2,68.8,94.3,69,94.5,69.2L94.5,69.2z M92.2,62.6
	c0.2,0.2,1.2,0.1,1.5,0.1c0.5-0.1,0.4-0.6,0.4-1c0-0.3,0.1-0.6-0.1-0.8c-0.2-0.2-0.5,0-0.7,0c-0.5,0-0.9-0.2-1.1,0.4
	C92,61.4,92,62.4,92.2,62.6L92.2,62.6z M96.1,55.9c0.2-0.2,0.1-0.9,0.1-1.1c0-0.4,0-0.7-0.6-0.7c-0.5,0-1.1-0.2-1.3,0.4
	c-0.1,0.3-0.2,1.3,0.1,1.5C94.7,56.1,95.9,56.1,96.1,55.9L96.1,55.9z M95.7,62.9c-0.3,0.1-0.9-0.1-1.2,0.1c-0.3,0.2-0.2,0.7-0.2,1.1
	c0.1,0.8,0.3,0.8,1.1,0.8c0.5,0,0.7,0,0.8-0.5C96.2,63.9,96.4,62.8,95.7,62.9L95.7,62.9z M93.4,80.5c-0.5,0-1.2-0.2-1.4,0.4
	c-0.1,0.3-0.1,1,0,1.3c0.2,0.5,1.7,0.4,1.8-0.2c0.1-0.3,0.1-0.7,0.1-1C93.9,80.6,93.9,80.5,93.4,80.5L93.4,80.5z M94,63.2
	c-0.1-0.5-0.8-0.4-1.3-0.3c-0.7,0-0.7,0.3-0.6,0.8c0-0.2-0.1-0.3,0,0.2c0.1,0.4-0.2,0.8,0.3,0.9c0.2,0.1,1,0.1,1.3,0
	C94.1,64.6,94.1,63.6,94,63.2z M96.5,64.6c0.2,0.3,1.3,0.3,1.6,0.2c0.4-0.2,0.2-1.2,0.2-1.6c0-0.4-1.5-0.5-1.8-0.2
	C96.3,63.3,96.4,64.4,96.5,64.6L96.5,64.6z M98.1,61c-0.5,0.1-1,0-1.5,0.1c-0.1,0-0.1,0-0.2,0c-0.1,0.3,0,0.9,0.1,1.1
	c0.1,0.6,0.4,0.5,0.9,0.5c0.4-0.1,0.8,0.1,0.9-0.3c0-0.2,0.1-0.6,0.1-0.8c0-0.2,0-0.4-0.1-0.5C98.3,61,98.2,61,98.1,61L98.1,61z
	 M92.6,82.7c-0.7-0.1-0.5,0.7-0.5,1.1c0,1,0.4,0.8,1.2,0.8c0.4-0.6,0.6-1.2,0.6-1.9C93.4,82.7,93,82.7,92.6,82.7z M96.6,58.5
	c-0.2,0.2-0.3,1.4-0.1,1.7c0,0,0.1-0.1,0.2-0.1c0.3,0,0.5,0,0.8,0c0.2,0,0.6,0,0.7-0.1c0,0,0.1-0.1,0.1-0.1c0,0,0,0,0,0
	c0-0.1,0-0.2-0.1-0.3C97.8,59.2,97.2,58.8,96.6,58.5L96.6,58.5z M95.8,73.9c-0.1,0-0.2,0-0.3,0c-0.4,0-0.8-0.1-1.1,0.1
	c-0.3,0.2-0.2,0.5-0.2,0.8c0,0.3-0.2,0.8,0.1,1c0.1,0.1,0.5,0.1,0.7,0c0.1,0,0.2-0.1,0.2-0.1C95.5,75.1,95.7,74.5,95.8,73.9
	C95.9,74,95.9,74,95.8,73.9C95.9,73.9,95.8,73.9,95.8,73.9L95.8,73.9z M94.3,76.8c0,0.4-0.1,1.5,0.4,1c0,0,0,0,0.1-0.1
	c0.2-0.5,0.1-1.1,0.5-1.6c0,0-0.1,0-0.1,0C94.4,75.9,94.3,76.1,94.3,76.8z M91.8,86.7c0-0.1,0-0.2,0-0.3c0-0.5-0.1-0.9-0.1-1.4
	c0-0.1-0.1-0.1-0.2-0.2c-0.1,0.4,0.2,0.8,0,1.2c-0.2,0-0.3-0.2-0.4-0.4C91,85.4,91,85,90.8,84.8h-0.3c-0.5,0-0.7,0.2-0.7,0.8
	c0,0.3-0.1,0.9,0.1,1.1C90.3,87,91.4,86.8,91.8,86.7C91.8,86.7,91.8,86.7,91.8,86.7C91.9,86.7,91.9,86.7,91.8,86.7
	C91.8,86.7,91.8,86.7,91.8,86.7L91.8,86.7z M92.1,85.1c0,0.5,0,0.9,0.1,1.4c0,0,0,0,0,0c0-0.1,0.1-0.1,0.1-0.2
	c0.3-0.5,0.6-1,0.8-1.5c-0.2,0-0.3,0-0.5,0C92.3,84.8,92.2,84.9,92.1,85.1L92.1,85.1z M88.7,89c0.8,0,0.9-0.2,0.9-1
	c0-0.9-0.1-0.9-0.9-0.9c-0.9,0-1,0.1-1,0.9C87.7,88.9,87.8,89,88.7,89L88.7,89z M86.5,93.6c-0.3,0-0.7-0.1-1,0.2
	c-0.2,0.2-0.1,0.8-0.1,1.1c0,0.6,0.3,0.6,0.7,0.6h0.2c0.5,0,0.9,0.1,1-0.4c0-0.3,0.1-0.9,0-1.2C87.2,93.5,86.9,93.6,86.5,93.6z
	 M88.6,86.8c0.8,0,1-0.2,1-0.9v-0.2c0-0.8-0.2-0.8-1-0.8c-0.8,0-0.9,0.1-0.9,1v0C87.7,86.7,87.8,86.8,88.6,86.8L88.6,86.8z
	 M88.9,82.7c-0.9,0-1.1,0-1.2,0.9c-0.1,0.8,0,1,0.8,1h0.4c0.6,0,0.7-0.1,0.7-0.9C89.6,83,89.7,82.7,88.9,82.7L88.9,82.7z M89.1,91.4
	c-0.2,0-0.4,0-0.7,0c-0.2,0-0.4,0-0.5,0.1c-0.3,0.3-0.1,0.9-0.1,1.2c0,0,0,0,0,0c0,0,0,0.1,0,0.1c0,0,0,0,0-0.1
	c-0.1,0.8,0.8,0.7,1.4,0.6c0.6-0.1,0.5-0.5,0.5-1.1C89.6,91.8,89.7,91.5,89.1,91.4z M89.1,89.3h-0.4v0c-0.6,0-1-0.1-1.1,0.6
	c0,0.3-0.1,0.7,0,1c0.1,0.3,0.3,0.3,0.6,0.3c0.6,0,1.2,0.2,1.3-0.5C89.6,90.2,89.7,89.2,89.1,89.3L89.1,89.3z M91.4,87.1
	c-0.8,0-1.5-0.3-1.6,0.7v0.1c0,0.9,0.1,1.1,1,1.1c0.3-0.5,0.6-1.1,0.9-1.7C91.8,87.1,91.6,87.1,91.4,87.1L91.4,87.1z M89.9,89.9
	c0,0.6-0.2,1.5,0.6,1.2c0.1-0.6,0-1.3,0.3-1.8c-0.1,0-0.1,0-0.2,0C90.1,89.3,89.9,89.3,89.9,89.9L89.9,89.9z M90.1,91.5
	c-0.4,0-0.5,1.9,0.2,1.9c0.1-0.5,0.1-1,0.1-1.6C90.4,91.7,90.3,91.5,90.1,91.5z M80.8,93.8c-0.2-0.2-0.5-0.2-0.8-0.2h-0.1
	c-0.8,0-1,0-1,0.8c0,0.9,0,1.1,0.9,1.1c0.3,0,0.5,0,0.7,0c0-0.1,0.1-0.3,0.3-0.3c0-0.1,0.1-0.3,0.1-0.5C80.8,94.6,80.9,94,80.8,93.8
	z M80.5,95.9c-0.1-0.1-0.4-0.1-0.7,0c-0.8,0.1-1,0.1-1,1c0,0.9,0.2,1,1,1c0.8,0,0.9-0.2,0.9-1c0-0.4,0-0.6-0.1-0.7
	C80.6,96,80.6,96,80.5,95.9L80.5,95.9z M80.8,91.7c-0.2-0.3-0.6-0.2-0.9-0.2c-0.9,0-1,0.2-1,1.1c0,0.5,0,0.7,0.5,0.8
	c0.5,0.1,1.5,0.2,1.5-0.5C80.8,92.5,80.9,91.9,80.8,91.7L80.8,91.7z M78.5,93.8c-0.2-0.2-0.5,0-0.7-0.1c-0.4-0.2-1-0.1-1.1,0.3
	c-0.1,0.3-0.1,1.3,0.1,1.5c0.2,0.2,1.2,0.1,1.5,0.1c0.5-0.1,0.4-0.6,0.4-1C78.6,94.3,78.7,94,78.5,93.8L78.5,93.8z M82.6,95.8
	c-0.4,0-1.2-0.2-1.4,0.1c-0.2,0.2-0.1,0.8-0.1,1.1c0,0.6,0.2,0.7,0.8,0.7c0.4,0,0.9,0.1,1.1-0.3C83.1,97.1,83.2,95.8,82.6,95.8
	L82.6,95.8z M27.2,60.7c-0.9,0-1,0.3-1,1c0,0,0,0.1,0,0.2c0,0.9,0.4,0.8,1.2,0.8c0.7,0,0.7-0.2,0.7-1v-0.2
	C28.1,60.8,28,60.7,27.2,60.7L27.2,60.7z"/>
<path class="st2" d="M46.5,89.3c-0.1-0.1-0.2-0.2-0.2-0.2c-0.1-0.1-0.2-0.2-0.3-0.3c-0.4-0.3-0.7-0.2-0.8-0.2
	c-0.1,0-0.4,0.2-0.5,0.7c-0.1,0.4-0.1,0.8-0.1,1.2c0,0.5,0,1-0.2,1.5l-0.2,0.8h1.2l0.2-0.4c0.2-0.3,0.3-0.7,0.5-1
	c0.2-0.3,0.3-0.7,0.5-1v0C46.9,90,46.8,89.6,46.5,89.3L46.5,89.3L46.5,89.3z M82.4,84.3l-0.2-0.1c-0.4-0.2-0.8,0-1,0.2
	c-0.1,0-0.1,0.1-0.1,0.1c-0.5,0.2-0.8,0.5-0.7,1c0,0.9,0.1,1.9,0.3,3.1l0.3,2.1l0.9-1.9C82,88.5,82,88.2,82,88l0-0.1
	c0.1-0.5,0.2-1,0.3-1.6l0.1-0.7c0,0,0-0.1,0.1-0.2c0.1-0.2,0.2-0.6,0-0.9L82.4,84.3L82.4,84.3z M81.2,75.2c-0.3,0-0.6,0.1-0.9,0.1
	c-0.8,0.1-1.5,0.2-2.2,0.1c0,0-0.1,0-0.1,0c-0.2,0-0.4-0.1-0.6-0.1h-2.6l2.3,1.3c0.6,0.3,1.3,0.7,2.1,0.7c0.2,0,0.5,0,0.7,0.1
	c0.1,0,0.2,0,0.3,0l0,0c0.4,0,0.8,0.1,1.3,0.1c0.8,0,1.6-0.1,2.6-0.2L86,77L84.4,76C83.6,75.6,82.5,75.1,81.2,75.2L81.2,75.2z
	 M37.9,74.6c0.2,0,0.3-0.1,0.5-0.2c0,0,0.1-0.1,0.1-0.1c0,0,0.1-0.1,0.1-0.1l0,0c1.4-1.1,3-1.8,4.8-2.1c0.8-0.1,1.5-0.3,2.3-0.4
	c1.8-0.3,3.7-0.6,5.5-1.1c0.4-0.1,0.9-0.2,1.4-0.4l5.2-2.2l-7.9,1.3l-1.3,0.2c-1.4,0.2-2.7,0.3-4.1,0.5l0,0
	c-1.1,0.1-2.4,0.3-3.6,0.8c-0.4,0.2-0.8,0.4-1.2,0.5c-0.4,0.2-0.9,0.4-1.3,0.6c-0.8,0.4-1.2,1-1.1,1.9c0,0,0,0.1,0,0.1v0.6H37.9
	L37.9,74.6z M88,73.6c-0.5-0.4-1.2-0.6-1.9-0.7c-0.5-0.1-0.9-0.1-1.4-0.2c0.1,0,0.3-0.1,0.4-0.1c0.2-0.1,0.4-0.3,0.4-0.6l0.1-0.2
	l-0.1-0.2c0-0.1,0-0.2-0.1-0.2c0-0.1,0-0.2-0.1-0.3l0-0.1l-3.8-5.3l-1.1-1l0.1,0c0.2,0.1,0.5,0.3,0.7,0.4c0.2,0.1,0.5,0.2,0.7,0.4
	c0.1,0.1,0.4,0.2,0.7,0.1l0.9-0.2L83,64.6c-0.6-0.9-2.3-2.2-3.8-3.2c-0.8-0.6-1.6-1.2-1.9-1.4c-0.1-0.1-0.1-0.1-0.2-0.2
	c0,0,0,0-0.1,0L77,59.6l-0.1,0c-0.5-0.2-0.9-0.4-1.4-0.5c0,0,0.1,0,0.1,0c0.5,0.1,1,0.2,1.4,0.4c1,0.4,1.9,0.9,3,1.6
	c0.3,0.2,0.6,0.4,0.9,0.5l2.7,1.1l-1.9-2.2c-2.1-2.3-5.3-5.5-8.6-7c0,0-0.1,0-0.1,0l-0.1,0c-1-0.3-2-0.2-3.1,0.1l0,0
	c-0.7,0.2-0.8,0.8-0.7,1.2c0.3,0.8,0.3,1.7,0.2,2.6l0,0.4c0,0.5,0.2,0.8,0.6,1c-0.1,0-0.2,0.1-0.3,0.2c-0.3,0.3-0.3,0.7-0.3,0.9
	l0,0.5L69,60V62c0,0.2-0.1,0.4,0,0.6l0,0.1l0,0v0l0,0l0,0l0,0.2l0.1,0.1l0.1,0.1l0,0l0.1,0.3l-0.1,0c-0.2-0.1-0.4-0.1-0.6-0.1
	c-0.1,0.1-0.3,0.2-0.4,0.3c0.1-0.7,0.1-1.4-0.3-2.1c0,0-0.1-0.1-0.1-0.1l0.2,0l0.2-0.3c0.2-0.3,0.3-0.8,0.4-1.3c0-0.1,0-0.1,0-0.1
	c0.3-1.1,0.2-2.3-0.2-3.8c-0.5-2.2-1.6-3.9-3.2-5.2c-1.7-1.3-3.8-2.3-5.7-2.7c-2.3-0.5-4.7,0.2-6.8,0.9l-0.5,0.2
	c-0.4,0.1-0.8,0.3-1.2,0.4c-0.3,0.1-0.7,0.3-1,0.5c-1.2,0.8-2.6,1.6-3.7,2.7c0,0-0.1,0.1-0.1,0.1c0,0-0.1,0.1-0.1,0.1l0,0
	c-0.3,0.2-0.6,0.5-0.8,0.7c-0.1,0.1-0.2,0.2-0.4,0.3l-0.2,0.2c-1.2,1.4-2.3,2.9-3.2,4.3c-0.4,0.7-0.9,1.4-1.3,2.2
	c-0.2,0.4-0.4,0.7-0.6,1.1c-0.2,0.4-0.5,0.9-0.7,1.4l-1,2.4l2-1.7c0.8-0.7,1.6-1.4,2.4-2.2c0,0,0.1-0.1,0.1-0.1c0,0,0.1-0.1,0.1-0.1
	l0.1-0.1c0.3-0.3,0.6-0.6,1-0.8c0.3-0.2,0.5-0.3,0.8-0.5c1.2-0.8,2.4-1.5,3.7-2l0.2-0.1c0.3-0.1,0.6-0.3,0.9-0.4l0.1-0.1
	c0.5-0.2,1-0.4,1.5-0.5c0.4-0.1,0.7-0.1,1.1-0.2c0.6-0.1,1.2-0.2,1.8-0.3c1.3-0.2,2.4-0.4,3.5-0.4c1.1,0,2.2,0.2,3.3,0.4
	c-0.6-0.1-1.2-0.1-1.8-0.1c-1,0-2,0.1-3,0.1c-0.8,0-1.7,0.1-2.7,0.3c-3.3,0.7-6.5,2.3-9.7,4.8c-1.3,1.1-2.5,2.3-3.7,3.4
	c-0.3,0.3-0.7,0.7-1,1c-0.1,0.1-0.2,0.2-0.3,0.4c-1,1.6-2,3.1-3,4.7c-0.2,0.3-0.4,0.7-0.5,1.1l-0.4,1.8l1.5-1.1
	c0.1,0,0.1-0.1,0.2-0.1c0.1-0.1,0.2-0.2,0.4-0.3c1.1-1.1,2.6-1.6,4.1-2.1l0,0c1.7-0.6,3.5-0.9,5.5-1.1c2.9-0.2,5.8-0.8,8.2-1.4
	c2-0.5,3.6-1.2,4.9-2c0.7-0.4,1.4-1,2.1-1.6c0,0.5-0.2,0.9-0.5,1.4c-0.7,0.9-1.7,1.4-2.7,2l-0.1,0c-1.9,1-4,1.8-6.4,2.5
	c-0.9,0.2-1.8,0.4-2.7,0.6c-0.8,0.2-1.5,0.3-2.3,0.5c-0.6,0.1-1.2,0.3-1.7,0.4c-1.5,0.3-3,0.6-4.5,1.4c-1.3,0.7-2.2,1.6-2.7,2.8
	c-0.3,0.7-0.4,1.4-0.2,2.1l0.4,1.7l0.8-1.5c0.1-0.2,0.1-0.3,0.2-0.4c0.1-0.3,0.3-0.6,0.4-0.8c0.7-0.9,1.6-1.4,2.7-1.6
	c0.7-0.1,1.4-0.2,2.1-0.3c0.3,0,0.7-0.1,1-0.1c1.3-0.2,2.6-0.3,3.9-0.4c1.6-0.1,3.2-0.2,4.8-0.5c2.3-0.3,4.7-0.9,6.9-2.3
	c0.4-0.2,0.7-0.5,1.1-0.7c1.1-0.7,2.2-1.4,3.1-2.3c0.9-0.9,1.8-2,2.4-3.3c-0.3,1.8,0.1,3.3,1.3,4.6c0.1,0.1,0.1,0.1,0.2,0.2
	c1.1,1,2.4,2.1,4.1,2.8c1.3,0.6,2.7,1.1,4.2,1.5c0.6,0.1,1.2,0.2,1.8,0.1l0.2,0c1.3-0.2,2.7-0.3,4.1-0.3c0.3,0,0.5,0,0.8,0
	c1.1,0,2.1,0,3.1,0.2l2.6,0.4L88,73.6L88,73.6z M73,67.6c0.6,0.5,1.2,0.9,1.8,1.3c0.2,0.1,0.4,0.3,0.6,0.4c0.8,0.6,1.6,1.2,2.6,1.5
	c0.4,0.1,0.8,0.3,1.1,0.4c0.5,0.2,1.1,0.4,1.7,0.6c0.1,0,0.3,0.1,0.4,0.1c0.1,0,0.2,0.1,0.3,0.1l0.1,0c0.6,0.1,1.3,0.3,1.9,0.4
	c-1.5-0.2-3-0.4-4.5-0.8c-1.2-0.3-1.9-0.7-2.6-1.2C75.1,69.4,74,68.5,73,67.6L73,67.6z"/>
<path class="st3" d="M75.9,99.8c-0.4-1-0.8-2-1.2-2.9l-0.2-0.5c0,0,0,0,0-0.1c0-0.1-0.1-0.2-0.2-0.3l-0.1-0.1l-0.4,0.5
	c-0.5,0.8-1.1,1.5-1.8,2.2l-0.2,0.3c-0.6,0.5-1.3,0.8-2,1.2c-0.4,0.2-0.9,0.4-1.3,0.7l-0.5,0.3l0.5,0c0.2,0,0.4,0,0.7,0
	c1.8,0.1,3.2,0.5,4.4,1.1c0.5,0.2,0.5,0.6,0.6,1.1c0,0.2,0,0.2,0,0.2c0,0,0,0-0.1,0l0,0l0,0c0,0-0.1,0-0.2,0
	c-1.7-0.6-3.4-1.1-5.1-1.5c-0.5-0.1-1-0.2-1.5-0.4c0,0-0.1,0-0.1,0l-0.1,0l0,0c-0.1,0-0.2,0.1-0.3,0.3c0,0.2-0.1,0.6,0.4,0.7
	c0.3,0.1,0.5,0.2,0.8,0.3c0.5,0.2,1,0.3,1.6,0.5c1.4,0.4,2.8,0.9,4.1,1.7c0.1,0.1,0.3,0.1,0.4,0.2c0.2,0,0.3-0.1,0.5-0.2
	c1-0.5,1.2-1.2,0.9-2.3c-0.3-0.8-0.1-1.5,0.3-2.1C76,100.4,76.1,100.1,75.9,99.8L75.9,99.8z M57.8,102.1c-0.7,0.1-1.2,0.2-1.7,0.2
	c-0.5,0-0.9,0-1.2-0.1c-0.1,0-0.2-0.1-0.2-0.2c0,0,0-0.1,0-0.1c0,0,0,0,0.1,0c0.4-0.1,0.8-0.2,1.2-0.3c1.1-0.3,2.2-0.5,3.3-0.5V101
	h0.2c0,0,0-0.1,0-0.1l0-0.2l-0.2,0c-0.5-0.1-0.9-0.3-1.4-0.6c-0.2-0.1-0.3-0.2-0.5-0.3c-1.3-0.7-2.3-1.7-3-2.9
	c-0.2-0.4-0.5-0.7-0.8-1.1c-0.1-0.1-0.2-0.3-0.4-0.4l-0.2-0.2L53,95.3c-0.1,0.2-0.1,0.3-0.2,0.5c-0.1,0.5-0.3,0.9-0.5,1.3
	c-0.4,0.9-0.4,1.6,0,2.4c0.1,0.3,0.1,0.6-0.2,0.8c-0.3,0.3-0.5,0.6-0.8,0.8c-0.2,0.2-0.3,0.4-0.5,0.6l0,0c-0.1,0.1-0.2,0.2-0.2,0.5
	c0,0.1,0,0.2,0.1,0.4c0,0.3,0.1,0.7,0.5,1c0,0,0,0,0,0.2c0,0,0,0.1,0,0.1v2.1l0,0.1c0,0.2,0,0.4,0.2,0.5c0.4,0.3,0.9,0.4,1.3,0.4
	l0,0l0,0c0.2-0.1,0.3-0.3,0.3-0.4c0-0.1,0.1-0.1,0.1-0.2c0,0,0.1-0.1,0.1-0.1c0,0,0,0,0-0.1c0.4-0.2,0.8-0.5,1.1-0.7
	c0.5-0.3,0.9-0.7,1.4-0.9c0.6-0.2,1.1-0.5,1.7-0.8c1.2-0.6,2.4-1.2,3.7-1.4l1-0.2l-1-0.2C60.1,102,59.1,101.9,57.8,102.1L57.8,102.1
	z M66,101.5c0-0.1,0-0.2-0.1-0.3c-0.1-0.1-0.2-0.1-0.3-0.1h0l0,0v0c0,0,0,0-0.1,0l-0.1,0c-0.4,0.1-0.8,0.1-1.1,0.1
	c-0.2,0-0.3,0-0.5,0h-0.4c-0.1,0-0.2,0-0.3,0h-0.1c0,0,0,0,0,0c0,0-0.1,0-0.1,0c-0.1,0-0.2,0.1-0.2,0.3c0,0.3,0.1,0.5,0.4,0.6
	c0.4,0.1,0.8,0.1,1.2,0.1l0,0v0h0c0.4,0,0.8,0,1.3-0.1C66,102.1,66,101.8,66,101.5L66,101.5L66,101.5z M99.3,49
	c0.3-0.1,0.4-0.3,0.4-0.6c0.1-0.8,0.1-1.6,0.2-2.5c0.1-1.1,0.2-2.2,0.3-3.4c-0.1,0-0.1,0-0.2,0c-6.5,1.9-13.5,3.7-20,5.6
	c-0.3,0.1,0,0.6,0.1,0.8c1,1.8,2.1,3.4,3.1,5.2c0.1,0.2,0.2,0.2,0.3,0.3c0.1,0,0.2-0.1,0.3-0.2C89,52.6,94.2,50.8,99.3,49L99.3,49z
	 M98.4,44.3c0.7,0,1.1,0.4,1.1,1.1c0,0.7-0.6,1.4-1.2,1.4c-0.6,0-1.1-0.5-1.2-1.2C97,45,97.7,44.3,98.4,44.3L98.4,44.3z M30,56.9
	c1,0.1,2.1,0.3,3.1,0.4c1.6,0.2,3.2,0.4,4.8,0.6c0,0,0.1,0,0.1,0c0.2,0,0.2-0.2,0.3-0.3c0.4-1.4,0.8-2.8,1.3-4.2
	c0.1-0.3,0-0.4-0.3-0.5c-3-0.8-5.9-1.6-8.9-2.3c-3-0.8-5.9-1.6-8.9-2.3c-0.1,0-0.1,0-0.2,0c-0.1,0-0.1,0-0.2,0.1c0,0,0,0,0,0.1
	c0,0,0,0.1,0,0.1c-0.2,2.2-0.5,4.4-0.7,6.5c0,0.3,0,0.4,0.2,0.5c0,0,0.1,0,0.2,0C23.8,56.1,26.9,56.5,30,56.9L30,56.9z M22.8,51.1
	c0.3-0.3,0.7-0.2,1-0.3c0.7,0,1,0.2,1.2,0.9c0.4,1,0.2,1.9-0.4,2.5c-0.5,0.4-1.2,0.4-1.7,0C22,53.4,22,51.9,22.8,51.1z"/>
<path class="st4" d="M98.4,44.3c-0.7,0-1.3,0.7-1.3,1.3c0,0.6,0.6,1.2,1.2,1.2c0.6,0,1.2-0.7,1.2-1.4C99.4,44.7,99.1,44.3,98.4,44.3
	L98.4,44.3z M23.8,50.9c-0.3,0-0.7,0-1,0.3c-0.8,0.8-0.8,2.3,0.1,3c0.5,0.4,1.2,0.4,1.7,0c0.7-0.6,0.8-1.4,0.4-2.5
	C24.8,51.1,24.5,50.9,23.8,50.9L23.8,50.9z"/>
<path class="st4" d="M67.1,110.4c-0.1,0.1,1.8,0.2,2,0.1c0.2-0.1,2.8-1.5,2.8-1.6c3.6-2.1,7.4-3.6,11.3-4.9
	c4.8-1.6,9.6-2.9,14.5-4.2c-0.1,0-0.2-0.1-0.3-0.1c-0.3,0-0.6,0.1-0.9,0.1c-1.3,0.1-2.7,0.3-4,0.6c0,0-0.1,0-0.1,0
	c-0.1,0.1-0.3,0.1-0.4,0.1c-0.1,0-0.1,0-0.2,0c0.3-0.3,1.2-1.2,1.4-1.1l0,0h0c0,0,0.1-0.1,0.1-0.1c0.1-0.1,0.2-0.2,0.3-0.2
	c0.3-0.4,0.6-0.6,0.9-0.9c0.2-0.1,0.5-0.3,0.7-0.4h0c0.7,0,1.5-0.9,2.2-1.2c0,0,0,0-0.1-0.1c-1.1,0.2-2.2,0.3-3.2,0.7
	c-2.3,0.8-4.6,1.5-6.8,2.5c-3.4,1.5-6.8,3-10.1,4.7c-0.1,0.1-0.2,0.1-0.4,0.2c-0.1-0.8-0.2-1.6-0.3-2.3c0-0.2,0.1-0.2,0.2-0.3
	c2.9-1.5,5.8-3,8.8-4.3c2.5-1,5-2.2,7.4-3.2c0,0,0,0,0,0h0c0,0,0,0,0,0c0,0.1,0,0.1,0,0.1c0,0,0,0,0,0h0c-0.7,0.9-1.3,1.9-1.7,3
	c0.2,0,0.2,0,0.3-0.1c0.5-0.6,1-1.1,1.5-1.6c1-1.1,2-2.1,3.2-2.9c0.1-0.1,0.2-0.1,0.2-0.2c-0.1-0.1-0.2-0.1-0.3,0
	c-1.1,0.2-2.3,0.4-3.4,0.7c-0.4,0.1-0.4,0-0.4-0.3c0-0.9,0.1-1.8,0.2-2.7c0-0.4,0.1-0.8,0.3-1.1c0.5-1,0.9-2.1,1.4-3.1
	c0.2-0.5,0.4-1.1,0.5-1.6c0.1-0.9,0.3-1.8,0.3-2.7c0.1-1.4,0.6-2.7,0.9-4c0.3-1.7,0.5-3.4,1.2-5.1c0.6-1.5,1.1-2.9,1.7-4.3
	c0.8-2,1.8-3.8,2.3-5.9c0.2-0.7,0.4-1.4,0-2.1c-0.2-0.4-0.2-0.8-0.4-1.2c-0.1-0.3-0.1-0.6-0.1-0.9c0.2-1.1,0.3-2.2-0.3-3.3
	c-0.2-0.3,0-0.5,0.2-0.6c0.4-0.4,0.4-0.6,0.1-1.1c-0.4-0.5-0.8-1-1.2-1.5c-0.4-0.4-0.7-0.8-1.1-1.2c-0.3-0.2-0.2-0.3,0.1-0.4l0,0
	c0.6-0.2,1.3-0.5,1.9-0.7c0.4-0.1,0.5-0.3,0.5-0.6c0.2-2.8,0.4-5.6,0.6-8.3c0-0.4,0-0.5-0.4-0.3c-2.1,0.7-4.2,1.3-6.2,1.9
	c-0.6,0.2-0.6,0.2-0.9-0.4c-1.1-2.4-1.9-4.8-2.8-7.3c-0.2-0.5-0.2-1,0-1.5c0.3-0.9,0.1-1.7,0.1-2.6c0,0,0-0.1,0-0.1
	c-0.2-2.4-0.5-4.8-1.2-7.1c-0.5-2-1.3-4-2.3-5.8c-1-2-2.2-3.9-3.4-5.8c-0.5-0.8-1.1-1.6-2-2c-0.3-0.1-0.7-0.2-1-0.2
	c-0.4,0-0.6,0.1-0.9,0.4c-0.5,0.6-0.6,1.3-0.3,2c0.9,1.9,1.7,3.8,2.4,5.7c0,0.1,0.1,0.2,0.2,0.3c-0.2,0-0.2-0.1-0.3-0.2
	c-1.4-1.4-3-2.6-4.6-3.7c-2.2-1.5-4.5-2.8-6.9-4c-0.3-0.2-0.6-0.3-1-0.3c-0.6-0.1-1.2-0.1-1.8-0.2c-0.9-0.1-1.6,0.4-1.6,1.3
	c0,0.5-0.2,0.6-0.6,0.6c-0.4,0-0.9,0.5-0.9,0.9c-0.1,1.1,0.2,2.1,1,2.8c2,1.9,4,3.9,6,5.8l0.1,0c0.1,0,0.1,0.1,0.1,0.2
	c0,0-0.1,0-0.1,0c-0.1,0-0.1,0-0.2-0.1c0,0,0,0,0,0c-0.3-0.2-0.6-0.3-0.9-0.5c-1.4-0.9-2.7-1.8-4.1-2.7c-0.6-0.4-1.3-0.7-2.1-0.8
	c-0.7-0.1-1.3,0.1-1.8,0.7c-0.3,0.3-0.5,0.7-0.4,1.2c0.1,0.7,0.5,1.1,1,1.4c2.3,1.6,4.4,3.4,6.3,5.4c0.2,0.2,0.3,0.4,0.5,0.5
	c0.5,0.4,0.9,1,1.2,1.6c0.2,0.3,0.1,0.3-0.2,0.3c-2,0-3.8,0.5-5.7,0.9c-0.8,0.2-1.5,0.4-1.8,1.3c-0.3,1-0.4,1.5,0.7,1.8
	c2.3,0.6,4.6,1.4,6.8,2.4c0.2,0.1,0.4,0.2,0.5,0.4c0.6,0.5,1.1,1,1.7,1.4c1.7,1.1,3.5,2.2,5.6,2.7c0.2,0.1,0.5,0.2,0.7,0.2
	c0.2,0.1,0.4,0.2,0.4,0.4c0.1,0.8,0.6,1.3,1.4,1.5c0.1,0,0.2,0.1,0.3,0.1c0.2,0.1,0.4,0.3,0.4,0.5c0.3,1.1,0.6,2.2,1,3.3
	c0.1,0.4,0,0.5-0.3,0.6c-1.7,0.5-3.4,1-5.1,1.5c-0.6,0.2-0.6,0.2-0.3,0.7l4.2,7.5c0.6,1.1,0.6,1.1,1.7,0.5c0.1-0.1,0.3-0.2,0.4-0.1
	c0.1,0.2,0.3,0.4,0.1,0.6c-0.5,0.6-0.9,1.3-1.3,1.9c-0.1,0.2-0.1,0.3,0,0.5c0.5,0.8,0.9,1.5,1.4,2.3c0.1,0.1,0.2,0.2,0.1,0.3
	c-0.2,0.6-0.4,1.1-0.6,1.7c-0.3-1.2-0.8-2.3-1.5-3.3c-0.8-1.3-1.9-2.5-2.8-3.7c-0.2-0.2-0.3-0.4-0.5-0.5c-0.9-0.9-2.1-1.5-3.2-2.2
	c-0.5-0.3-1-0.5-1.6-0.6c-1.7-0.4-3.4-0.5-5.1,0c-0.4,0.1-0.5,0-0.7-0.3c-0.4-0.6-0.8-1.3-1.3-1.7c-1.4-1.1-2.8-2.1-4.5-2.7
	c-1.3-0.4-2.6-0.7-4-0.8c-0.7,0-1.4,0-2.1,0.1c-1.8,0.1-3.6,0.3-5.2,1.3c-0.3,0.2-0.7,0.3-1,0.5c-1.7,0.9-3.3,1.8-4.7,3.1
	c-1.4,1.4-2.8,2.8-4.1,4.3c-1.5,1.8-2.6,3.8-3.6,5.8c-0.1,0.1-0.1,0.3-0.3,0.4c-0.2-1.2-0.4-2.3-0.6-3.4c0-0.2,0.1-0.2,0.2-0.2
	c0.4,0,0.8,0.1,1.2,0.1c0.3,0,0.5,0,0.6-0.4c0.1-0.5,0.2-0.9,0.3-1.4c0.4-1.8,0.9-3.6,1.4-5.4c0.1-0.3,0-0.5-0.3-0.6
	c-1.7-0.4-3.5-0.9-5.2-1.3c-0.3-0.1-0.5-0.2-0.4-0.6c0.4-1.4,0.6-2.8,1.1-4.1c0.1-0.1,0.1-0.3,0.3-0.4c0.5-0.4,0.8-0.8,0.7-1.4
	c0-0.5,0.2-0.8,0.6-1c0.8-0.4,1.6-0.9,2.4-1.3c0.6-0.4,1.1-0.9,1.5-1.5c1.5-2.8,2.7-5.7,4.5-8.3c0.2-0.2,0.3-0.5,0.5-0.7
	c1.2-1.2,2.2-2.5,3.5-3.6c0.4-0.3,0.5-0.8,0.5-1.3c0-0.6-0.3-1-0.7-1.4c-0.3-0.4-0.7-0.7-1.3-0.7c-0.1,0-0.3,0-0.4-0.1
	c0.1-0.2,0.2-0.2,0.4-0.3c1.6-1,3.1-2,4.7-3c1.9-1.2,3.8-2.4,5.6-3.6c0.2-0.2,0.4-0.3,0.1-0.5c-0.1-0.1-0.1-0.1-0.2-0.2
	c-0.4-0.5-0.4-0.5-0.9-0.1c-5.3,3.3-10.5,6.5-15.8,9.8c-0.5,0.3-0.5,0.3-0.7-0.2c-0.5-1.2-0.8-2.5-1.2-3.7c-0.1-0.3,0-0.5,0.2-0.6
	c1.3-1.1,2.5-2.2,3.8-3.4c0.5-0.5,0.8-1,0.9-1.7c0.1-0.8-0.4-1.2-1.1-0.9c-0.4,0.1-0.7,0.3-1,0.5c-3.1,1.7-6.4,2.9-9.8,3.9
	c-0.2,0.1-0.4,0.1-0.5-0.1c-0.3-0.4-0.8-0.6-1.3-1c-0.1-0.1-0.2-0.1-0.3-0.1c-0.5,0.1-0.9,0.3-1.2,0.7c-0.7,1.1-1.6,2-2.3,3.1
	c-0.8,1.3-1.5,2.6-2.4,3.8c-0.2,0.2-0.2,0.3-0.4,0c-1-1.7-1.9-3.4-2.9-5.1c-0.3-0.5-0.6-1.1-1-1.6c-0.4-0.5-1-0.8-1.6-0.7
	c-0.1,0-0.3,0-0.3,0.2c-0.1,0.5-0.3,1-0.3,1.5c0.2,1.2,0.4,2.5,0.7,3.7c0.5,2.1,1.1,4.2,1.7,6.2c0.6,2,1.3,4,1.9,6.1
	c0.1,0.2,0.2,0.3-0.1,0.5c-0.3,0.2-0.8,0.3-0.9,0.6c-0.1,0.3,0.2,0.7,0.4,1c0,0,0,0.1,0,0.1c0.1,0.3,0.2,0.7,0.4,0.8
	c0.3,0.1,0.5-0.2,0.7-0.4c0.2-0.1,0.3-0.1,0.4,0.1c0.6,1.3,1.2,2.7,1.7,4c0.1,0.2,0.1,0.4,0,0.6c-0.4,1.1-0.7,2.2-0.9,3.3
	c-0.1,0.3-0.2,0.3-0.4,0.3c-1.3-0.3-2.5-0.7-3.8-1c-0.6-0.1-0.6-0.1-0.6,0.4v0c-0.3,3-0.6,6.1-0.8,9.1c0,0.3,0,0.4,0.3,0.4
	c0.9,0.1,1.8,0.3,2.7,0.4c0.2,0,0.3,0,0.3,0.3c-0.2,1-0.4,2.1-0.6,3.1c-0.1,0.3,0,0.5,0.2,0.7c0.3,0.4,0.6,0.8,0.9,1.2
	c0.2,0.3,0.4,0.7,0.2,1c-0.1,0.2-0.2,0.4-0.2,0.5c0,1.9,0,3.8,0.1,5.7c0,0.9,0,1.8,0.1,2.8c0,2.5,0.2,4.9,0.3,7.4
	c0,1.2-0.2,2.4-0.1,3.6c0,0.3,0.1,0.5,0.4,0.6c0.7,0.2,1.4,0.5,2.2,0.8c0.4,0.1,0.7,0.3,0.8,0.7c0.2,0.3,0.2,0.7,0.2,1
	c0,0.3,0.1,0.5,0.4,0.7c1.1,0.8,2.3,1.7,3.4,2.5c3,2.2,6,4.4,9,6.6c0.3,0.2,0.3,0.4,0.2,0.7c-0.2,0.3-0.3,0.6-0.4,0.9
	c-0.1,0.3-0.1,0.4,0.1,0.6c0.4,0.3,0.7,0.6,1.1,0.9c0.3,0.3,0.3,0.6,0.2,1c-0.1,0.2-0.4,0-0.6,0c-0.1,0-0.3,0-0.4-0.1
	c-1.4-0.2-2.8-0.6-4.3-0.7c-2.3-0.2-4.6-0.4-6.9-0.3c-0.1,0-0.3-0.1-0.3,0.1c0,0.2-0.1,0.4,0.1,0.5c0.1,0.1,0.2,0.1,0.4,0.2
	c1.3,0.5,2.5,1.1,3.7,1.8c0.8,0.4,1.5,0.9,2.4,1.2c0.2,0.1,0.3,0.2,0.5,0c-1.3-1-2.5-2-3.8-3c0.2-0.1,0.3-0.1,0.5-0.1
	c1.5,0.1,3,0.3,4.5,0.7c3.3,0.8,6.5,1.7,9.7,2.6c1.1,0.3,2.2,0.5,3.1,1.1c0.2,0.2,0.4,0.3,0.3,0.6c0.1,0.1,0.1,0.2,0,0.2
	c-0.1,0.1-0.2-0.1-0.2-0.1c-0.7-0.1-1.5-0.1-2.2-0.2c-2.1-0.2-4.2-0.5-6.4-0.4c-1.6,0-3.2-0.1-4.8,0c-2.3,0.2-4.5,0.5-6.8,0.7
	c-0.1,0-0.3,0-0.3,0.1c0,0.2,0.1,0.4,0.3,0.4c0.2,0,0.3,0.1,0.5,0.1c1.1,0,2.3,0,3.4,0.1c2.8,0.1,5.7-0.1,8.5,0.2
	c1,0.1,2.1,0,3.1,0.2c4.7,0.9,9.4,1.8,14.1,2.8c0.6,0.1,1.1,0.2,1.7,0.5c-0.3,0.2,4.9,1.1,5.1,1c1-0.8,1.9-1.7,2.8-2.6
	c0.8-0.9,1.8-1.7,2.8-2.4c0.1-0.1,0.2-0.2,0.4-0.2c0.8,0.3,1.6,0.6,2.6,1c-1.7,1-3.3,2-5,3c-0.1,0-0.2,0.1-0.2,0.1
	C68.1,109.7,67.6,110,67.1,110.4 M83.7,40.3c-0.1-0.3-0.2-0.5-0.6-0.4c-0.4,0.1-0.6-0.1-0.8-0.4c-0.3-0.6-0.5-1.3-1-1.7
	c-0.5-0.4-1.2-0.4-1.8-0.5c-0.5-0.1-0.9-0.3-1.4-0.3c-1-0.2-1.9-0.6-2.8-1.3c-1.4-1-2.8-2-4.3-2.9c-0.5,0-0.9-0.2-1.4-0.3
	c-1.3-0.3-2.5-0.5-3.8-0.8c-0.3-0.1-0.4-0.3-0.4-0.5c0-0.3,0-0.5,0.3-0.7c0.4-0.2,0.9-0.3,1.3-0.4c2-0.3,4.1-0.6,6.2-0.6
	c0.5,0,1,0.2,1.4,0.3c0.3,0.1,0.5,0,0.8-0.1c1-0.7,2-1.3,3-1.9c0.2-0.1,0.4-0.2,0.3-0.4c0,0,0-0.1-0.1-0.1c-0.1,0-0.1-0.1-0.2-0.1
	c-0.1,0-0.2,0-0.2,0h0c-1.1,0-2.1,0.3-3.1,0.9c-0.4,0.2-1.2,0.1-1.4-0.3c-1.6-2.4-3.8-4.1-5.9-5.9c-0.9-0.8-1.8-1.7-2.8-2.4
	c-0.3-0.2-0.4-0.7-0.2-0.9c0.2-0.3,0.5-0.2,0.8-0.1c0.8,0.4,1.7,0.8,2.4,1.3c2.6,1.8,5.4,3.4,8.1,5c0.1,0,0.2,0.1,0.2,0.1
	c0.4,0.1,0.6,0,0.6-0.5c0-0.2-0.1-0.4-0.3-0.6c-2.2-2.6-4.6-5.1-6.9-7.7c-0.5-0.5-1.1-1-1.6-1.5c-0.4-0.4-0.8-0.8-1-1.3
	c-0.2-0.3-0.1-0.6,0.1-0.9c0.2-0.2,0.4-0.3,0.6-0.1c0.8,0.4,1.5,0.8,2.2,1.3c1.2,0.9,2.5,1.8,3.7,2.8c1.2,0.9,2.5,1.8,3.7,2.8
	c0.1,0.1,0.2,0.2,0.3,0.2c0.2,0.2,0.4,0.4,0.6,0.6l0.1,0.1c0.1,0.1,0.2,0.2,0.3,0.3c0.3,0.2,0.5,0.3,0.8,0c0.1-0.1,0.1-0.2,0.1-0.3
	c0,0,0-0.1,0-0.1c0,0,0,0,0,0c0-0.1-0.1-0.2-0.2-0.3l-0.8-0.9c-0.5-0.5-0.9-0.9-1.4-1.4c-1.6-1.3-3.2-2.6-4.9-3.9
	c-0.8-0.6-1.8-1.1-2.7-1.6c-0.3-0.2-0.6-0.5-0.8-0.7c-0.2-0.2-0.2-0.4-0.1-0.7c0.1-0.2,0.3-0.2,0.6-0.3c0.3,0,0.6,0.1,0.9,0.2
	c2.1,1,4.2,2.2,6.2,3.4c0.2,0.1,0.3,0.2,0.5,0.3c1.1,0.7,2.2,1.6,3.3,2.4c0.5,0.4,0.9,1,1.3,1.5c0.2,0.2,0.1,0.4-0.1,0.6
	c-0.1,0.1-0.3,0.2-0.4,0.3c-0.1,0.1-0.3,0.2-0.3,0.4c0,0.2,0.3,0.2,0.4,0.3c0.2,0,0.5,0,0.7-0.1c0.8-0.3,1.4,0.2,1.9,0.8
	c0.1,0.1,0.2,0.4,0.4,0.3c0.3-0.1,0.3-0.4,0.3-0.6c-0.1-0.7-0.2-1.4-0.4-2c-0.4-1.7-1.2-3.3-1.9-4.9c-0.2-0.6-0.5-1.2-0.7-1.7
	c-0.1-0.3,0-0.6,0.2-0.8c0.1-0.2,0.4,0,0.6,0.1c0.7,0.3,1.1,0.9,1.4,1.5c0.4,0.7,0.8,1.3,1.2,2c0.7,1.2,1.5,2.3,2,3.5
	c0.8,1.8,1.7,3.5,2.2,5.4c0.4,1.7,1,3.4,1.2,5.1c0.1,0.7,0,1.3,0,1.9c0.2,1.3,0,2.5-0.6,3.7c-0.1,0.3-0.1,0.6,0.1,1
	c1.2,2.4,2.1,5,3.1,7.5c0.1,0.3,0.1,0.5-0.3,0.6c-2.2,0.6-4.4,1.3-6.6,2c-0.3,0.1-0.4,0-0.5-0.3C84.8,43.2,84.3,41.7,83.7,40.3
	L83.7,40.3z M69.8,54.2c0.9-0.3,1.8-0.4,2.8-0.1c0,0,0,0,0.1,0c1.2,0.4,2.4,0.6,3.5,1.2c0.2,0.1,0.4,0.2,0.5,0.4
	c0.7,0.5,1.4,1.1,2,1.9c0.9,1.1,1.7,2.3,2.6,3.5c-0.1,0-0.1,0-0.2-0.1l0,0c-0.3-0.1-0.6-0.3-0.8-0.5c-1-0.6-2-1.1-3.1-1.6
	c-0.5-0.2-1-0.4-1.5-0.5c-1.4-0.3-2.8-0.3-4.2-0.2c-0.4,0-0.8,0-1.2,0c-0.3,0-0.4-0.1-0.4-0.4c0-1.1,0.1-2.2-0.3-3.2
	C69.5,54.4,69.7,54.3,69.8,54.2L69.8,54.2z M69.6,62.1C69.6,62.1,69.6,62.1,69.6,62.1c0-0.1,0-0.1,0.1-0.2s0,0,0-0.1c0,0,0,0,0-0.1
	c0,0,0-0.1,0-0.1c0,0,0,0,0-0.1c0,0,0-0.1,0-0.1c0,0,0,0,0-0.1c0,0,0-0.1,0-0.1c0,0,0,0,0-0.1c0,0,0-0.1,0-0.1c0,0,0,0,0-0.1
	c0,0,0-0.1,0-0.1c0,0,0,0,0-0.1c0,0,0-0.1,0-0.1v-1.2c0-0.4,0.1-0.5,0.5-0.5c0.4,0,0.7,0,1.1,0c0.1,0,0.2,0,0.3,0c0.2,0,0.4,0,0.6,0
	c0.6,0,1.2,0,1.7,0.1c1,0.1,1.9,0.3,2.5,0.7c0.4,0.2,0.9,0.4,1.3,0.7c1,0.6,2,1.2,3,1.8c0.2,0.1,0.4,0.3,0.5,0.5
	c0.3,0.5,0.7,1,1,1.4c0.1,0.1,0.1,0.2,0.1,0.3c0,0-0.1,0.1-0.1,0.1c0,0,0,0,0,0c-0.1,0-0.2,0-0.2-0.1c-0.5-0.3-0.9-0.5-1.4-0.7
	c-1.6-0.9-3.2-1.5-5-2c-0.2,0-0.3-0.1-0.5-0.1c-0.5-0.1-1-0.3-1.5-0.4l-0.7-0.2c0,0,0,0.1,0.1,0.1c0,0,0,0,0.1,0.1
	c0.1,0.1,0.1,0.1,0.2,0.2c0,0,0.1,0,0.1,0c1,0.5,2.8,0.9,4.1,1.5l0,0l-0.1,0l-0.4-0.2c0,0-0.1,0-0.1-0.1c0,0,0,0,0,0c0,0,0,0,0,0
	c0,0,0.1,0,0.1,0.1l0.4,0.2c0,0,0,0,0.1,0l0,0c0.1,0,0.2,0.1,0.3,0.1c0.7,0.4,1.4,0.8,2,1.3l1.2,0.9c1.8,1.3,3,3.2,3.5,5.4
	c0,0.1,0,0.1,0,0.2l0,0.1c0.1,0.1,0.1,0.3,0.1,0.4c0,0,0,0.1,0,0.1c0,0.3-0.3,0.2-0.4,0.2c-1,0-1.9-0.2-2.8-0.5l0,0
	c-0.2-0.1-0.5-0.2-0.8-0.2c-1-0.3-1.9-0.7-2.8-1.1c-1.2-0.4-2.1-1.2-3-1.9c-1.6-1.1-3.2-2.3-4.6-3.7c-0.1-0.1-0.3-0.3-0.4-0.5
	c-0.1-0.2-0.2-0.5-0.3-0.7L69.7,63c0-0.1-0.1-0.2-0.1-0.3c0,0,0,0,0,0c0,0,0,0,0,0v0c0,0,0,0,0,0C69.5,62.5,69.5,62.3,69.6,62.1
	L69.6,62.1z M76.5,62.8L76.5,62.8c-0.1,0-0.1,0-0.1,0C76.4,62.8,76.4,62.8,76.5,62.8L76.5,62.8z M76.3,62.8L76.3,62.8
	c-0.1,0-0.2-0.1-0.2-0.1c0,0-0.1,0-0.1,0c0,0,0.1,0,0.1,0C76.2,62.7,76.3,62.7,76.3,62.8L76.3,62.8z M74.2,62L74.2,62L74.2,62z
	 M73.6,61.9c0-0.1,0-0.1,0-0.1c0,0,0.1,0,0.1,0l0,0C73.7,61.8,73.6,61.8,73.6,61.9L73.6,61.9z M68.7,64.3c0-0.1,0.1-0.2,0.2-0.1
	c0,0,0,0,0,0c0,0,0.1,0,0.1,0.1c0.4,0.7,0.8,1.3,1.4,1.8c0.6,0.6,1.2,1.1,1.8,1.6c1.2,1.1,2.5,2.2,3.8,3.3c0.8,0.7,1.8,1,2.8,1.3
	c2.4,0.6,4.8,0.8,7.2,1.2c0.6,0.1,1.2,0.3,1.7,0.7h0c0,0,0.1,0.1,0.1,0.1c-1.4-0.2-2.7-0.2-4.1-0.2c-1.5,0-2.9,0.1-4.4,0.3
	c-0.5,0.1-1,0-1.5-0.1c-1.4-0.3-2.7-0.9-4.1-1.5c-1.5-0.6-2.8-1.6-4-2.7c-0.1-0.1-0.2-0.2-0.3-0.3c-0.4-0.4-0.7-0.8-0.9-1.3l0,0
	c0,0,0,0,0,0c-0.4-1-0.4-2.1-0.1-3.2C68.5,64.9,68.6,64.6,68.7,64.3L68.7,64.3z M80.7,83.6h-0.3c-0.2,0-0.4,0-0.5,0.1
	c-0.2,0-0.3,0.1-0.4,0.3c-0.1,0.2-0.2,0.3-0.3,0.5c0,0,0,0,0,0.1c-0.4,0.8-0.8,1.6-1.5,2.2c-0.1,0.1-0.3,0.3-0.4,0.4
	c-0.4,0.3-0.7,0.6-1.1,0.9c-0.6,0.5-1.4,0.7-2.1,1l-0.2,0.1c-0.1,0-0.1,0-0.2,0.1c0,0-0.1,0-0.1,0c0,0-0.1,0-0.1,0
	c-0.2,0.1-0.3,0.2-0.2,0.4c0.1,0.3,0.3,0.4,0.5,0.4c0.1,0,0.1,0,0.2,0c0.2,0,0.5-0.1,0.7-0.2c0.2-0.1,0.4-0.2,0.7-0.3
	c0.2-0.1,0.3-0.1,0.5-0.2c-0.1,0.6-0.2,1.1-0.4,1.6c0,0.1-0.1,0.2-0.1,0.2c-0.1,0.3-0.3,0.6-0.4,0.9c-0.1,0.2-0.2,0.4-0.3,0.6
	c-0.5,1.1-1.1,2.1-1.9,3c-0.1,0.2-0.3,0.4-0.5,0.6c-0.4,0.4-0.7,0.7-1.2,1c-0.2,0.1-0.3,0.2-0.5,0.3c-0.3,0.2-0.6,0.4-1,0.6
	c-0.3,0.1-0.5,0.3-0.8,0.4l-0.3,0.1c-0.1,0-0.2,0.1-0.2,0.1c-0.1,0-0.1,0.1-0.2,0.1c-0.2,0.1-0.4,0.1-0.6,0.2c-0.1,0-0.1,0-0.2,0.1
	c-0.2,0.1-0.4,0.1-0.6,0.2c-0.6,0.2-1.2,0.3-1.9,0.5c-0.2,0.1-0.5,0.1-0.7,0.1c0,0-0.1,0-0.1,0c-0.3,0-0.5,0.1-0.7,0.1
	c-0.3,0-0.5,0.1-0.8,0.1c-0.9,0.1-1.8,0.1-2.7-0.1c0,0-0.1,0-0.1,0c0,0-0.1,0-0.1,0c-0.2-0.1-0.5-0.2-0.7-0.3
	c-0.3-0.2-0.6-0.3-0.8-0.5c-0.2-0.1-0.4-0.2-0.6-0.3c-0.3-0.2-0.5-0.3-0.7-0.5c-0.5-0.3-0.8-0.7-1.1-1.3c-0.1-0.3-0.3-0.6-0.4-0.9
	c0-0.1-0.1-0.2-0.1-0.2c-0.4-0.6-0.8-1.2-1.3-1.7c-0.2-0.2-0.4-0.4-0.6-0.6c-0.1-0.1-0.2-0.2-0.3-0.3c-0.4-0.4-0.8-0.9-1.2-1.3
	l-0.3-0.3c-0.4-0.4-0.9-0.8-1.3-1.1c-0.1-0.1-0.2-0.2-0.4-0.3c-0.4-0.3-0.7-0.5-1.1-0.7c-0.1-0.1-0.2-0.1-0.3-0.2
	c-0.1-0.1-0.2-0.1-0.3-0.2c-1.3-0.8-2.3-1.9-2.8-3.4c0,0,0-0.1,0-0.1c-0.2-0.4-0.5-0.6-1-0.6c-0.4,0-0.8-0.1-1.2-0.2l0,0l0,0
	c-0.2-0.1-0.4-0.2-0.6-0.4l-0.1-0.1c-0.1-0.1-0.2-0.3-0.3-0.4c-0.7-1-1.3-2-1.8-3l0,0l0-0.1l0,0c-0.1-0.3-0.2-0.6-0.3-0.9
	C40.1,80.1,40,80,40,79.9c-0.1-0.2-0.1-0.3-0.1-0.5c0-0.1,0-0.2,0-0.2c0,0,0-0.1,0-0.1c0,0,0,0,0-0.1c0,0,0-0.1,0.1-0.1
	c0.1-0.2,0.3-0.4,0.6-0.6c0.1-0.1,0.2-0.2,0.3-0.2c0.2-0.2,0.4-0.3,0.6-0.4c0.3-0.2,0.7-0.4,1-0.6c1.2-0.6,2.6-1.1,3.9-1.4
	c0.1,0,0.2,0,0.2-0.1c0.2,0,0.3,0,0.5-0.1c0.2,0,0.3,0,0.5,0c0.2,0,0.3,0,0.5,0c0.1,0,0.2,0,0.2,0c0.6,0,1.1-0.1,1.7-0.1
	c0.8-0.1,1.7-0.1,2.5-0.2c0.8-0.1,1.7-0.2,2.5-0.3c1.5-0.2,2.9-0.5,4.3-1.1c0.3-0.1,0.6-0.3,0.8-0.4c0.2-0.1,0.3-0.2,0.5-0.3
	c0.1-0.1,0.2-0.1,0.3-0.2c0.7-0.4,1.3-0.7,2-1.1c0.1-0.1,0.1-0.1,0.3-0.2c0,0,0,0,0,0v0.1c0,0.1,0,0.1-0.1,0.2c0,0-0.1,0-0.1,0.1
	c-0.6,0.8-1.5,1.4-2.3,2.1c-0.1,0.1-0.2,0.1-0.2,0.2c-0.2,0.2-0.5,0.4-0.8,0.6c1,0,1.9-0.1,2.7-0.4c1.2-0.4,2.4-1,3.3-2
	c0.2-0.2,0.4-0.5,0.6-0.7c0.5-0.6,0.9-1.4,1.3-2.2c0.3,1.1,1.1,1.8,1.7,2.6c0,0.1,0.1,0.1,0.1,0.2c0,0.1,0.1,0.1,0.1,0.2
	c0.1,0.1,0.2,0.2,0.3,0.3c0.1,0.1,0.1,0.1,0.2,0.2c0.1,0.1,0.1,0.1,0.2,0.2c0,0,0.1,0.1,0.1,0.1c0.5,0.4,1,0.8,1.5,1.1
	c0.3,0.2,0.7,0.5,1,0.7c0.5,0.4,1,0.7,1.5,1c0.7,0.5,1.4,0.9,2.1,1.2c0.2,0.1,0.4,0.2,0.6,0.3c0.6,0.2,1.1,0.5,1.7,0.6l0.1,0
	c0.4,0.1,0.8,0.1,1.1,0.2c0.1,0,0.3,0,0.4,0c0.1,0,0.2,0.1,0.3,0.1c0.1,0.1,0.2,0.1,0.3,0.2c0.3,0.3,0.7,0.7,0.7,1c0,0,0,0.1,0,0.1
	c0,0,0,0,0,0c0,0.1-0.1,0.1-0.2,0.2c-0.1,0.2-0.3,0.5-0.4,0.7c0,0,0,0.1-0.1,0.1c-0.1,0.4-0.2,0.7,0,1.2c0.5-0.5,1-1.1,1.3-1.7
	c0.1-0.2,0.2-0.4,0.3-0.5c0.1-0.1,0.1-0.3,0.1-0.4c0-0.1,0-0.3,0-0.4c0-0.1-0.1-0.3,0-0.4c0,0,0,0,0,0c0,0,0,0,0.1,0
	c0,0,0.1,0,0.1,0c0.1,0,0.2,0,0.3,0c0.2,0,0.4,0,0.6,0.1c0.1,0,0.1,0.2,0.1,0.3v0c0,0.4-0.2,0.8-0.3,1.1c0,0.1-0.1,0.2-0.1,0.3
	c-0.2,0.6-0.5,1.2-0.9,1.7C82.3,82.9,81.7,83.5,80.7,83.6z M81.9,85.6c-0.1,0.8-0.3,1.5-0.4,2.3c0,0.2-0.1,0.5-0.2,0.8l0-0.2
	c0,0,0,0.1-0.1,0.1c-0.2-1.1-0.3-2.2-0.3-3.2c0-0.2,0.2-0.3,0.3-0.4c0.3-0.1,0.6-0.4,0.7-0.2c0,0,0,0,0.1,0.1c0,0,0,0,0,0
	C82.2,85,81.9,85.4,81.9,85.6L81.9,85.6z M65.6,102c-0.4,0.1-0.8,0.1-1.3,0.1c-0.4,0-0.8,0-1.3-0.1c-0.2-0.1-0.3-0.2-0.3-0.4
	c0-0.1,0.1-0.1,0.2-0.1c0.1,0,0.1,0,0.2,0H64c0.1,0,0.2,0,0.4,0c0.4,0,0.7,0,1.1-0.1c0.1,0,0.1,0,0.2,0c0.1,0,0.3,0,0.3,0.2
	C65.9,101.7,65.9,101.9,65.6,102L65.6,102z M45.1,92.1L45.1,92.1c0.2-0.9,0.1-1.8,0.3-2.8c0-0.2,0.1-0.2,0.2-0.1
	c0.2,0.2,0.3,0.3,0.5,0.5l0,0l0.1,0.1c0.1,0.1,0.1,0.2,0.1,0.3C45.9,90.8,45.5,91.5,45.1,92.1C45.2,92.2,45.1,92.2,45.1,92.1
	C45.1,92.1,45.1,92.1,45.1,92.1L45.1,92.1L45.1,92.1z M80.5,76.8c-0.4,0-0.8-0.1-1.2-0.1c-0.8,0-1.4-0.4-2.1-0.7h0.1
	c-0.1,0-0.1-0.1-0.2-0.1c0.1,0,0.2,0,0.3,0c0.1,0,0.3,0,0.4,0.1c1.1,0.2,2.1-0.1,3.2-0.2c1.1-0.1,2.1,0.3,3,0.8c0,0,0,0-0.1,0
	c0,0,0.1,0.1,0.1,0.1C83,76.9,81.8,77,80.5,76.8L80.5,76.8z M39.3,62.8c0.4-0.7,0.8-1.4,1.2-2c0.2-0.3,0.4-0.6,0.7-0.9
	c0.1-0.2,0.2-0.3,0.4-0.5c0.4-0.5,0.7-0.9,1.1-1.4c0.4-0.4,0.7-0.9,1.1-1.3c0.4-0.4,0.8-0.9,1.1-1.3c0.2-0.2,0.3-0.3,0.5-0.5
	l0.1-0.1c0.4-0.3,0.7-0.6,1.1-1l0.1,0c0.1-0.1,0.2-0.2,0.3-0.3c1.1-1,2.4-1.9,3.7-2.7c0.1-0.1,0.3-0.2,0.4-0.2
	c0.2-0.1,0.3-0.1,0.5-0.2c0,0,0.1,0,0.1-0.1c0.3-0.1,0.5-0.2,0.8-0.3c0.2-0.1,0.4-0.1,0.5-0.2c0.6-0.2,1.3-0.3,1.9-0.5
	c1.2-0.4,2.4-0.5,3.6-0.5c0.2,0,0.3,0,0.5,0c0.9,0,1.8,0.4,2.6,0.8c0.4,0.2,0.7,0.3,1.1,0.5l0.3,0.1c0.3,0.1,0.5,0.3,0.8,0.4
	c0.2,0.1,0.3,0.2,0.5,0.3c0.2,0.1,0.3,0.2,0.5,0.3c0.3,0.2,0.6,0.5,0.9,0.8c1,0.9,1.7,2,2.1,3.3c0.3,0.9,0.5,1.9,0.6,2.8
	c0.1,0.9-0.2,1.8-0.4,2.7c0,0.1-0.1,0.2-0.1,0.2c-0.1,0-0.1-0.1-0.2-0.2c-0.3-0.4-0.7-0.8-1-1.1c-1.3-1.5-2.8-2.6-4.8-3.1
	c-1.5-0.4-3-0.7-4.6-0.7c-1.2,0-2.5,0.2-3.7,0.4c-1,0.2-1.9,0.3-2.9,0.5c-0.6,0.1-1.2,0.4-1.8,0.6c-0.3,0.1-0.5,0.2-0.8,0.3l-0.1,0
	c-1.7,0.6-3.2,1.6-4.7,2.6c-0.4,0.3-0.8,0.6-1.1,1l0,0L42,61.7c-0.7,0.7-1.4,1.4-2.1,2c-0.3,0.5-0.8,0.8-1.2,1.2
	C38.7,64.2,39,63.4,39.3,62.8z M39,67.2c0.1-0.1,0.1-0.2,0.2-0.2c1.5-1.5,3-3.1,4.7-4.4c2.8-2.2,5.9-3.9,9.4-4.7
	c0.9-0.2,1.7-0.3,2.6-0.3c1,0,2,0,3-0.1c1.9-0.1,3.7,0.5,5.3,1.5c0.6,0.4,1.2,0.8,1.7,1.3l0.1,0.1c0.6,0.6,1.1,1.2,1.5,1.9
	c0.4,0.6,0.3,1.2,0.1,1.9c-0.3,1.9-1.5,3.2-2.7,4.5c-1.2,1.2-2.7,2-4.1,3c-2,1.3-4.3,1.8-6.6,2.2c-2.9,0.4-5.8,0.5-8.7,0.9
	c-1.1,0.1-2.1,0.2-3.2,0.4c-1.3,0.2-2.3,0.8-3.1,1.9c-0.3,0.4-0.5,0.9-0.7,1.4c0-0.1,0-0.1,0-0.2c-0.2-0.6-0.1-1.1,0.2-1.6
	c0.5-1.1,1.4-1.9,2.4-2.5c1.9-1,4-1.2,6.1-1.7c1.7-0.4,3.3-0.7,5-1.1c2.3-0.6,4.5-1.4,6.5-2.5c1.1-0.6,2.2-1.2,3-2.2
	c0.6-0.8,0.7-1.6,0.6-2.6c0-0.2-0.1-0.2-0.1-0.2c-0.1,0-0.1,0-0.2,0.1c-0.8,0.7-1.7,1.4-2.6,2.1c-1.5,0.9-3.1,1.5-4.8,1.9
	c-2.7,0.7-5.3,1.2-8.1,1.4c-1.9,0.1-3.8,0.5-5.7,1.1c-1.6,0.5-3.1,1.1-4.4,2.2c-0.2,0.1-0.3,0.3-0.6,0.5c0-0.1,0-0.1,0-0.2
	c0,0-0.1,0.1-0.1,0.1l0,0c0,0,0.1-0.1,0.1-0.1c0.1-0.4,0.2-0.6,0.4-0.9C37,70.3,38,68.7,39,67.2L39,67.2z M50,70.1l2.4-0.4l0.4-0.1
	c-0.5,0.3-1,0.4-1.6,0.5c-2.6,0.6-5.2,1-7.8,1.5c-1.9,0.4-3.5,1.1-5.1,2.2c-0.1,0.1-0.2,0.1-0.3,0.2c-0.1,0.1-0.2,0.1-0.2,0
	c0,0,0-0.1,0-0.1c0-0.7,0.2-1,0.8-1.3c0.8-0.4,1.7-0.8,2.5-1.2c1.1-0.5,2.2-0.6,3.4-0.8C46.3,70.5,48.2,70.3,50,70.1z M49.9,70
	L49.9,70L49.9,70L49.9,70L49.9,70z M40.5,27.1c0,0.1,0.1,0.2-0.1,0.3c-0.4,0.2-0.8,0.5-1.2,0.7c0,0-0.1,0-0.2,0.1
	c0-0.1-0.1-0.2-0.1-0.2l-2.5-2.8c-0.1-0.1-0.2-0.3,0-0.4c0.8-0.5,1.4-1.2,2.3-1.6c0.2-0.1,0.3-0.1,0.4,0.1
	C39.7,24.5,40,25.8,40.5,27.1z M33.8,21.3c1.2-0.4,2.3-0.9,3.5-1.4c1.7-0.7,3.2-1.6,4.8-2.4c0.2-0.1,0.3-0.2,0.5-0.3
	c0.1-0.1,0.3-0.3,0.5-0.2c0.2,0.1,0.1,0.4,0.1,0.6c0.1,0.3-0.1,0.5-0.4,0.7c-1.6,1.5-3.2,2.9-4.9,4.2c-0.7,0.5-1.5,0.8-2.2,1.2
	c-0.2,0.1-0.2,0-0.3-0.1c-0.6-0.7-1.1-1.4-1.6-2.1C33.4,21.3,33.7,21.3,33.8,21.3L33.8,21.3z M23.8,36.3c-1.3-3.9-2.6-7.7-3.6-11.7
	c-0.2-0.9-0.3-1.9-0.5-2.8c-0.1-0.3,0.1-0.4,0.3-0.5c0.2-0.1,0.3,0.2,0.3,0.3c1.7,2.4,2.9,5.1,4.3,7.6c0.4,0.8,0.9,1.5,1.3,2.3
	c0.1,0.1,0.2,0.3,0.4,0.2c0.2-0.1,0.2-0.2,0.2-0.4c-0.2-0.8-0.6-1.5-0.9-2.3c-0.1-0.3-0.1-0.5,0-0.7c0.6-1.3,1.5-2.4,2.2-3.7
	c0.6-1.1,1.5-2.1,2.1-3.3c0.3-0.6,1-0.7,1.5-0.2c0.3,0.3,0.6,0.7,0.8,1c0.8,1.3,1.9,2.3,3,3.4c0.7,0.7,1.5,1.5,2.3,2.2
	c0.3,0.2,0.3,0.6,0.5,0.9c0.1,0.1,0,0.2-0.1,0.3c-0.1,0-0.1,0.1-0.1,0.1c-0.6,0.6-1.3,0.5-2,0.1c-1.5-0.8-2.8-1.8-4-3
	c0,0-0.1-0.1-0.1-0.1c-0.5-0.4-0.6-0.4-0.8,0.2c-0.2,0.6-0.4,1.3-0.7,1.8c-0.1,0.2,0.1,0.4,0.2,0.6c0.2,0.2,0.3,0.5,0.6,0.4
	c0.1,0,0.2-0.1,0.3-0.3c0.1-0.4,0.2-0.7,0.3-1.2c1.2,1,2.5,1.8,3.9,2.7c-0.5,0.3-0.9,0.5-1.3,0.7c-3.3,1.8-6.5,3.7-9.8,5.5
	C24,36.6,23.9,36.6,23.8,36.3L23.8,36.3z M25,38.9c-0.1-0.3-0.1-0.4,0.2-0.5c4-2.4,7.9-4.9,11.8-7.4c0.2-0.1,0.4-0.1,0.6-0.1
	c0.7-0.2,1.4-0.4,2-0.7c0,0,0.1-0.1,0.1-0.1c0.4-1,1.4-1.3,2.2-1.7c1.9-0.9,3.8-1.7,5.4-2.9c0.4-0.3,0.8-0.2,1.1,0
	c0.3,0.2,0.5,0.6,0.4,1c-0.1,0.5-0.3,1-0.7,1.3c-1.6,1.5-2.9,3.2-4,5c-1,1.7-2.1,3.3-2.9,5.1c-0.2,0.4-0.4,0.6-0.7,0.9
	c-1.1,1.3-2.4,2.2-3.9,2.9c-0.3,0.2-0.5,0.4-0.5,0.7c0,0.3-0.1,0.5-0.1,0.8c0,0.7-0.3,1.3-0.9,1.7c-0.2,0.1-0.2,0.4-0.3,0.6
	l-1.3,4.2c0,0,0,0.1,0,0.1c0,0.1,0,0.1-0.1,0.2c-0.2,0-0.4,0-0.5-0.1c-2-0.5-4.1-1-6.1-1.5c-0.3-0.1-0.5-0.1-0.8-0.2
	c-0.4-0.1-0.4-0.2-0.3-0.6c0.3-1.3,0.6-2.6,1.4-3.7c0.2-0.2,0.2-0.4,0-0.7C26.3,42,25.7,40.4,25,38.9L25,38.9z M20.7,55.7
	c-0.1,0-0.1,0-0.2,0c-0.2-0.1-0.3-0.2-0.2-0.5c0.2-2.2,0.5-4.4,0.7-6.5c0-0.1,0-0.1,0-0.1c0,0,0,0,0-0.1c0-0.1,0.1-0.1,0.2-0.1
	c0,0,0.1,0,0.2,0c3,0.8,5.9,1.6,8.9,2.3c3,0.8,5.9,1.6,8.9,2.3c0.3,0.1,0.4,0.2,0.3,0.5l-1.3,4.2c0,0.2-0.1,0.3-0.3,0.3
	c0,0-0.1,0-0.1,0c-1.6-0.2-3.2-0.4-4.8-0.6c-1-0.1-2.1-0.3-3.1-0.4C26.9,56.5,23.8,56.1,20.7,55.7L20.7,55.7z M23.1,59.9
	c-0.1-0.2,0-0.3,0-0.4c0-0.1,0-0.1,0.1-0.2c0,0,0,0,0,0.1C23.2,59.5,23.2,59.7,23.1,59.9L23.1,59.9z M50.3,101L50.3,101
	c-0.1,0-0.1,0.1-0.2,0.1c0,0-0.1,0-0.1,0.1c-0.1,0-0.1,0.1-0.2,0.1c-0.1,0.1-0.3,0.2-0.4,0.4c0,0,0,0,0,0c0,0,0,0.1,0,0.1h0v0.1
	c-0.1,0.3-0.2,0.6-0.2,0.7c0,0,0,0.1,0,0.1c0,0,0,0.1,0,0.1c0,0,0,0,0,0.1c0,0-0.1,0-0.1,0.1h0c-0.1,0-0.1,0-0.2-0.1
	c-0.2-0.1-0.4-0.1-0.6-0.2c0,0,0,0-0.1,0c0,0,0,0-0.1,0c0,0-0.1,0-0.1-0.1h0v0h0c-0.3-0.1-0.6-0.2-0.9-0.3c-0.2-0.1-0.4-0.1-0.6-0.2
	c-0.2-0.1-0.5-0.2-0.7-0.2c-0.6-0.2-1.3-0.3-1.9-0.6c-0.1,0-0.1,0-0.2,0v0c-0.4-0.1-0.8-0.2-1.2-0.3c-0.4-0.1-0.6-0.3-0.5-0.7
	c0-0.2,0-0.4,0-0.5c0-0.1,0-0.1,0-0.2c-0.1-0.1-0.2-0.2-0.3-0.4c0,0,0-0.1-0.1-0.1c-0.1-0.1-0.2-0.1-0.2-0.2c-0.1,0-0.1,0-0.1-0.1
	c-0.3-0.3-0.2-0.7-0.2-1.2c0,0,0-0.1,0-0.1c0-0.1,0-0.2,0-0.3c0,0,0-0.1,0-0.1c0.2-0.7,0.2-1.3-0.5-1.7c-0.1-0.1-0.1-0.1-0.3-0.2v0
	c-0.3-0.3-0.7-0.5-1-0.8c-0.1-0.1-0.1-0.1-0.2-0.2c-0.6-0.3-1-0.6-1.4-1c-0.1-0.1-0.2-0.1-0.3-0.2l0,0c-0.1-0.1-0.1-0.1-0.2-0.2
	c-0.1-0.1-0.2-0.1-0.3-0.2c-0.6-0.5-1.3-0.9-1.9-1.5c-0.2-0.1-0.3-0.2-0.5-0.4v0c-0.6-0.4-1.2-0.8-1.7-1.2h0c-0.1,0-0.1-0.1-0.2-0.1
	c-0.3-0.2-0.7-0.4-0.9-0.7c-0.1-0.1-0.2-0.1-0.3-0.1c-0.3-0.2-0.5-0.3-0.7-0.5c-0.1-0.1-0.2-0.1-0.3-0.2c-0.7-0.4-1.3-0.8-1.8-1.3
	l-0.1-0.1c0,0-0.1-0.1-0.1-0.1c0-0.1-0.1-0.1-0.1-0.2c0-0.1,0-0.1-0.1-0.2v0.1c-0.4-0.4-0.7-0.9-1-1.4l0-0.1c0,0,0,0,0-0.1
	c0,0,0-0.1,0-0.1c0-0.1,0.1-0.2,0.1-0.2c0,0,0-0.1,0-0.1c0.1-0.7,0.5-1.3,0.8-2v-0.2c0,0,0-0.1,0-0.1c0,0,0,0,0-0.1l0,0
	c0,0,0,0-0.1,0h0c-0.1,0-0.2,0-0.3,0.1c-0.1,0.1-0.2,0.1-0.3,0.2c0,0-0.1,0-0.1,0.1c0,0,0,0.1-0.1,0.1c0,0,0,0,0,0c0,0,0,0,0,0
	c0,0,0,0,0,0v0c-0.2,0.3-0.6,0.5-0.8,0.7c-0.1,0.1-0.2,0.1-0.2,0.2v0h0c-0.1,0.1-0.2,0.1-0.3,0.1c-0.5-0.2-0.9-0.4-1.4-0.6
	c-0.1-0.1-0.2-0.2-0.2-0.3c0,0,0-0.1,0-0.1c0,0,0-0.1,0-0.1v0c-0.2-0.8,0.1-1.3,0.2-2c0-0.1,0-0.1,0-0.2c0.1-0.6,0.2-1.3,0.3-1.9
	v-0.3h0c-0.1-0.7-0.1-1.4-0.2-2.1c0-0.1,0-0.2,0-0.4c-0.1-1.3-0.2-2.6-0.2-3.9c-0.1-2.7-0.3-5.5-0.2-8.2c0-0.4-0.1-0.8-0.2-1.2
	c0-0.1-0.1-0.2-0.1-0.3c-0.1-0.3-0.3-0.5-0.5-0.7c-0.2-0.3-0.3-0.7-0.2-1.1c0.2-0.6,0.3-1.3,0.4-1.9c0.1-0.3,0.1-0.5,0.5-0.4
	c0.1,0,0.3,0,0.4,0c0.6,0.1,1.2,0.1,1.8,0.3c0.1,0,0.1,0,0.2,0c0.5,0,1.1,0.1,1.7,0.2c0.1,0,0.1,0,0.2,0c0.7,0.1,1.3,0.2,2,0.3
	c0.2,0,0.3,0,0.4,0.1c0,0,0.1,0,0.1,0c0.8,0.1,1.4,0.1,2,0.3h-0.1v0c0.4,0.1,0.7,0.1,1.1,0.2c0.4,0.1,0.7,0.1,1.1,0.1h0
	c0,0,0.1,0,0.1,0c0,0,0.1,0,0.1,0c0.2,0,0.3,0.1,0.3,0.3c0.2,1,0.3,2.1,0.5,3.1c0,0.1,0,0.1,0,0.2c0,0.2,0.1,0.3,0.1,0.5
	c0.1,0.5,0.2,1,0.3,1.5c0,0,0,0.1,0,0.2v0c0.1,0.7,0.2,1.3,0.3,1.9v0.2c-0.2,0.2-0.4,0.5-0.6,0.7c-0.3,0.4-0.6,0.9-0.8,1.4
	c-0.1,0.3-0.3,0.7-0.5,1l0,0c-0.1,0.4-0.3,0.7-0.5,1c0,0,0,0,0,0c0,0,0,0.1-0.1,0.1v0c-0.2,0.5-0.4,1-0.6,1.4
	c-0.1,0.2-0.2,0.3-0.3,0.5c0,0.1-0.1,0.2-0.1,0.3c-0.1,0.4-0.2,0.8-0.4,1.2c-0.1,0.4-0.2,0.7-0.3,1c-0.1,0.7-0.4,1.2-0.6,1.8
	c0,0.1-0.1,0.2-0.1,0.3c0,0,0,0,0,0c0,0,0,0.1,0,0.1c0,0,0,0.1,0,0.1c0,0,0,0,0,0c-0.1,1.1-0.1,2.3-0.2,3.4l0.1,0
	c0.1-0.3,0.3-0.6,0.4-0.8c0.1-0.3,0.3-0.6,0.4-0.8c0.1-0.2,0.2-0.4,0.2-0.6c0.3-0.6,0.6-1.1,1-1.6c0-0.1,0.1-0.1,0.1-0.2
	c0.3-0.4,0.6-1,1-1.5c0.1-0.2,0.2-0.4,0.4-0.6h0c0.1-0.2,0.2-0.3,0.3-0.4c0.1-0.1,0.2-0.2,0.4-0.3c0,0.1,0,0.2,0,0.2c0,0,0,0,0,0
	c0,0,0,0.1,0,0.1c0,0,0,0,0,0c0,0,0,0.1,0,0.1c0,0,0,0.1,0,0.1c0,0,0,0.1,0,0.1c0,0,0,0,0,0.1h0c-0.1,0.7-0.1,1.4-0.1,2.1
	c0,0,0,0.1,0,0.1l0,0c0.1,0.7,0.2,1.3,0.3,2h0c0,0,0,0.1,0,0.2c0.1,0.7,0.3,1.3,0.3,2c0,0,0,0.1,0,0.1c0,0,0,0.1,0,0.1
	c0.1,0.5,0.5,0.9,0.7,1.4c0.2,0.3,0.4,0.6,0.5,0.8h0v0c0.6,0.5,1,1,1.6,1.4c0.1,0,0.2,0.1,0.3,0.1h0v0.1c0.2,0,0.4,0.2,0.6,0.1
	c0,0,0.1,0,0.1-0.1c0,0,0.1,0,0.1-0.1c0.1-0.1,0-0.2-0.1-0.2c-0.9-0.6-0.8-1.5-0.9-2.4h0v0c0.2,0.2,0.4,0.4,0.6,0.6
	c0,0,0.1,0.1,0.1,0.1c0.1,0.1,0.2,0.2,0.2,0.3c0.2,0.2,0.3,0.3,0.5,0.5c0.2,0.1,0.4,0.3,0.6,0.4c0.1,0,0.2,0.1,0.3,0.1h0
	c0.7,0.3,1.2,0.6,1.8,0.9c0.1,0,0.3,0.1,0.4,0.2c0.2,0.7,0.5,1.3,0.4,2.1c0,0,0,0.1,0.1,0.1c0,0.1,0,0.1,0,0.1
	c0.1,0.6,0.1,1.3,0,1.9c0,0.1,0,0.1,0,0.2c0,0,0,0,0,0.1h0c0,0.6,0,1.3-0.2,1.9c0,0.6-0.2,1.2-0.3,1.9c0,0,0,0,0,0.1
	c0,0.1-0.1,0.3,0.2,0.2v0c0.6-0.6,1.2-1.2,1.7-1.9v0c0-0.2,0.1-0.3,0.3-0.4c0.2-0.2,0.5-0.6,0.7-0.9c0.2-0.3,0.5-0.6,0.7-0.9
	c0,0,0,0,0-0.1c0-0.1,0.1-0.2,0.1-0.2c0,0,0,0,0.1,0h0.1c0.1,0,0.1,0,0.2,0.1c0.1,0.1,0.2,0.1,0.4,0.2c0.7,0.4,1.4,0.6,1.9,1.2
	c0.1,0.1,0.1,0.1,0.2,0.2c0.2,0.1,0.4,0.4,0.6,0.6c0.1,0.1,0.1,0.1,0.2,0.2c0,0,0,0,0,0c0.9,0.7,0.9,1.1,0.3,2.1
	c0,0-0.1,0.1-0.1,0.1c0,0.1-0.1,0.2-0.1,0.3c0,0.1-0.1,0.1-0.1,0.2c0,0,0,0.1,0,0.1c-0.2,0.3-0.3,0.5-0.4,0.8
	c-0.1,0.3-0.1,0.5-0.1,0.8c0.1,0.4,0.2,0.9,0.3,1.3c0.1,0.3,0.1,0.5,0.1,0.8C51.2,100.3,50.9,100.7,50.3,101L50.3,101z M53.2,106.3
	c-0.1,0.2-0.2,0.5-0.4,0.5h0c0,0,0,0-0.1,0c-0.4-0.1-0.9-0.2-1.2-0.4c-0.1-0.1-0.1-0.3-0.1-0.4v-2.1c0-0.1,0.1-0.3-0.1-0.4
	c-0.5-0.3-0.4-0.8-0.5-1.3c0-0.2,0.1-0.3,0.2-0.4c0.4-0.5,0.8-0.9,1.3-1.4c0.3-0.3,0.4-0.6,0.2-1c-0.4-0.7-0.3-1.5,0-2.2
	c0.3-0.6,0.4-1.2,0.6-1.9c0,0,0,0.1,0.1,0.1v0c0.4,0.5,0.9,1,1.1,1.5c0.7,1.3,1.7,2.3,3,3c0.6,0.3,1.2,0.8,1.9,0.9l0,0
	c0,0,0.1,0,0.1,0c0.1,0,0.2,0,0.2,0.1c0,0.1-0.1,0.1-0.1,0.1h0c0,0,0,0-0.1,0c-0.8,0-1.5,0.1-2.3,0.3c-0.4,0.1-0.8,0.2-1.2,0.3
	c-0.4,0.1-0.7,0.2-1.1,0.2c0,0,0,0-0.1,0c0,0,0,0,0,0c-0.2,0-0.2,0.1-0.2,0.3c0,0.2,0.1,0.3,0.3,0.3c0.4,0.1,0.8,0.1,1.2,0.1l0.1,0
	c0.5,0,1.1-0.1,1.6-0.2c0.6-0.1,1.2-0.1,1.8-0.1c0.6,0,1.2,0,1.8,0.1c-2,0.3-3.6,1.4-5.4,2.2c-0.9,0.4-1.6,1.1-2.5,1.6
	C53.3,106.1,53.3,106.2,53.2,106.3L53.2,106.3z M58.9,107.8C58.9,107.8,58.9,107.8,58.9,107.8C58.9,107.8,58.9,107.8,58.9,107.8
	C58.9,107.8,58.9,107.8,58.9,107.8c-0.1,0-0.1,0-0.1,0c-1.3-0.3-2.6-0.6-4-1c0.5-0.4,0.8-0.6,1.3-0.4c0.9,0.4,1.7,0.8,2.6,1.3
	C58.8,107.6,58.9,107.7,58.9,107.8C58.9,107.7,58.9,107.7,58.9,107.8L58.9,107.8L58.9,107.8z M67.9,106.1c-1,0.8-2,1.6-3,2.5
	c-0.2,0.2-0.4,0.2-0.7,0.1c-1.6-1-3.3-1.8-5-2.5c-0.8-0.3-1.6-0.5-2.3-0.7c0.1-0.2,0.3-0.2,0.4-0.2c1.7-0.6,3.4-1.2,5.1-1.9
	c0.4-0.2,0.9,0,1.3,0c0.6,0.1,1.2,0.1,1.8-0.2c0.1-0.1,0.2-0.1,0.3,0c1.3,0.5,2.6,1.1,3.9,1.6C69.1,105.2,68.5,105.7,67.9,106.1
	L67.9,106.1z M75.8,100.5c-0.5,0.7-0.6,1.5-0.4,2.2c0.3,0.9,0.1,1.6-0.8,2.1c-0.2,0.1-0.4,0.2-0.6,0.2c-0.1,0-0.3,0-0.4-0.1
	c-1.7-1.2-3.8-1.6-5.7-2.3c-0.3-0.1-0.5-0.2-0.8-0.3c-0.3-0.1-0.3-0.3-0.3-0.5c0-0.2,0.1-0.2,0.2-0.2c0.1,0,0.2,0,0.3,0.1
	c2.2,0.6,4.4,1,6.5,1.8c0.1,0,0.1,0,0.2,0.1c0.2,0,0.2-0.2,0.2-0.4c0-0.5-0.1-1-0.7-1.2c-1.4-0.7-2.9-0.9-4.5-1.1
	c-0.2,0-0.5,0-0.7,0c1.1-0.7,2.3-1,3.3-1.9c0.1-0.1,0.2-0.2,0.3-0.3l1.8-2.2c0.1-0.1,0.1-0.2,0.2-0.4c0,0,0,0,0.1,0l0,0
	c0.2,0.1,0.2,0.2,0.2,0.3c0.5,1.1,0.9,2.3,1.4,3.4C76,100.1,76,100.3,75.8,100.5L75.8,100.5z M99.4,53.8c0,0,0.1,0.1,0.1,0.1
	c0,0,0,0.1,0,0.1c0,0,0,0-0.1,0.1c0,0,0,0,0,0.1l0,0c0,0,0,0,0,0c0,0,0,0,0,0h0v0c-0.7,0.7-0.5,1.3,0,1.9c0,0.1,0.1,0.1,0.1,0.2
	c0.4,0.6,0.1,1.2,0,1.7c0,0.1,0,0.1-0.1,0.1c0,0,0,0,0,0c0,0-0.1,0-0.1,0c0,0,0,0,0,0c-0.4-0.1-0.8-0.2-1.2-0.4c0,0-0.1,0-0.1,0
	c0,0-0.1,0-0.1,0c-0.2,0-0.4,0-0.5-0.1c-0.5-0.2-0.9-0.1-1.3,0.2c0,0,0,0.1,0,0.1c0.2,0.3,0.5,0.3,0.8,0.4c1.1,0.4,2.1,1.1,3.1,1.6
	c0.2,0.1,0.3,0.4,0.3,0.7c0,0.2-0.1,0.3-0.1,0.5l-0.3,1.4c0,0.1,0,0.2-0.1,0.4c0,0.8-0.5,1.3-0.8,2c0,0.1-0.1,0.1-0.1,0.2
	c-0.2,0.5-0.4,0.9-0.6,1.4c0,0,0,0.1-0.1,0.1v0c0,0,0,0,0,0c0,0,0,0,0,0c0,0,0,0,0,0c-0.1,0.2-0.1,0.4-0.3,0.6
	c-0.2,0.7-0.5,1.3-0.9,2c0,0.1-0.1,0.1-0.1,0.2c-0.3,0.7-0.6,1.5-0.9,2.2c-0.1,0.3-0.1,0.5-0.2,0.8l0,0.1c0,0,0,0,0,0c0,0,0,0,0,0.1
	c0,0.3,0,0.6-0.2,0.9c-0.1,0.2-0.1,0.4-0.2,0.6c0,0,0,0.1,0,0.1c-0.3,1.4-0.6,2.8-0.9,4.2c-0.3,1.1-0.4,2.3-0.5,3.5
	c-0.2,1.1-0.2,2.2-0.5,3.2c-0.2,0.8-0.6,1.5-1,2.2c-0.3,0.7-0.5,1.4-0.9,2l0,0.1c0,0,0,0.1-0.1,0.1c0,0,0,0.1,0,0.1
	c0,0.1,0,0.1,0,0.2c0,0.1,0,0.1,0,0.2s0,0.1,0,0.2v0.2c0,0.1,0,0.2,0,0.3C91.1,91.6,91,92.8,91,94c0,0.2-0.1,0.3-0.3,0.4l-0.3,0.1
	c-0.2,0.1-0.4,0.1-0.5,0.2c-0.1,0-0.2,0.1-0.3,0.1c-0.1,0.1-0.2,0.1-0.5,0.2v0c0,0,0,0-0.1,0c-0.2,0.1-0.4,0.2-0.6,0.3
	c-0.1,0.1-0.3,0.1-0.4,0.2c-0.3,0.2-0.6,0.3-1,0.4L87,95.9c-0.7,0.3-1.4,0.6-2.1,0.9c0,0-0.1,0-0.1,0c-0.4,0.1-0.8,0.3-1.1,0.5
	c-0.4,0.2-0.8,0.3-1.2,0.5c-0.6,0.3-1.3,0.6-1.9,0.8c0,0-0.1,0-0.1,0c-0.6,0.2-1.2,0.5-1.7,0.8c-0.2,0.1-0.5,0.2-0.8,0.4
	c-0.5,0.2-0.6,0.2-0.7-0.3c-0.3-0.2-0.4-0.6-0.5-1c-0.1-0.3-0.2-0.7-0.3-1c0-0.1-0.1-0.1-0.1-0.2c-0.1-0.2-0.1-0.3-0.2-0.5
	c0,0,0-0.1,0-0.1c0,0,0-0.1,0-0.1c0,0,0-0.1,0-0.1h0c-0.2-0.5-0.3-0.9-0.4-1.4c-0.1-0.3-0.3-0.6-0.4-0.9c0-0.1,0-0.2,0-0.3
	c0-0.1,0-0.1,0-0.2c0,0,0-0.1,0-0.1c0.1-0.2,0.2-0.4,0.3-0.6c0.1-0.2,0.1-0.4,0.2-0.5c0.1-0.2,0.1-0.3,0.2-0.5
	c0.2-0.3,0.3-0.7,0.5-1.1c0-0.1,0.1-0.2,0.1-0.3c0.2-0.7,0.4-1.4,0.7-2c0,0,0-0.1,0-0.1c0.1-0.4,0.5-0.5,0.7-0.8v0
	c0.1,0,0.2-0.1,0.2-0.1c0.1-0.1,0.1-0.2,0.2-0.2c0.1-0.1,0.2-0.3,0.3-0.5c0.1-0.1,0.1-0.2,0.2-0.2c0.2-0.3,0.4-0.6,0.6-0.9
	c0.1-0.1,0.1-0.3,0.3-0.3c0,0,0,0,0.1,0c0.2,0,0.1,0.3,0.1,0.4c-0.1,0.5-0.1,1,0,1.5c0.1,0.4,0.1,0.8,0.2,1.2c0,0.1,0,0.1,0,0.2
	c0.1,0.3,0.2,0.6,0.2,0.9c0.1,0.4,0.2,0.7,0.3,1.1c0.3,0.7,0.6,1.4,0.8,2.1l0,0c0.4,0.6,0.7,1.2,1.1,1.8c0.1,0.1,0.2,0.3,0.3,0.4h0
	v0.1c0.1,0,0.2,0.2,0.3,0c0-0.1-0.1-0.1-0.1-0.1c-0.1-0.1-0.1-0.2-0.1-0.4c0-0.1-0.1-0.2-0.1-0.2c0-0.1,0-0.2-0.1-0.2
	c0,0,0-0.1,0-0.1c0-0.1,0-0.1,0-0.2c0-0.1,0-0.2-0.1-0.3c0-0.1,0-0.2-0.1-0.3c0,0,0-0.1,0-0.1c0,0,0-0.1,0-0.1c0-0.1,0-0.3-0.1-0.4
	l-0.1-0.8c0-0.1-0.1-0.3-0.1-0.4c-0.2-1.4-0.1-2.9,0.2-4.3h0.1c0.1-0.7,0.3-1.4,0.4-2.1c0,0,0.1,0,0.1,0c0,1.2,0.1,2.4,0.3,3.6
	c0,0,0,0.1,0,0.1c0.2,0.5,0.3,0.9,0.5,1.4c0,0.1,0.1,0.2,0.1,0.3c0,0.1,0.1,0.2,0.1,0.3c0,0.1,0.1,0.1,0.1,0.2
	c0,0.1,0.1,0.1,0.1,0.2c0.1,0.1,0.2,0.2,0.3,0.3c0.1,0.1,0.1,0.2,0.2,0.2c0.2,0.2,0.5,0.4,0.8,0.7c0-0.2-0.1-0.4-0.1-0.6
	c0-0.2-0.1-0.4-0.1-0.6c0,0-0.1,0-0.1-0.1c0-0.2,0-0.3,0-0.5c-0.1-0.5-0.1-1-0.2-1.5c0,0,0-0.1,0-0.1c0,0,0-0.1,0-0.1
	c-0.1-0.7-0.1-1.3-0.1-1.9c0,0,0-0.1,0-0.1c0,0,0-0.1,0-0.2c-0.1-0.5,0-1,0-1.5c0-0.2,0-0.3,0-0.5c0,0,0-0.1,0-0.1
	c0-0.7,0-1.5,0.3-2.2c0,0,0-0.1,0-0.1c0.1-0.3,0.1-0.7,0.2-1.1c0.1-0.4,0.1-0.7,0.2-1.1c0-0.2,0.1-0.2,0.2-0.2c0,0,0.1,0,0.2,0.1
	c0.1,0,0.2,0.1,0.2,0.1c0.1,0.1,0.2,0.1,0.3,0.2c0.1,0.1,0.2,0.2,0.3,0.3c0,0,0,0,0,0c0,0,0.1,0.1,0.1,0.1h0v0
	c0.8,0.4,1.2,1,1.7,1.6c0.1,0.1,0.2,0.1,0.2,0.2c0.1,0.1,0.2,0.3,0.3,0.5c0.3,0.4,0.6,0.9,0.8,1.5c0,0,0,0.1,0,0.1c0,0,0,0,0,0.1
	c0.1,0.1,0.1,0.3,0.2,0.4c0.1,0.1,0.1,0.3,0.2,0.4c0,0.1,0.1,0.1,0.1,0.2c0,0,0,0.1,0.1,0.1c0,0.1,0.1,0.1,0.2,0.1
	c0.1-0.4-0.2-0.8-0.1-1.2h0c0-0.1,0-0.1,0-0.2c-0.1-0.7-0.2-1.4-0.5-2.1c0-0.1,0-0.2,0-0.2c-0.3-0.7-0.4-1.3-0.8-1.9
	c-0.1-0.1-0.1-0.2-0.2-0.3c-0.1-0.1-0.2-0.2-0.3-0.4c-0.1-0.1-0.1-0.2-0.2-0.3v0.1c0,0,0,0,0,0v0c-0.3-0.5-0.7-0.9-1-1.3l0,0
	c0,0-0.1,0-0.1-0.2c-0.3-0.1-0.5-0.4-0.8-0.7c0,0-0.1,0-0.1-0.1c0,0,0,0-0.1-0.1c-0.6-0.4-1-0.8-1.4-1.2c-0.1-0.1-0.2,0-0.2-0.2
	c1.4-0.1,2.8,0.1,4.2,0.2v-0.1h0c0.7,0.1,1.4,0.2,2,0.5c0,0,0,0,0.1,0v0c0.4,0.1,0.9,0.3,1.3,0.5c0.1,0,0.2,0.2,0.3,0.1
	c0.1-0.1,0-0.2-0.1-0.3c-0.2-0.2-0.3-0.5-0.5-0.7c0-0.1-0.1-0.1-0.1-0.2c-0.3-0.3-0.6-0.7-0.9-1c-0.1-0.1-0.2-0.2-0.3-0.3
	c-0.3-0.2-0.7-0.5-1-0.8c-0.1,0-0.1-0.1-0.2-0.1c-0.1,0-0.3-0.2-0.4-0.3c-0.1-0.1-0.3-0.2-0.4-0.3C89.1,73,89,73,89,72.9
	c-0.7-0.3-1.3-0.5-2-0.7c0,0-0.1,0-0.1,0c0,0-0.1,0-0.1,0c-0.1,0-0.3-0.1-0.3-0.1c-0.1,0-0.1-0.1-0.1-0.2c0,0,0,0,0-0.1
	c0-0.1,0-0.2,0-0.3c0-0.3,0-0.7-0.1-1c0-0.1,0-0.2-0.1-0.3c0-0.1,0-0.2-0.1-0.3c0-0.1,0-0.2-0.1-0.3c0-0.1-0.1-0.3-0.1-0.4
	c0,0,0,0,0,0c-0.1-0.7-0.4-1.3-0.6-2c0-0.1,0-0.2-0.1-0.3c-0.2-0.3-0.3-0.5-0.3-0.8c0-0.1,0-0.2,0-0.3c0,0,0-0.1,0-0.1
	c0-0.1,0-0.3,0.1-0.4c0-0.2,0.1-0.3,0.2-0.5c0,0,0-0.1,0-0.1h0c0.1-0.8,0.5-1.4,0.7-2.1c0,0,0,0,0,0l0,0c0,0,0,0,0,0
	c0.2-0.3,0.3-0.6,0.2-0.8c0-0.2-0.1-0.3-0.1-0.5c-0.1-0.2-0.2-0.4-0.3-0.6c0,0,0,0-0.1-0.1c0,0,0,0,0,0c-0.4-0.5-0.7-1-1-1.6
	c0-0.1-0.1-0.1-0.1-0.2c0,0,0,0,0-0.1c0,0,0,0,0,0c0,0,0-0.1,0-0.1l0,0c0,0,0,0,0,0c0-0.1,0-0.1,0.1-0.2c0,0,0-0.1,0.1-0.1
	c0,0,0.1-0.1,0.1-0.1c0,0,0,0,0,0c0.3-0.4,0.6-0.9,0.9-1.3c0.3-0.4,0.4-0.7,0.2-1.2c-0.2-0.6-0.2-0.6,0.5-0.9c0.1,0,1.4-0.6,2-0.7
	c0.1,0,0.3-0.1,0.3-0.1c0,0,0.1,0,0.1,0c0.1,0,0.2-0.1,0.3-0.1c0.7-0.3,1.4-0.5,2.1-0.8c0,0,0.1,0,0.1,0c0.6-0.3,1.3-0.5,2-0.8
	c0.1,0,0.2-0.1,0.3-0.1c0.1-0.1,0.4-0.2,0.6-0.3c0.6-0.2,1-0.4,1.5-0.5c0.7-0.6,1.3-0.3,1.8,0.4c0.1,0,0.1,0.1,0.2,0.1
	c0.1,0.1,0.1,0.2,0.2,0.3C98.4,52.8,98.9,53.3,99.4,53.8L99.4,53.8z M83.9,54.4c-0.1,0-0.1,0-0.2,0c-0.2,0-0.3-0.1-0.4-0.3
	c-1-1.8-2-3.6-3-5.4c-0.1-0.2-0.2-0.4,0.2-0.4c6.5-1.9,13-3.8,19.5-5.7c0.1,0,0.1,0,0.3-0.1v0c0,0,0,0,0,0c-0.1,1.2-0.2,2.3-0.3,3.4
	l-0.2,2.5c0,0.3-0.1,0.5-0.4,0.6C94.2,50.8,89,52.6,83.9,54.4L83.9,54.4z M51.9,79.1c1.8,0.2,3.6,0.5,5.4,0.8c0.2,0,0.5,0,0.7,0.2
	c0.6,0.3,0.8,0.8,1,1.3c0.3,0.8,0.4,1.7,0.5,2.6c0,0.7-0.1,1.3-0.7,1.7C58.5,86,58.1,86.4,58,87c0.7,0,1.3,0.1,1.8,0.7
	c0.3,0.4,0.7,0.7,1,1c0.8,0.8,2.1,0.6,2.7-0.4c0.3-0.4,0.5-0.9,0.8-1.3c0.4-0.6,0.8-1.2,1.5-1.5c0.4-0.1,0.2-0.4,0.1-0.5
	c-0.3-0.4-0.8-0.4-1.3-0.1c-0.7,0.4-1.2,1.1-1.7,1.7c-0.2,0.2-0.3,0.4-0.5,0.5c-0.3,0.2-0.5,0.2-0.7,0c-0.3-0.3-0.5-0.5-0.8-0.8
	c-0.2-0.2-0.3-0.4-0.1-0.7c0.3-0.6,0.4-1.2,0.4-1.9c-0.1-1.4-0.4-2.8-1.4-4c-0.1-0.1-0.1-0.2,0-0.3c1.1-0.8,1.7-1.9,1.9-3.2
	c0-0.3,0-0.6-0.3-0.7c-0.3-0.1-0.5,0.2-0.6,0.4c-0.3,0.5-0.6,0.9-0.9,1.3c-0.5,0.7-1.2,0.8-1.9,0.7c-2.6-0.4-5.2-0.7-7.9-0.8
	c-0.1,0-0.3,0-0.4,0c-0.8,0.6-1.7,1.2-2.2,2.1c0,0,0.1,0,0.1,0c0.1,0,0.2,0,0.3,0C49,79.1,50.4,79,51.9,79.1L51.9,79.1z M76.3,80.1
	c-0.6,0.3-1.3,0.7-1.9,1c-0.2,0.1-0.3,0.2-0.5,0.2c-1.1,0.2-2.2,0.3-3.3,0.3c-0.6,0-1.2-0.3-1.7-0.6c-0.3-0.2-0.6-0.5-0.7-0.9
	c0.2-0.1,0.3,0,0.5,0c0.6,0.1,1.2,0.3,1.7,0.3c1.4-0.1,2.8-0.5,4.1-1c0.4-0.2,0.9-0.3,1.3-0.5c0.2-0.1,0.3-0.1,0.1-0.3
	c-0.2-0.2-0.4-0.2-0.7-0.2c-2.9,0.4-5.7,0.3-8.6-0.2c-0.8-0.2-1.7-0.2-2-1.2c-0.1-0.3-0.2-0.6-0.2-0.8c-0.1-0.3-0.2-0.6-0.4-0.8
	c-0.1-0.1-0.3-0.2-0.4-0.2c-0.2,0-0.2,0.2-0.2,0.4c0,0.5,0,0.9,0.1,1.4c0.1,0.5,0.2,1,0.5,1.4c0.6,0.8,1.4,1.3,2.3,1.5
	c0.7,0.2,0.7,0.2,0.8,0.9c0,0.3,0.1,0.6,0.4,0.8c0.5,0.3,1,0.6,1.7,0.7c0.4,0,0.8,0.1,1.1,0.3c0.4,0.3,0.9,0.4,1.5,0.5
	c0.4,0,0.8,0,1.2,0.1c0.3,0.1,0.5,0,0.7-0.2c1.1-0.9,2.2-1.8,3.2-2.8C76.8,80,76.6,80,76.3,80.1L76.3,80.1z M67.3,89
	c-0.1-0.2-0.2-0.2-0.4-0.1c-0.9,0.5-1.8,0.5-2.8,0.6c-0.4,0.1-0.9-0.1-1.2,0.2c-0.7,0.7-1.3,0.4-2-0.1c0,0-0.1-0.1-0.1-0.1
	c-0.9-0.5-1.9-0.7-2.9,0c-0.4,0.3-0.8,0.4-1.2,0.3c-0.3-0.1-0.6-0.1-0.9,0.2c-0.1,0.1-0.3,0.2-0.5,0.3c-0.4,0.3-0.4,0.3,0,0.6
	c0.1,0.1,0.2,0.1,0.3,0.1c0.9,0.3,1.8,0.1,2.6-0.4c0.8-0.5,1.6-0.4,2.4,0.1c0.7,0.5,1.4,0.5,2.2,0.2c1-0.4,1.9-0.8,3-1
	c0.2,0,0.3-0.1,0.5,0c0.4,0.4,0.9,0.1,1.3,0c0.2-0.1,0.2-0.2,0.2-0.4C67.7,89.5,67.5,89.3,67.3,89L67.3,89z M63.3,91.9
	c-1.1,0-2.2,0.2-3.2,0.6c-0.8,0.3-1.8,0.5-2.2,1.5c-0.3,0.6-0.2,1.2-0.4,1.7c0.1,0.5,0.1,0.9,0.3,1.3c0.1,0.1,0.1,0.3,0.3,0.3
	c0.2,0,0.3-0.2,0.3-0.3c0.2-0.4,0.2-0.9,0.4-1.3c0.2-0.7,0.5-1.3,1.3-1.6c0.8-0.3,1.6-0.6,2.4-0.9c0.2-0.1,0.3-0.1,0.5-0.1
	c1,0.1,2,0.1,2.9,0.7c0.1,0.1,0.2,0.1,0.3,0.1c0.3-0.1,0.4-0.2,0.2-0.5C65.5,92.3,64.5,91.9,63.3,91.9L63.3,91.9z M55.7,81.9
	c0.7-0.1,1.3-0.2,2-0.2c0.2,0,0.5,0,0.5-0.2c0-0.2-0.2-0.4-0.4-0.5c-0.1-0.1-0.2-0.1-0.3-0.1c-0.7-0.2-1.3-0.2-2-0.1
	c-1.4,0.3-2.7,0.3-4.1,0c-0.4-0.1-0.7-0.1-1.2-0.1c-0.5,0.1-1.1,0.2-1.6,0.5c-0.4,0.2-0.4,0.4-0.1,0.6c0.2,0.2,0.4,0.2,0.6,0.1
	c0.8-0.3,1.6-0.1,2.3,0.4c0.7,0.6,1.5,0.7,2.4,0.4c0.5-0.2,0.9-0.4,1.3-0.7C55.3,82,55.5,81.9,55.7,81.9L55.7,81.9z M43.9,83.1
	c0-0.6-0.1-1.1-0.6-1.5c-0.4-0.2-0.5-0.6-0.6-0.9c-0.2-0.5-0.2-1-0.6-1.4c-0.1-0.1-0.2-0.4-0.4-0.3c-0.2,0.1-0.5,0.2-0.5,0.5
	c-0.2,1,0.3,2,1.3,2.5c0.5,0.2,0.8,0.6,1,1.1c0.1,0.2,0.1,0.5,0.3,0.4C44,83.5,43.8,83.2,43.9,83.1L43.9,83.1z"/>
<path class="st5" d="M23.2,59.4C23.2,59.3,23.2,59.3,23.2,59.4c0,0-0.1,0.1-0.1,0.1c0,0.1,0,0.2,0,0.4
	C23.2,59.7,23.2,59.5,23.2,59.4"/>
<path class="st6" d="M82.9,82.1c0.4-0.5,0.6-1.1,0.9-1.7c0-0.1,0.1-0.2,0.1-0.3c0.2-0.4,0.3-0.7,0.3-1.1v0c0-0.1,0-0.3-0.1-0.3
	c-0.2-0.1-0.4-0.1-0.6-0.1c-0.1,0-0.2,0-0.3,0c0,0-0.1,0-0.1,0s0,0-0.1,0l0,0c-0.1,0.1,0.1,0.3,0,0.4c0,0.1,0,0.3,0,0.4
	c0,0.1-0.1,0.3-0.1,0.4c-0.1,0.2-0.2,0.4-0.3,0.5c-0.4,0.6-0.8,1.2-1.3,1.7c-0.2-0.5-0.2-0.8,0-1.2c0,0,0-0.1,0.1-0.1
	c0.1-0.2,0.3-0.5,0.4-0.7c0-0.1,0.1-0.1,0.2-0.2c0,0,0,0,0,0c0,0,0-0.1,0-0.1c0-0.3-0.3-0.7-0.7-1c-0.1-0.1-0.2-0.2-0.3-0.2
	c-0.1-0.1-0.2-0.1-0.3-0.1c-0.1,0-0.3,0-0.4,0c-0.4,0-0.8-0.1-1.1-0.2l-0.1,0c-0.6-0.2-1.2-0.4-1.7-0.6c-0.2-0.1-0.4-0.2-0.6-0.3
	c-0.8-0.3-1.5-0.8-2.1-1.2c-0.5-0.4-1-0.7-1.5-1c-0.3-0.2-0.7-0.5-1-0.7c-0.5-0.4-1-0.7-1.5-1.1c0,0-0.1-0.1-0.1-0.1
	c-0.1-0.1-0.1-0.1-0.2-0.2c-0.1-0.1-0.1-0.1-0.2-0.2c-0.1-0.1-0.2-0.2-0.3-0.3c0-0.1-0.1-0.1-0.1-0.2c0-0.1-0.1-0.1-0.1-0.2
	c-0.6-0.8-1.4-1.6-1.7-2.6c-0.4,0.8-0.8,1.6-1.3,2.2c-0.2,0.3-0.4,0.5-0.6,0.7c-1,1-2.1,1.7-3.3,2c-0.9,0.3-1.8,0.4-2.7,0.4
	c0.3-0.2,0.5-0.4,0.8-0.6c0.1-0.1,0.2-0.1,0.2-0.2c0.8-0.7,1.6-1.2,2.3-2.1l0.1-0.1c0.1,0,0.1-0.1,0.1-0.2v-0.1c0,0,0,0,0,0
	c-0.1,0-0.2,0.1-0.3,0.2c-0.6,0.4-1.3,0.7-2,1.1c-0.1,0.1-0.2,0.1-0.3,0.2c-0.2,0.1-0.3,0.2-0.5,0.3c-0.3,0.1-0.6,0.3-0.8,0.4
	c-1.4,0.6-2.8,0.9-4.3,1.1c-0.8,0.1-1.7,0.2-2.5,0.3s-1.7,0.1-2.5,0.2c-0.6,0-1.1,0.1-1.7,0.1c-0.1,0-0.2,0-0.2,0
	c-0.2,0-0.3,0-0.5,0c-0.2,0-0.3,0-0.5,0c-0.2,0-0.3,0-0.5,0.1c-0.1,0-0.2,0-0.2,0.1c-1.4,0.4-2.7,0.8-3.9,1.4
	c-0.3,0.2-0.7,0.4-1,0.6c-0.2,0.1-0.4,0.3-0.6,0.4c-0.1,0.1-0.2,0.2-0.3,0.2c-0.3,0.2-0.5,0.4-0.6,0.6c0,0,0,0.1-0.1,0.1
	c0,0,0,0,0,0.1c0,0,0,0.1,0,0.1c0,0.1,0,0.2,0,0.2c0,0.2,0.1,0.5,0.2,0.9c0.6,1.4,1.3,2.7,2.1,3.9c0.1,0.2,0.3,0.3,0.4,0.5l0.6,0.4
	c0.4,0.2,0.7,0.2,1.2,0.2c0.6,0,0.9,0.2,1.1,0.7c0.6,1.5,1.6,2.6,2.8,3.4c0.1,0.1,0.2,0.1,0.3,0.2c0.1,0.1,0.2,0.1,0.3,0.2
	c0.4,0.2,0.7,0.5,1.1,0.7c0.1,0.1,0.2,0.2,0.4,0.3c0.5,0.4,0.9,0.7,1.3,1.1c0.1,0.1,0.2,0.2,0.3,0.3c0.4,0.4,0.8,0.8,1.2,1.3
	c0.1,0.1,0.2,0.2,0.3,0.3c0.2,0.2,0.4,0.4,0.6,0.6c0.5,0.5,0.9,1.1,1.3,1.7c0.1,0.1,0.1,0.2,0.1,0.2c0.2,0.3,0.3,0.6,0.4,0.9
	c0.2,0.6,0.6,0.9,1.1,1.3c0.2,0.2,0.5,0.3,0.7,0.5c0.2,0.1,0.4,0.2,0.6,0.3c0.3,0.1,0.6,0.3,0.8,0.5c0.2,0.1,0.4,0.2,0.7,0.3l0.1,0
	c0,0,0.1,0,0.1,0c0.9,0.1,1.8,0.2,2.7,0.1c0.3,0,0.5-0.1,0.8-0.1c0.3,0,0.5-0.1,0.7-0.1c0,0,0.1,0,0.1,0c0.3,0,0.5-0.1,0.7-0.1
	c0.6-0.1,1.3-0.3,1.9-0.5c0.2-0.1,0.4-0.1,0.6-0.2c0.1,0,0.1,0,0.2-0.1c0.2-0.1,0.4-0.1,0.6-0.2c0.1,0,0.1-0.1,0.2-0.1
	c0.1,0,0.2-0.1,0.2-0.1l0.3-0.1c0.3-0.1,0.5-0.3,0.8-0.4c0.3-0.2,0.6-0.4,1-0.6c0.2-0.1,0.3-0.2,0.5-0.3c0.4-0.3,0.8-0.6,1.2-1
	c0.2-0.2,0.3-0.4,0.5-0.6c0.7-0.9,1.3-2,1.9-3c0.1-0.2,0.2-0.4,0.3-0.6c0.1-0.3,0.3-0.6,0.4-0.9c0-0.1,0.1-0.2,0.1-0.2
	c0.2-0.5,0.3-1,0.4-1.6c-0.2,0.1-0.3,0.1-0.5,0.2c-0.2,0.1-0.5,0.2-0.7,0.3c-0.2,0.1-0.4,0.1-0.7,0.2c-0.1,0-0.1,0-0.2,0
	c-0.3,0-0.5-0.1-0.5-0.4c-0.1-0.3,0-0.4,0.2-0.4c0,0,0.1,0,0.1,0c0,0,0.1,0,0.1,0c0.1,0,0.1,0,0.2-0.1L74,89c0.7-0.3,1.5-0.6,2.1-1
	c0.4-0.3,0.8-0.6,1.1-0.9c0.1-0.1,0.3-0.3,0.4-0.4c0.6-0.6,1.1-1.4,1.5-2.2c0,0,0-0.1,0-0.1c0.1-0.2,0.2-0.3,0.3-0.5
	c0.1-0.2,0.2-0.3,0.4-0.3c0.2,0,0.4,0,0.5-0.1h0.3C81.7,83.5,82.3,82.9,82.9,82.1L82.9,82.1z M43.8,83.6c-0.2,0.1-0.3-0.3-0.3-0.4
	c-0.2-0.5-0.6-0.8-1-1.1c-1-0.5-1.5-1.5-1.3-2.5c0.1-0.3,0.3-0.4,0.5-0.5c0.2-0.1,0.3,0.2,0.4,0.3c0.4,0.4,0.4,0.9,0.6,1.4
	c0.1,0.4,0.3,0.7,0.6,0.9c0.5,0.3,0.6,0.8,0.6,1.5C43.8,83.2,44,83.5,43.8,83.6L43.8,83.6z M47.4,79.5
	C47.3,79.5,47.3,79.4,47.4,79.5c0.4-1,1.3-1.6,2.1-2.2c0.1-0.1,0.3,0,0.4,0c2.6,0.2,5.3,0.4,7.9,0.8c0.7,0.1,1.4,0,1.9-0.7
	c0.3-0.4,0.7-0.9,0.9-1.3c0.1-0.2,0.3-0.5,0.6-0.4c0.3,0.1,0.4,0.4,0.3,0.7c-0.2,1.4-0.7,2.4-1.9,3.2c-0.2,0.1-0.2,0.2,0,0.3
	c1,1.1,1.2,2.5,1.4,4c0.1,0.7-0.1,1.3-0.4,1.9c-0.1,0.3-0.1,0.5,0.1,0.7c0.3,0.2,0.6,0.5,0.8,0.8c0.2,0.2,0.5,0.2,0.7,0
	c0.2-0.1,0.4-0.3,0.5-0.5c0.5-0.6,1-1.3,1.7-1.7c0.5-0.3,1-0.3,1.3,0.1c0.1,0.2,0.3,0.4-0.1,0.5c-0.7,0.2-1.1,0.9-1.5,1.5
	c-0.3,0.4-0.5,0.9-0.8,1.3c-0.6,1-1.8,1.1-2.7,0.4c-0.4-0.3-0.7-0.6-1-1c-0.5-0.6-1.1-0.7-1.8-0.7c0.2-0.5,0.5-0.9,0.9-1.3
	c0.6-0.5,0.7-1,0.7-1.7c-0.1-0.9-0.2-1.8-0.5-2.6c-0.2-0.5-0.5-1-1-1.3c-0.2-0.1-0.5-0.1-0.7-0.2c-1.8-0.3-3.6-0.6-5.4-0.8
	c-1.4-0.1-2.8,0-4.3,0.3C47.5,79.4,47.5,79.4,47.4,79.5L47.4,79.5z M53.8,82.8c-0.9,0.3-1.7,0.2-2.4-0.4c-0.7-0.6-1.4-0.7-2.3-0.4
	c-0.2,0.1-0.4,0-0.6-0.1c-0.3-0.3-0.3-0.5,0.1-0.6c0.5-0.2,1.1-0.4,1.6-0.5c0.5,0.1,0.8,0.1,1.2,0.1c1.4,0.3,2.7,0.3,4.1,0
	c0.7-0.1,1.3-0.2,2,0.1c0.1,0,0.2,0.1,0.3,0.1c0.2,0.1,0.4,0.3,0.4,0.5c0,0.2-0.3,0.1-0.5,0.2c-0.7,0.1-1.3,0.2-2,0.2
	c-0.2,0-0.4,0.1-0.5,0.2C54.7,82.3,54.3,82.6,53.8,82.8L53.8,82.8z M66.1,93.7c-0.1,0-0.2,0-0.3-0.1c-0.9-0.6-1.9-0.5-2.9-0.7
	c-0.2,0-0.3,0-0.5,0.1c-0.8,0.3-1.6,0.6-2.4,0.9c-0.7,0.3-1.1,0.9-1.3,1.6c-0.1,0.4-0.2,0.9-0.4,1.3c-0.1,0.1-0.1,0.3-0.3,0.3
	c-0.2,0-0.2-0.2-0.3-0.3c-0.3-0.4-0.3-0.8-0.3-1.3c0.2-0.6,0.1-1.2,0.4-1.7c0.4-1,1.4-1.2,2.2-1.5c1-0.4,2.1-0.5,3.2-0.6
	c1.2,0,2.2,0.4,2.9,1.4C66.4,93.5,66.4,93.6,66.1,93.7L66.1,93.7z M67.6,90.2c-0.4,0.2-0.8,0.5-1.3,0c-0.1-0.1-0.3-0.1-0.5,0
	c-1,0.2-2,0.6-3,1c-0.8,0.3-1.5,0.3-2.2-0.2c-0.8-0.6-1.5-0.6-2.4-0.1c-0.8,0.4-1.7,0.6-2.6,0.4c-0.1,0-0.2-0.1-0.3-0.1
	c-0.4-0.3-0.4-0.4,0-0.6c0.2-0.1,0.3-0.2,0.5-0.3c0.3-0.2,0.5-0.3,0.9-0.2c0.4,0.1,0.9-0.1,1.2-0.3c1-0.7,1.9-0.5,2.9,0
	c0,0,0.1,0,0.1,0.1c0.6,0.5,1.2,0.8,2,0.1c0.3-0.3,0.8-0.2,1.2-0.2c1-0.1,1.9-0.1,2.8-0.6c0.2-0.1,0.3-0.1,0.4,0.1
	c0.2,0.3,0.4,0.5,0.4,0.8C67.8,90,67.7,90.1,67.6,90.2L67.6,90.2z M73.7,83c-0.2,0.2-0.4,0.3-0.7,0.2c-0.4-0.1-0.8-0.1-1.2-0.1
	c-0.5,0-1-0.1-1.5-0.5c-0.3-0.2-0.7-0.3-1.1-0.3c-0.6,0-1.1-0.4-1.7-0.7c-0.3-0.2-0.4-0.5-0.4-0.8c-0.1-0.7-0.1-0.7-0.8-0.9
	c-1-0.2-1.8-0.7-2.3-1.5c-0.3-0.4-0.5-0.9-0.5-1.4c-0.1-0.5-0.1-0.9-0.1-1.4c0-0.1,0-0.3,0.2-0.4c0.2,0,0.3,0,0.4,0.2
	c0.2,0.2,0.4,0.5,0.4,0.8c0.1,0.3,0.1,0.6,0.2,0.8c0.3,1,1.2,1.1,2,1.2c2.8,0.5,5.7,0.6,8.6,0.2c0.2,0,0.5-0.1,0.7,0.2
	c0.2,0.2,0.1,0.2-0.1,0.3c-0.4,0.2-0.9,0.3-1.3,0.5c-1.3,0.5-2.7,0.9-4.1,1c-0.6,0-1.2-0.2-1.7-0.3c-0.2,0-0.3-0.1-0.5,0
	c0.1,0.4,0.4,0.7,0.7,0.9c0.5,0.3,1,0.6,1.7,0.6c1.1,0,2.2-0.1,3.3-0.3c0.2,0,0.4-0.1,0.5-0.2c0.6-0.4,1.3-0.7,1.9-1
	c0.3-0.1,0.4-0.1,0.6,0C75.9,81.2,74.8,82.1,73.7,83L73.7,83z M38.7,23.1c-0.9,0.4-1.5,1.2-2.3,1.6c-0.2,0.1-0.1,0.2,0,0.4l2.5,2.8
	C39,28,39,28.1,39,28.2c0.1-0.1,0.2-0.1,0.2-0.1c0.4-0.2,0.8-0.5,1.2-0.7c0.1-0.1,0.1-0.2,0.1-0.3c-0.5-1.3-0.8-2.6-1.4-3.8
	C39,23,38.9,23,38.7,23.1L38.7,23.1z M35.2,23.7c0.1,0.1,0.2,0.2,0.3,0.1c0.7-0.4,1.6-0.7,2.2-1.2c1.7-1.3,3.3-2.7,4.9-4.2
	c0.3-0.2,0.4-0.5,0.4-0.7c0-0.3,0.1-0.5-0.1-0.6c-0.2-0.1-0.3,0.1-0.5,0.2c-0.2,0.1-0.3,0.2-0.5,0.3c-1.6,0.8-3.1,1.8-4.8,2.4
	c-1.2,0.5-2.3,0.9-3.5,1.4c-0.1,0-0.4,0-0.2,0.3C34.1,22.3,34.7,23,35.2,23.7L35.2,23.7z M35.4,30.2c-1.3-0.9-2.7-1.7-3.9-2.7
	c-0.1,0.5-0.2,0.8-0.3,1.2c0,0.2-0.1,0.2-0.3,0.3c-0.3,0.1-0.5-0.2-0.6-0.4c-0.2-0.1-0.3-0.4-0.2-0.6c0.3-0.6,0.4-1.2,0.7-1.8
	c0.2-0.6,0.3-0.6,0.8-0.2c0,0,0.1,0.1,0.1,0.1c1.2,1.2,2.5,2.2,4,3c0.8,0.4,1.4,0.5,2-0.1c0,0,0.1-0.1,0.1-0.1
	c0.1-0.1,0.1-0.1,0.1-0.3c-0.1-0.3-0.2-0.6-0.5-0.9c-0.8-0.7-1.6-1.4-2.3-2.2c-1.1-1.1-2.2-2.1-3-3.4c-0.2-0.4-0.5-0.7-0.8-1
	c-0.5-0.5-1.2-0.4-1.5,0.2c-0.6,1.1-1.4,2.2-2.1,3.3c-0.7,1.2-1.6,2.4-2.2,3.7c-0.1,0.3-0.1,0.5,0,0.7c0.3,0.7,0.7,1.5,0.9,2.3
	c0,0.2,0.1,0.3-0.2,0.4c-0.2,0.1-0.3,0-0.4-0.2c-0.5-0.8-0.9-1.5-1.3-2.3c-1.4-2.6-2.6-5.3-4.3-7.6c-0.1-0.1-0.1-0.4-0.3-0.3
	c-0.2,0.1-0.4,0.2-0.3,0.5c0.2,0.9,0.3,1.9,0.5,2.8c1,4,2.4,7.8,3.6,11.7c0.1,0.3,0.2,0.3,0.5,0.2c3.3-1.8,6.5-3.7,9.8-5.5
	C34.5,30.7,34.9,30.5,35.4,30.2L35.4,30.2z M27.2,44.1c-0.8,1.1-1.1,2.4-1.4,3.7c-0.2,0.3-0.2,0.5,0.3,0.6c0.3,0,0.5,0.1,0.8,0.2
	c2,0.5,4.1,1.1,6.1,1.5c0.2,0.1,0.3,0.1,0.5,0.1c0.1,0,0.1-0.1,0.1-0.2c0,0,0-0.1,0-0.1l1.3-4.2c0.1-0.2,0.1-0.4,0.3-0.6
	c0.6-0.4,0.8-1,0.9-1.7c0-0.3,0.1-0.5,0.1-0.8c0-0.4,0.2-0.6,0.5-0.7c1.5-0.7,2.8-1.7,3.9-2.9c0.3-0.3,0.5-0.6,0.7-0.9
	c0.8-1.8,1.8-3.4,2.9-5.1c1.2-1.8,2.5-3.5,4-5c0.4-0.4,0.6-0.8,0.7-1.3c0.1-0.4-0.1-0.8-0.4-1c-0.3-0.2-0.7-0.3-1.1,0
	c-1.7,1.3-3.6,2-5.4,2.9c-0.8,0.4-1.8,0.7-2.2,1.7c0,0-0.1,0.1-0.1,0.1c-0.6,0.4-1.3,0.6-2,0.7c-0.2,0-0.4,0-0.6,0.1
	c-3.9,2.5-7.9,4.9-11.8,7.4c-0.2,0.1-0.3,0.3-0.2,0.5c0.7,1.5,1.4,3.1,2.3,4.5C27.4,43.6,27.4,43.8,27.2,44.1L27.2,44.1z M33.5,49.9
	C33.5,49.9,33.5,50,33.5,49.9C33.5,50,33.5,49.9,33.5,49.9z M85.8,44.9c2.2-0.7,4.4-1.3,6.6-2c0.4-0.1,0.4-0.2,0.3-0.6
	c-1-2.5-1.9-5-3.1-7.5c-0.2-0.3-0.2-0.6-0.1-1c0.5-1.2,0.7-2.4,0.6-3.7c-0.1-0.6,0-1.3,0-1.9c-0.2-1.7-0.7-3.4-1.2-5.1
	c-0.5-1.9-1.4-3.6-2.2-5.4c-0.5-1.2-1.3-2.3-2-3.5c-0.4-0.7-0.8-1.3-1.2-2c-0.3-0.6-0.7-1.2-1.4-1.5c-0.2-0.1-0.4-0.2-0.6-0.1
	c-0.2,0.2-0.4,0.5-0.2,0.8c0.2,0.6,0.5,1.2,0.7,1.7c0.7,1.6,1.5,3.2,1.9,4.9c0.2,0.7,0.3,1.3,0.4,2c0,0.3,0,0.5-0.3,0.6
	c-0.2,0.1-0.3-0.2-0.4-0.3c-0.5-0.5-1.1-1.1-1.9-0.8c-0.2,0.1-0.5,0.1-0.7,0.1c-0.2,0-0.4-0.1-0.4-0.3c-0.1-0.2,0.1-0.3,0.3-0.4
	c0.1-0.1,0.3-0.2,0.4-0.3c0.2-0.2,0.3-0.4,0.1-0.6c-0.4-0.5-0.8-1.1-1.3-1.5c-1.1-0.8-2.1-1.7-3.3-2.4c-0.2-0.1-0.3-0.2-0.5-0.3
	c-2-1.2-4.1-2.3-6.2-3.4c-0.3-0.1-0.6-0.3-0.9-0.2c-0.2,0-0.5,0-0.6,0.3c-0.1,0.3-0.1,0.5,0.1,0.7c0.2,0.3,0.5,0.5,0.8,0.7
	c0.9,0.5,1.9,0.9,2.7,1.6c1.7,1.3,3.3,2.5,4.9,3.9c0.5,0.4,1,0.9,1.4,1.4l0.8,0.9c0.1,0.1,0.2,0.2,0.2,0.3c0,0,0,0,0,0v0.1
	c0,0.1-0.1,0.2-0.1,0.3c-0.3,0.3-0.5,0.1-0.8,0c-0.1-0.1-0.2-0.2-0.3-0.3l-0.1-0.1c-0.2-0.2-0.4-0.4-0.6-0.6
	c-0.1-0.1-0.2-0.2-0.3-0.2c-1.2-0.9-2.5-1.8-3.7-2.8c-1.2-0.9-2.5-1.8-3.7-2.8c-0.7-0.5-1.4-1-2.2-1.3c-0.3-0.1-0.4-0.1-0.6,0.1
	c-0.2,0.3-0.3,0.6-0.1,0.9c0.2,0.5,0.6,0.9,1,1.3c0.6,0.5,1.1,0.9,1.6,1.5c2.3,2.6,4.7,5.1,6.9,7.7c0.2,0.2,0.3,0.4,0.3,0.6
	c0.1,0.4-0.2,0.6-0.6,0.5c-0.1,0-0.2-0.1-0.2-0.1c-2.8-1.6-5.5-3.1-8.1-5c-0.8-0.5-1.6-1-2.4-1.3c-0.3-0.1-0.6-0.3-0.8,0.1
	c-0.2,0.2,0,0.7,0.2,0.9c1,0.7,1.9,1.6,2.8,2.4c2.1,1.8,4.3,3.5,5.9,5.9c0.2,0.3,1.1,0.5,1.4,0.3c0.9-0.6,1.9-0.9,3.1-0.9h0
	c0.1,0,0.2,0,0.2,0c0.1,0,0.1,0,0.2,0.1c0,0,0.1,0.1,0.1,0.1c0.1,0.3-0.2,0.3-0.3,0.4l-3,1.9c-0.3,0.2-0.5,0.2-0.8,0.1
	c-0.5-0.1-0.9-0.3-1.4-0.3c-2.1,0-4.1,0.3-6.2,0.6c-0.5,0.1-0.9,0.1-1.3,0.4c-0.3,0.2-0.3,0.4-0.3,0.7c0,0.2,0.1,0.4,0.4,0.5
	c1.3,0.3,2.5,0.5,3.8,0.8c0.5,0.1,0.9,0.2,1.4,0.3c1.5,0.9,2.9,1.9,4.3,2.9c0.9,0.6,1.8,1.1,2.8,1.3c0.5,0.1,1,0.2,1.4,0.3
	c0.6,0.2,1.4,0.2,1.8,0.5c0.5,0.4,0.7,1.1,1,1.7c0.2,0.4,0.4,0.5,0.8,0.4c0.3-0.1,0.5,0.1,0.6,0.4c0.5,1.5,1.1,2.9,1.6,4.4
	C85.4,45,85.5,45,85.8,44.9L85.8,44.9z"/>
</svg>
