<?xml version="1.0" encoding="utf-8"?>
<!-- Generator: Adobe Illustrator 22.1.0, SVG Export Plug-In . SVG Version: 6.00 Build 0)  -->
<svg version="1.1"
	 id="svg3476" inkscape:version="0.91 r13725" sodipodi:docname="CSS3.svg" xmlns:cc="http://creativecommons.org/ns#" xmlns:dc="http://purl.org/dc/elements/1.1/" xmlns:inkscape="http://www.inkscape.org/namespaces/inkscape" xmlns:rdf="http://www.w3.org/1999/02/22-rdf-syntax-ns#" xmlns:sodipodi="http://sodipodi.sourceforge.net/DTD/sodipodi-0.dtd" xmlns:svg="http://www.w3.org/2000/svg"
	 xmlns="http://www.w3.org/2000/svg" xmlns:xlink="http://www.w3.org/1999/xlink" x="0px" y="0px" viewBox="0 0 120 120"
	 style="enable-background:new 0 0 120 120;" xml:space="preserve">
<style type="text/css">
	.st0{fill:#264DE4;}
	.st1{fill:#2965F1;}
	.st2{fill:#EBEBEB;}
	.st3{fill:#FFFFFF;}
</style>
<sodipodi:namedview  bordercolor="#666666" borderopacity="1.0" fit-margin-bottom="0" fit-margin-left="0" fit-margin-right="0" fit-margin-top="0" id="base" inkscape:current-layer="layer1" inkscape:cx="181.367" inkscape:cy="256" inkscape:document-units="px" inkscape:pageopacity="0.0" inkscape:pageshadow="2" inkscape:window-height="704" inkscape:window-maximized="1" inkscape:window-width="1366" inkscape:window-x="0" inkscape:window-y="27" inkscape:zoom="0.35" pagecolor="#ffffff" showgrid="false">
	</sodipodi:namedview>
<g id="layer1" transform="translate(-193.633,-276.3622)" inkscape:groupmode="layer" inkscape:label="Calque 1">
	<g id="g3013" transform="translate(119,276.3622)">
		<polygon id="polygon2989" class="st0" points="183.1,5 174.3,104 134.6,115 95,104 86.1,5 		"/>
		<polygon id="polygon2991" class="st1" points="166.7,97.7 174.3,13.1 134.6,13.1 134.6,106.6 		"/>
		<polygon id="polygon2993" class="st2" points="106.4,49.8 107.5,62 134.6,62 134.6,49.8 		"/>
		<polygon id="polygon2995" class="st2" points="134.6,25.2 134.6,25.2 104.2,25.2 105.3,37.4 134.6,37.4 		"/>
		<polygon id="polygon2997" class="st2" points="134.6,94 134.6,81.3 134.6,81.4 121.1,77.7 120.2,68 113.6,68 108,68 109.7,87.1 
			134.6,94 		"/>
		<polygon id="polygon3005" class="st3" points="149.5,62 148.1,77.7 134.6,81.4 134.6,94 159.5,87.1 159.7,85 162.5,53.1 
			162.8,49.8 165,25.2 134.6,25.2 134.6,37.4 151.7,37.4 150.6,49.8 134.6,49.8 134.6,62 		"/>
	</g>
</g>
</svg>
