<?xml version="1.0" encoding="utf-8"?>
<!-- Generator: Adobe Illustrator 23.0.2, SVG Export Plug-In . SVG Version: 6.00 Build 0)  -->
<svg version="1.1"
	 id="svg5477" inkscape:version="0.48.3.1 r9886" xmlns:cc="http://creativecommons.org/ns#" xmlns:dc="http://purl.org/dc/elements/1.1/" xmlns:inkscape="http://www.inkscape.org/namespaces/inkscape" xmlns:rdf="http://www.w3.org/1999/02/22-rdf-syntax-ns#" xmlns:sodipodi="http://sodipodi.sourceforge.net/DTD/sodipodi-0.dtd" xmlns:svg="http://www.w3.org/2000/svg"
	 xmlns="http://www.w3.org/2000/svg" xmlns:xlink="http://www.w3.org/1999/xlink" x="0px" y="0px" viewBox="0 0 150 150"
	 style="enable-background:new 0 0 150 150;" xml:space="preserve">
<style type="text/css">
	.st0{clip-path:url(#SVGID_2_);}
	.st1{fill:#161312;}
</style>
<sodipodi:namedview  bordercolor="#666666" borderopacity="1.0" fit-margin-bottom="0" fit-margin-left="0" fit-margin-right="0" fit-margin-top="0" id="base" inkscape:current-layer="layer1" inkscape:cx="308.69643" inkscape:cy="1.3662792" inkscape:document-units="mm" inkscape:pageopacity="0.0" inkscape:pageshadow="2" inkscape:window-height="1003" inkscape:window-maximized="0" inkscape:window-width="717" inkscape:window-x="1920" inkscape:window-y="19" inkscape:zoom="0.35" pagecolor="#ffffff" showgrid="false" units="mm">
	</sodipodi:namedview>
<g id="layer1" transform="translate(-162.73215,87.546389)" inkscape:groupmode="layer" inkscape:label="Layer 1">
	<g id="layer1-2" transform="matrix(0.87624204,0,0,0.87624204,87.735211,84.073501)" inkscape:label="Layer 1">
		<g id="g3012" transform="matrix(1.25,0,0,-1.25,85.589293,539.24835)" inkscape:label="ink_ext_XXXXXX">
			<g id="g3014" transform="scale(0.1,0.1)">
				<g id="g3016">
					<g>
						<defs>
							<rect id="SVGID_1_" x="627.58" y="4682.7" width="114.32" height="30.92"/>
						</defs>
						<clipPath id="SVGID_2_">
							<use xlink:href="#SVGID_1_"  style="overflow:visible;"/>
						</clipPath>
						<g id="g3018" class="st0">
							<path id="path3024" inkscape:connector-curvature="0" class="st1" d="M363.93,4718.49h-87.71c-2.26,0-4.1-1.84-4.1-4.1
								v-42.88c0-2.26,1.84-4.1,4.1-4.1h34.22v-53.28c0,0-7.68-2.62-28.92-2.62c-25.06,0-60.07,9.16-60.07,86.14
								c0,77,36.45,87.13,70.68,87.13c29.62,0,42.39-5.22,50.51-7.73c2.55-0.78,4.91,1.76,4.91,4.02l9.78,41.44
								c0,1.06-0.36,2.33-1.57,3.2c-3.3,2.35-23.42,13.61-74.25,13.61c-58.56,0-118.62-24.91-118.62-144.67
								c0-119.76,68.77-137.61,126.72-137.61c47.98,0,77.09,20.5,77.09,20.5c1.2,0.66,1.33,2.34,1.33,3.11v133.75
								C368.03,4716.65,366.2,4718.49,363.93,4718.49"/>
							<path id="path3026" inkscape:connector-curvature="0" class="st1" d="M815.97,4824.95c0,2.28-1.81,4.12-4.07,4.12h-49.39
								c-2.26,0-4.09-1.84-4.09-4.12c0-0.01,0.01-95.44,0.01-95.44h-76.98v95.44c0,2.28-1.82,4.12-4.08,4.12h-49.39
								c-2.25,0-4.08-1.84-4.08-4.12v-258.43c0-2.28,1.83-4.14,4.08-4.14h49.39c2.26,0,4.08,1.86,4.08,4.14v110.54h76.98
								c0,0-0.13-110.53-0.13-110.54c0-2.28,1.83-4.14,4.09-4.14h49.51c2.26,0,4.07,1.86,4.08,4.14V4824.95"/>
							<path id="path3028" inkscape:connector-curvature="0" class="st1" d="M457.13,4791.04c0,17.78-14.26,32.15-31.85,32.15
								c-17.57,0-31.84-14.37-31.84-32.15c0-17.76,14.27-32.17,31.84-32.17C442.87,4758.87,457.13,4773.28,457.13,4791.04"/>
							<path id="path3030" inkscape:connector-curvature="0" class="st1" d="M453.6,4621.04c0,6.62,0,119.29,0,119.29
								c0,2.27-1.83,4.12-4.09,4.12h-49.23c-2.26,0-4.28-2.33-4.28-4.59c0,0,0-143.55,0-170.91c0-5.02,3.13-6.52,7.18-6.52
								c0,0,21.01,0,44.36,0c4.87,0,6.06,2.39,6.06,6.6C453.6,4578.18,453.6,4614.07,453.6,4621.04"/>
							<path id="path3032" inkscape:connector-curvature="0" class="st1" d="M1003.66,4744.06h-49.01c-2.25,0-4.08-1.85-4.08-4.13
								v-126.72c0,0-12.45-9.11-30.12-9.11c-17.67,0-22.36,8.02-22.36,25.32c0,17.32,0,110.51,0,110.51c0,2.28-1.83,4.13-4.08,4.13
								h-49.74c-2.25,0-4.08-1.85-4.08-4.13c0,0,0-67.48,0-118.87c0-51.39,28.64-63.97,68.05-63.97c32.33,0,58.39,17.86,58.39,17.86
								s1.24-9.41,1.8-10.53c0.56-1.11,2.03-2.24,3.61-2.24l31.64,0.14c2.25,0,4.08,1.86,4.08,4.13l-0.02,173.48
								C1007.75,4742.21,1005.92,4744.06,1003.66,4744.06"/>
							<path id="path3034" inkscape:connector-curvature="0" class="st1" d="M1118.28,4604.26c-17,0.52-28.53,8.23-28.53,8.23v81.84
								c0,0,11.38,6.97,25.33,8.22c17.65,1.58,34.65-3.75,34.65-45.85C1149.73,4612.3,1142.06,4603.54,1118.28,4604.26z
								 M1137.61,4749.86c-27.84,0-46.77-12.42-46.77-12.42v87.51c0,2.28-1.82,4.12-4.08,4.12h-49.53c-2.25,0-4.08-1.84-4.08-4.12
								v-258.43c0-2.28,1.83-4.14,4.09-4.14c0,0,34.35,0,34.36,0c1.55,0,2.72,0.8,3.58,2.19c0.85,1.39,2.09,11.92,2.09,11.92
								s20.25-19.19,58.59-19.19c45.01,0,70.82,22.83,70.82,102.49C1206.69,4739.45,1165.46,4749.86,1137.61,4749.86"/>
							<path id="path3036" inkscape:connector-curvature="0" class="st1" d="M595.54,4744.47h-37.05c0,0-0.06,48.93-0.06,48.94
								c0,1.85-0.95,2.78-3.1,2.78h-50.49c-1.96,0-3.02-0.86-3.02-2.75v-50.58c0,0-25.3-6.11-27.01-6.6
								c-1.7-0.49-2.96-2.06-2.96-3.94v-31.78c0-2.29,1.83-4.13,4.08-4.13h25.88c0,0,0-33.24,0-76.46
								c0-56.79,39.84-62.37,66.72-62.37c12.28,0,26.97,3.95,29.4,4.84c1.47,0.54,2.32,2.06,2.32,3.71l0.04,34.96
								c0,2.28-1.93,4.12-4.09,4.12c-2.16,0-7.68-0.88-13.37-0.88c-18.2,0-24.36,8.46-24.36,19.41c0,10.94,0,72.66,0,72.66h37.05
								c2.26,0,4.09,1.84,4.09,4.13v39.81C599.63,4742.63,597.8,4744.47,595.54,4744.47"/>
						</g>
					</g>
				</g>
			</g>
		</g>
	</g>
	<path id="path5563" inkscape:connector-curvature="0" d="M186.52-31.33c0,9.42,2.29,17.98,6.88,25.66
		c4.59,7.93,10.81,14.17,18.67,18.72c7.86,4.55,16.41,6.83,25.66,6.83c9.28,0,17.87-2.28,25.77-6.83
		c7.9-4.59,14.11-10.82,18.64-18.7c4.53-7.88,6.8-16.44,6.8-25.69c0-9.39-2.28-17.98-6.83-25.77c-4.59-7.9-10.82-14.11-18.7-18.64
		c-7.88-4.53-16.44-6.8-25.69-6.8c-9.42,0-17.98,2.29-25.66,6.88c-7.93,4.59-14.17,10.81-18.72,18.67
		C188.8-49.13,186.52-40.58,186.52-31.33L186.52-31.33z M195.06-31.33c0-5.69,1.12-11.18,3.36-16.48c2.24-5.3,5.3-9.87,9.18-13.71
		c3.88-3.88,8.45-6.93,13.71-9.15s10.74-3.33,16.43-3.33c5.69,0,11.18,1.11,16.48,3.33s9.89,5.27,13.76,9.15
		c3.84,3.84,6.87,8.41,9.1,13.71c2.22,5.3,3.33,10.79,3.33,16.48c0,6.12-1.25,11.95-3.76,17.5c-2.51,5.55-6.03,10.34-10.56,14.38
		s-9.72,6.96-15.55,8.78V-5.73c0-3.73-1.53-6.65-4.59-8.75c7.5-0.68,12.99-2.58,16.46-5.71c3.47-3.13,5.2-8.09,5.2-14.88
		c0-5.26-1.62-9.69-4.85-13.28c0.64-1.92,0.96-3.77,0.96-5.55c0-2.63-0.6-5.05-1.81-7.26c-2.38,0-4.52,0.39-6.4,1.17
		c-1.88,0.78-4.2,2.13-6.93,4.05c-3.31-0.75-6.72-1.12-10.24-1.12c-4.02,0-7.77,0.41-11.26,1.23c-2.67-1.96-4.97-3.33-6.91-4.13
		c-1.94-0.8-4.13-1.2-6.59-1.2c-1.17,2.24-1.76,4.66-1.76,7.26c0,1.85,0.3,3.72,0.91,5.6c-3.24,3.49-4.85,7.9-4.85,13.23
		c0,6.79,1.72,11.74,5.17,14.83c3.45,3.09,8.98,5,16.59,5.71c-2.03,1.35-3.43,3.33-4.21,5.92c-1.74,0.6-3.56,0.91-5.44,0.91
		c-1.42,0-2.65-0.32-3.68-0.96c-0.32-0.18-0.61-0.36-0.88-0.56c-0.27-0.2-0.54-0.44-0.83-0.72s-0.52-0.51-0.69-0.67
		c-0.18-0.16-0.41-0.44-0.69-0.83c-0.28-0.39-0.47-0.64-0.56-0.75c-0.09-0.11-0.3-0.39-0.64-0.85c-0.34-0.46-0.52-0.71-0.56-0.75
		c-1.67-2.2-3.66-3.31-5.97-3.31c-1.24,0-1.87,0.27-1.87,0.8c0,0.21,0.3,0.57,0.91,1.07c1.14,1,1.74,1.53,1.81,1.6
		c0.85,0.68,1.33,1.1,1.44,1.28c1.03,1.28,1.81,2.69,2.35,4.21c1.99,4.45,5.41,6.67,10.24,6.67c0.78,0,2.31-0.18,4.59-0.53V9.31
		c-5.83-1.81-11.02-4.74-15.55-8.78c-4.53-4.04-8.06-8.83-10.56-14.38S195.06-25.22,195.06-31.33L195.06-31.33z"/>
</g>
</svg>
