<?xml version="1.0" encoding="utf-8"?>
<!-- Generator: Adobe Illustrator 23.1.0, SVG Export Plug-In . SVG Version: 6.00 Build 0)  -->
<svg version="1.1"
	 id="svg5477" xmlns:cc="http://creativecommons.org/ns#" xmlns:dc="http://purl.org/dc/elements/1.1/" xmlns:inkscape="http://www.inkscape.org/namespaces/inkscape" xmlns:rdf="http://www.w3.org/1999/02/22-rdf-syntax-ns#" xmlns:sodipodi="http://sodipodi.sourceforge.net/DTD/sodipodi-0.dtd" xmlns:svg="http://www.w3.org/2000/svg"
	 xmlns="http://www.w3.org/2000/svg" xmlns:xlink="http://www.w3.org/1999/xlink" x="0px" y="0px" viewBox="0 0 150 150"
	 style="enable-background:new 0 0 150 150;" xml:space="preserve">
<sodipodi:namedview  bordercolor="#666666" borderopacity="1.0" fit-margin-bottom="0" fit-margin-left="0" fit-margin-right="0" fit-margin-top="0" id="base" inkscape:current-layer="layer1" inkscape:cx="308.69643" inkscape:cy="1.3662792" inkscape:document-units="mm" inkscape:pageopacity="0.0" inkscape:pageshadow="2" inkscape:window-height="1003" inkscape:window-maximized="0" inkscape:window-width="717" inkscape:window-x="1920" inkscape:window-y="19" inkscape:zoom="0.35" pagecolor="#ffffff" showgrid="false" units="mm">
	</sodipodi:namedview>
<g id="layer1" transform="translate(-162.73215,87.546389)" inkscape:groupmode="layer" inkscape:label="Layer 1">
	<path id="path5563" inkscape:connector-curvature="0" d="M180.1-12.5c0,10.6,2.6,20.2,7.7,28.9c5.2,8.9,12.2,15.9,21,21.1
		s18.5,7.7,28.9,7.7c10.4,0,20.1-2.6,29-7.7c8.9-5.2,15.9-12.2,21-21c5.1-8.9,7.7-18.5,7.7-28.9c0-10.6-2.6-20.2-7.7-29
		c-5.2-8.9-12.2-15.9-21-21c-8.9-5.1-18.5-7.7-28.9-7.7c-10.6,0-20.2,2.6-28.9,7.7c-8.9,5.2-15.9,12.2-21.1,21
		C182.7-32.6,180.1-22.9,180.1-12.5L180.1-12.5z M189.7-12.5c0-6.4,1.3-12.6,3.8-18.5s6-11.1,10.3-15.4c4.4-4.4,9.5-7.8,15.4-10.3
		s12.1-3.7,18.5-3.7c6.4,0,12.6,1.2,18.5,3.7c6,2.5,11.1,5.9,15.5,10.3c4.3,4.3,7.7,9.5,10.2,15.4c2.5,6,3.7,12.1,3.7,18.5
		c0,6.9-1.4,13.4-4.2,19.7c-2.8,6.2-6.8,11.6-11.9,16.2s-10.9,7.8-17.5,9.9V16.3c0-4.2-1.7-7.5-5.2-9.8c8.4-0.8,14.6-2.9,18.5-6.4
		s5.9-9.1,5.9-16.7c0-5.9-1.8-10.9-5.5-14.9c0.7-2.2,1.1-4.2,1.1-6.2c0-3-0.7-5.7-2-8.2c-2.7,0-5.1,0.4-7.2,1.3
		c-2.1,0.9-4.7,2.4-7.8,4.6c-3.7-0.8-7.6-1.3-11.5-1.3c-4.5,0-8.7,0.5-12.7,1.4c-3-2.2-5.6-3.7-7.8-4.6s-4.6-1.4-7.4-1.4
		c-1.3,2.5-2,5.2-2,8.2c0,2.1,0.3,4.2,1,6.3c-3.6,3.9-5.5,8.9-5.5,14.9c0,7.6,1.9,13.2,5.8,16.7c3.9,3.5,10.1,5.6,18.7,6.4
		c-2.3,1.5-3.9,3.7-4.7,6.7c-2,0.7-4,1-6.1,1c-1.6,0-3-0.4-4.1-1.1c-0.4-0.2-0.7-0.4-1-0.6c-0.3-0.2-0.6-0.5-0.9-0.8
		s-0.6-0.6-0.8-0.8c-0.2-0.2-0.5-0.5-0.8-0.9c-0.3-0.4-0.5-0.7-0.6-0.8c-0.1-0.1-0.3-0.4-0.7-1s-0.6-0.8-0.6-0.8
		c-1.9-2.5-4.1-3.7-6.7-3.7c-1.4,0-2.1,0.3-2.1,0.9c0,0.2,0.3,0.6,1,1.2c1.3,1.1,2,1.7,2,1.8c1,0.8,1.5,1.2,1.6,1.4
		c1.2,1.4,2,3,2.6,4.7c2.2,5,6.1,7.5,11.5,7.5c0.9,0,2.6-0.2,5.2-0.6v12.7c-6.6-2-12.4-5.3-17.5-9.9c-5.1-4.5-9.1-9.9-11.9-16.2
		S189.7-5.7,189.7-12.5L189.7-12.5z"/>
</g>
</svg>
