<?xml version="1.0" encoding="utf-8"?>
<!-- Generator: Adobe Illustrator 22.1.0, SVG Export Plug-In . SVG Version: 6.00 Build 0)  -->
<svg version="1.1" id="Layer_1" xmlns="http://www.w3.org/2000/svg" xmlns:xlink="http://www.w3.org/1999/xlink" x="0px" y="0px"
	 viewBox="0 0 120 120" style="enable-background:new 0 0 120 120;" xml:space="preserve">
<style type="text/css">
	.st0{fill:#E44D26;}
	.st1{fill:#F16529;}
	.st2{fill:#EBEBEB;}
	.st3{fill:#FFFFFF;}
</style>
<title>HTML5 Logo</title>
<polygon class="st0" points="20.3,104 11.5,5 108.5,5 99.7,104 59.9,115 "/>
<polygon class="st1" points="60,106.6 92.1,97.7 99.6,13.1 60,13.1 "/>
<polygon class="st2" points="60,49.8 43.9,49.8 42.8,37.4 60,37.4 60,25.2 60,25.2 29.6,25.2 29.8,28.5 32.8,62 60,62 "/>
<polygon class="st2" points="60,81.3 59.9,81.4 46.4,77.7 45.6,68 39,68 33.4,68 35.1,87.1 59.9,94 60,94 "/>
<polygon class="st3" points="60,49.8 60,62 74.9,62 73.5,77.7 60,81.4 60,94 84.9,87.1 85,85 87.9,53.1 88.2,49.8 84.9,49.8 "/>
<polygon class="st3" points="60,25.2 60,32.8 60,37.4 60,37.4 89.2,37.4 89.2,37.4 89.3,37.4 89.5,34.7 90.1,28.5 90.4,25.2 "/>
</svg>
