<?xml version="1.0" encoding="utf-8"?>
<!-- Generator: Adobe Illustrator 23.1.0, SVG Export Plug-In . SVG Version: 6.00 Build 0)  -->
<svg version="1.1" id="Layer_1" xmlns="http://www.w3.org/2000/svg" xmlns:xlink="http://www.w3.org/1999/xlink" x="0px" y="0px"
	 viewBox="0 0 120 120" style="enable-background:new 0 0 120 120;" xml:space="preserve">
<style type="text/css">
	.st0{fill:#83CD29;}
	.st1{fill:#404137;}
</style>
<g>
	<path class="st0" d="M59.9,72.6c-0.3,0-0.7,0.1-1,0.2l-9.4,5.4c-0.6,0.4-1,1-1,1.7v10.9c0,0.7,0.4,1.4,1,1.7L52,94
		c1.2,0.6,1.6,0.6,2.2,0.6c1.8,0,2.8-1.1,2.8-2.9V80.9c0-0.2-0.1-0.3-0.3-0.3h-1.2c-0.2,0-0.3,0.1-0.3,0.3v10.7c0,0.8-0.9,1.7-2.3,1
		l-2.6-1.5c-0.1,0-0.2-0.1-0.2-0.2V80c0-0.1,0.1-0.2,0.2-0.3l9.4-5.4c0.1-0.1,0.2-0.1,0.3,0l9.4,5.4c0.1,0.1,0.2,0.2,0.2,0.3v10.9
		c0,0.1-0.1,0.2-0.1,0.3L60,96.5c-0.1,0-0.2,0-0.3,0l-2.4-1.4c-0.1,0-0.2,0-0.2,0c-0.7,0.4-0.8,0.4-1.4,0.6
		c-0.2,0.1-0.4,0.1,0.1,0.4l3.2,1.9c0.3,0.2,0.6,0.3,1,0.3c0.3,0,0.7-0.1,1-0.3l9.4-5.4c0.6-0.4,1-1,1-1.7V80c0-0.7-0.4-1.4-1-1.7
		l-9.4-5.4C60.6,72.7,60.2,72.6,59.9,72.6L59.9,72.6z"/>
	<path class="st0" d="M62.4,80.4c-2.7,0-4.3,1.1-4.3,3c0,2.1,1.6,2.6,4.2,2.9c3.1,0.3,3.3,0.8,3.3,1.4c0,1.1-0.8,1.5-2.8,1.5
		c-2.5,0-3-0.6-3.2-1.9c0-0.1-0.1-0.2-0.3-0.2h-1.2c-0.1,0-0.3,0.1-0.3,0.3c0,1.6,0.9,3.5,5,3.5c3,0,4.7-1.2,4.7-3.2
		c0-2-1.4-2.6-4.3-3C60.3,84.2,60,84,60,83.4c0-0.6,0.2-1.3,2.4-1.3c1.9,0,2.6,0.4,2.9,1.7c0,0.1,0.1,0.2,0.3,0.2h1.2
		c0.1,0,0.1,0,0.2-0.1c0.1-0.1,0.1-0.1,0.1-0.2C66.9,81.4,65.4,80.4,62.4,80.4L62.4,80.4z"/>
</g>
<path class="st1" d="M79.3,32.8c-0.1,0-0.2,0-0.3,0.1c-0.2,0.1-0.3,0.3-0.3,0.5v15.3c0,0.1-0.1,0.3-0.2,0.4c-0.1,0.1-0.3,0.1-0.4,0
	l-2.5-1.4c-0.4-0.2-0.8-0.2-1.2,0l-10,5.8c-0.4,0.2-0.6,0.6-0.6,1.1v11.5c0,0.4,0.2,0.8,0.6,1l10,5.8c0.4,0.2,0.8,0.2,1.2,0l10-5.8
	c0.4-0.2,0.6-0.6,0.6-1V37.2c0-0.4-0.2-0.8-0.6-1.1l-5.9-3.3C79.6,32.8,79.4,32.8,79.3,32.8L79.3,32.8z M15.2,47.2
	c-0.2,0-0.4,0-0.5,0.1l-10,5.8c-0.4,0.2-0.6,0.6-0.6,1l0,15.4c0,0.2,0.1,0.4,0.3,0.5c0.2,0.1,0.4,0.1,0.6,0l5.9-3.4
	c0.4-0.2,0.6-0.6,0.6-1v-7.2c0-0.4,0.2-0.8,0.6-1l2.5-1.5c0.2-0.1,0.4-0.2,0.6-0.2c0.2,0,0.4,0.1,0.6,0.2l2.5,1.5
	c0.4,0.2,0.6,0.6,0.6,1v7.2c0,0.4,0.2,0.8,0.6,1l5.9,3.4c0.2,0.1,0.4,0.1,0.6,0c0.2-0.1,0.3-0.3,0.3-0.5l0-15.4c0-0.4-0.2-0.8-0.6-1
	l-10-5.8c-0.2-0.1-0.3-0.1-0.5-0.1H15.2z M104.8,47.3c-0.2,0-0.4,0.1-0.6,0.2l-10,5.8c-0.4,0.2-0.6,0.6-0.6,1v11.5
	c0,0.4,0.2,0.8,0.6,1l9.9,5.6c0.4,0.2,0.8,0.2,1.2,0l6-3.3c0.2-0.1,0.3-0.3,0.3-0.5c0-0.2-0.1-0.4-0.3-0.5l-10-5.8
	c-0.2-0.1-0.3-0.3-0.3-0.5v-3.6c0-0.2,0.1-0.4,0.3-0.5l3.1-1.8c0.2-0.1,0.4-0.1,0.6,0l3.1,1.8c0.2,0.1,0.3,0.3,0.3,0.5V61
	c0,0.2,0.1,0.4,0.3,0.5c0.2,0.1,0.4,0.1,0.6,0l6-3.5c0.4-0.2,0.6-0.6,0.6-1v-2.8c0-0.4-0.2-0.8-0.6-1l-9.9-5.8
	C105.2,47.4,105,47.3,104.8,47.3L104.8,47.3z M75,55.9c0.1,0,0.1,0,0.2,0l3.4,2c0.1,0.1,0.2,0.2,0.2,0.3v4c0,0.1-0.1,0.2-0.2,0.3
	l-3.4,2c-0.1,0.1-0.2,0.1-0.3,0l-3.4-2c-0.1-0.1-0.2-0.2-0.2-0.3v-4c0-0.1,0.1-0.2,0.2-0.3l3.4-2C74.9,55.9,74.9,55.9,75,55.9
	L75,55.9L75,55.9z"/>
<path class="st0" d="M45.2,47.3c-0.2,0-0.4,0.1-0.6,0.2l-10,5.7c-0.4,0.2-0.6,0.6-0.6,1.1v11.5c0,0.4,0.2,0.8,0.6,1l10,5.8
	c0.4,0.2,0.8,0.2,1.2,0l10-5.8c0.4-0.2,0.6-0.6,0.6-1V54.2c0-0.4-0.2-0.8-0.6-1.1l-10-5.7C45.6,47.3,45.4,47.3,45.2,47.3L45.2,47.3z
	 M104.8,57.5c0,0-0.1,0-0.1,0l-1.9,1.1c-0.1,0-0.1,0.1-0.1,0.2v2.2c0,0.1,0,0.2,0.1,0.2l1.9,1.1c0.1,0,0.1,0,0.2,0l1.9-1.1
	c0.1,0,0.1-0.1,0.1-0.2v-2.2c0-0.1,0-0.2-0.1-0.2L104.8,57.5C104.8,57.5,104.8,57.5,104.8,57.5L104.8,57.5z"/>
</svg>
