<?xml version="1.0" encoding="utf-8"?>
<!-- Generator: Adobe Illustrator 23.1.0, SVG Export Plug-In . SVG Version: 6.00 Build 0)  -->
<svg version="1.1" id="Layer_1" xmlns="http://www.w3.org/2000/svg" xmlns:xlink="http://www.w3.org/1999/xlink" x="0px" y="0px"
	 viewBox="0 0 578 578" style="enable-background:new 0 0 578 578;" xml:space="preserve">
<style type="text/css">
	.st0{fill:#CB3837;}
	.st1{fill:#FFFFFF;}
</style>
<path class="st0" d="M19,184h540v180H289v30H169v-30H19V184z M49,334h60v-90h30v90h30V214H49V334z M199,214v150h60v-30h60V214H199z
	 M259,244h30v60h-30V244z M349,214v120h60v-90h30v90h30v-90h30v90h30V214H349z"/>
<polygon class="st1" points="49,334 109,334 109,244 139,244 139,334 169,334 169,214 49,214 "/>
<path class="st1" d="M199,214v150h60v-30h60V214H199z M289,304h-30v-60h30V304z"/>
<polygon class="st1" points="349,214 349,334 409,334 409,244 439,244 439,334 469,334 469,244 499,244 499,334 529,334 529,214 "/>
</svg>
