<?xml version="1.0" encoding="utf-8"?>
<!-- Generator: Adobe Illustrator 22.1.0, SVG Export Plug-In . SVG Version: 6.00 Build 0)  -->
<svg version="1.1" id="Layer_1" xmlns="http://www.w3.org/2000/svg" xmlns:xlink="http://www.w3.org/1999/xlink" x="0px" y="0px"
	 viewBox="0 0 120 120" style="enable-background:new 0 0 120 120;" xml:space="preserve">
<style type="text/css">
	.st0{fill:url(#SVGID_1_);}
	.st1{fill:#31C5F0;}
</style>
<radialGradient id="SVGID_1_" cx="885.4863" cy="-1368.2852" r="3.647994e-02" gradientTransform="matrix(2291.6716 0 0 -2275.6421 -2029202.5 -3113697.5)" gradientUnits="userSpaceOnUse">
	<stop  offset="0" style="stop-color:#34364E;stop-opacity:0.98"/>
	<stop  offset="1" style="stop-color:#0C0824"/>
</radialGradient>
<path class="st0" d="M5,5.1h110v109.7H5V5.1z"/>
<path class="st1" d="M5,5.1h110v109.7H5V5.1z M0,120h120V0H0V120z M80.9,49.2c-4,0-5.3,2.1-5.3,3.7c0,1.8,0.9,3.1,6.2,5.9
	c7.8,3.9,10.3,7.6,10.3,13.1c0,8.2-6.1,12.6-14.4,12.6c-4.4,0-8.1-0.9-10.3-2.2c-0.3-0.2-0.4-0.4-0.4-0.8v-7.5
	c0-0.5,0.2-0.7,0.6-0.4c3.1,2.1,6.7,3,10,3c4,0,5.6-1.7,5.6-4c0-1.8-1.2-3.5-6.2-6.2c-7.1-3.5-10-7-10-12.9
	c0-6.6,5.1-12.1,13.8-12.1c4.3,0,7.3,0.7,9,1.4c0.4,0.3,0.5,0.7,0.5,1v7c0,0.4-0.2,0.7-0.8,0.5C87.4,50.1,84.1,49.2,80.9,49.2
	L80.9,49.2z M37.9,55.3c1.2,0.1,2.1,0.1,4.1,0.1c5.9,0,11.4-2.1,11.4-10.3c0-6.5-4-9.8-10.6-9.8c-2,0-3.9,0.1-4.8,0.2V55.3z
	 M29,28.1c0-0.4,0.7-0.6,1.1-0.6c3.2-0.2,8-0.3,12.9-0.3c13.8,0,19.2,7.8,19.2,17.7c0,13-9.2,18.6-20.5,18.6c-1.9,0-2.5-0.1-3.9-0.1
	v19.7c0,0.4-0.1,0.6-0.6,0.6h-7.6c-0.4,0-0.6-0.2-0.6-0.6L29,28.1L29,28.1z"/>
</svg>
