<?xml version="1.0" encoding="utf-8"?>
<!-- Generator: Adobe Illustrator 23.0.2, SVG Export Plug-In . SVG Version: 6.00 Build 0)  -->
<svg version="1.1" xmlns="http://www.w3.org/2000/svg" xmlns:xlink="http://www.w3.org/1999/xlink" x="0px" y="0px"
	 viewBox="0 0 213.8 213.8" style="enable-background:new 0 0 213.8 213.8;" xml:space="preserve">
<style type="text/css">
	.st0{display:none;}
	.st1{opacity:0.8;}
	.st2{fill:#019BCD;}
	.st3{fill:#FFFFFF;}
	.st4{display:none;fill:none;stroke:#FFFFFF;stroke-width:12;stroke-linejoin:round;stroke-miterlimit:10;}
	.st5{fill:#FF6711;}
	.st6{fill:#85FCFF;}
	.st7{fill:#109762;}
</style>
<g id="png" class="st0">
	
		<image style="display:inline;overflow:visible;" width="225" height="225" xlink:href="../../../../../../../≡ dev/≡ CLIENTS/Cameron Cope/~omni/Branding/Logos/tt-2.jpg"  transform="matrix(1 0 0 1 -5.9167 -3.3333)">
	</image>
</g>
<g id="svg" class="st1">
	<circle class="st2" cx="106.9" cy="106.9" r="106.9"/>
	<path class="st3" d="M183.5,66.8l-55.1-31.9c-1.5-0.8-3.1-1.3-4.8-1.3c0,0,0,0,0,0c-5.2,0-9.5,4.3-9.5,9.5v14.8
		c-8.4-16.2-25.4-27.3-44.8-27.3c-27.8,0-50.5,22.7-50.5,50.5s22.7,50.5,50.5,50.5c1.8,0,3.5-0.1,5.2-0.3l-13.3,7.7
		c-2.9,1.7-4.6,4.7-4.6,8c0,3.3,1.7,6.3,4.6,8l53.6,31.4c1.5,0.9,3.2,1.3,4.9,1.3c1.7,0,3.4-0.5,4.9-1.3l53.6-31.3
		c2.9-1.7,4.6-4.7,4.6-8c0-0.4,0-0.8-0.1-1.3c3.2-1.5,5.4-4.8,5.4-8.6l0.2-62.4C188.2,71.7,186.4,68.5,183.5,66.8z M69.3,125.7
		c-24.6,0-44.5-19.9-44.5-44.5s19.9-44.5,44.5-44.5s44.5,19.9,44.5,44.5S93.8,125.7,69.3,125.7z M175,150.2l-53.6,31.3
		c-0.6,0.3-1.2,0.5-1.8,0.5c-0.6,0-1.3-0.2-1.8-0.5L64.2,150c-2.2-1.3-2.2-4.4,0-5.7l53.6-31.1c0.6-0.3,1.2-0.5,1.8-0.5
		c0.6,0,1.3,0.2,1.8,0.5l53.6,31.3C177.2,145.8,177.2,148.9,175,150.2z M182,137.5c0,2-1.7,3.5-3.5,3.5c-0.6,0-1.2-0.1-1.7-0.5
		l-54.9-31.2c-1.1-0.6-1.8-1.8-1.8-3V43.2c0-2,1.7-3.5,3.5-3.5c0.6,0,1.2,0.1,1.8,0.5L180.5,72c1.1,0.6,1.8,1.8,1.8,3L182,137.5z"/>
	<path class="st4" d="M113.8,81.2c0,24.6-19.9,44.5-44.5,44.5s-44.5-19.9-44.5-44.5s19.9-44.5,44.5-44.5S113.8,56.6,113.8,81.2z
		 M119.6,112.2l-60.3,35l60.3,35.4l60.3-35.2L119.6,112.2z M126.5,105l45.7,26.2c1.7,1,3.9-0.3,3.9-2.3l0.1-52.4
		c0-0.3-0.2-0.6-0.4-0.7l-44.5-26c-2.3-1.4-5.3,0.3-5.3,3v51.4C126.1,104.6,126.2,104.9,126.5,105z M182.2,75.1l-0.2,62.4
		c0,2.7-2.9,4.4-5.2,3l-54.9-31.2c-1.1-0.6-1.8-1.8-1.8-3V43.2c0-2.7,2.9-4.4,5.3-3L180.5,72C181.5,72.6,182.2,73.8,182.2,75.1z
		 M176.2,76.6c0-0.3-0.2-0.6-0.4-0.7l-44.5-26c-2.3-1.4-5.3,0.3-5.3,3v51.4c0,0.3,0.2,0.6,0.4,0.7l45.7,26.2c1.7,1,3.9-0.3,3.9-2.3
		L176.2,76.6z"/>
	<circle class="st2" cx="69.3" cy="81.2" r="44.5"/>
	<g>
		<path class="st5" d="M117.7,113.2l-53.6,31.1c-2.2,1.3-2.2,4.4,0,5.7l53.6,31.4c1.1,0.7,2.5,0.7,3.7,0l53.6-31.3
			c2.2-1.3,2.2-4.4,0-5.7l-53.6-31.3C120.3,112.6,118.9,112.6,117.7,113.2z"/>
	</g>
	<g>
		<path class="st6" d="M126.1,104.3V52.9c0-2.7,2.9-4.4,5.3-3l44.5,26c0.3,0.1,0.4,0.4,0.4,0.7l-0.1,52.4c0,2-2.2,3.2-3.9,2.3
			L126.5,105C126.2,104.9,126.1,104.6,126.1,104.3z"/>
	</g>
	<g>
		<g>
			<path class="st7" d="M181.3,72.9c-0.5-0.5-2.3-1.7-4.1-2.7L128.5,42c-1.8-1-4.4-1.8-5.8-1.7c-1.4,0.1-2.6,4.5-2.6,6.6v55.7
				c0,2,0.2,4.2,0.3,4.9c0.2,0.7,2.9,2.7,4.7,3.7l48.5,27.6c1.8,1,4.4,1.8,5.8,1.7c1.4-0.1,2.6-4.5,2.6-6.6l0.2-55
				C182.2,76.7,181.8,73.4,181.3,72.9z M176.1,125.3c0,2-0.5,4.4-1.1,5.3s-4.3-0.2-6-1.2l-39.2-22.5c-1.8-1-3.3-1.9-3.4-2.1
				c-0.1-0.1-0.2-2.2-0.2-4.2v-44c0-2,0.7-4.7,1.5-5.9c0.8-1.2,5.2,0,7,1L172.6,74c1.8,1,3.3,2,3.4,2.1c0.1,0.1,0.2,2.2,0.2,4.2
				L176.1,125.3z"/>
		</g>
	</g>
	<circle class="st3" cx="97.8" cy="80.5" r="8"/>
	<path class="st3" d="M109.5,104H94.3c0,0,6.3,6.7,13.8,6.9S109.5,104,109.5,104z"/>
</g>
</svg>
