<?xml version="1.0" encoding="utf-8"?>
<!-- Generator: Adobe Illustrator 23.0.6, SVG Export Plug-In . SVG Version: 6.00 Build 0)  -->
<svg version="1.1" id="Layer_1" xmlns="http://www.w3.org/2000/svg" xmlns:xlink="http://www.w3.org/1999/xlink" x="0px" y="0px"
	 viewBox="0 0 213.8 213.8" style="enable-background:new 0 0 213.8 213.8;" xml:space="preserve">
<style type="text/css">
	.st0{fill:#019BCD;}
	.st1{fill:#FFFFFF;}
	.st2{display:none;fill:none;stroke:#FFFFFF;stroke-width:12;stroke-linejoin:round;stroke-miterlimit:10;}
	.st3{fill:#FF6711;}
	.st4{fill:#85FCFF;}
	.st5{fill:#109762;}
</style>
<circle class="st0" cx="106.9" cy="106.9" r="106.9"/>
<path class="st1" d="M183.5,66.8l-55.1-31.9c-1.5-0.8-3.1-1.3-4.8-1.3l0,0c-5.2,0-9.5,4.3-9.5,9.5v14.8
	c-8.4-16.2-25.4-27.3-44.8-27.3c-27.8,0-50.5,22.7-50.5,50.5s22.7,50.5,50.5,50.5c1.8,0,3.5-0.1,5.2-0.3L61.2,139
	c-2.9,1.7-4.6,4.7-4.6,8s1.7,6.3,4.6,8l53.6,31.4c1.5,0.9,3.2,1.3,4.9,1.3c1.7,0,3.4-0.5,4.9-1.3l53.6-31.3c2.9-1.7,4.6-4.7,4.6-8
	c0-0.4,0-0.8-0.1-1.3c3.2-1.5,5.4-4.8,5.4-8.6l0.2-62.4C188.2,71.7,186.4,68.5,183.5,66.8z M69.3,125.7c-24.6,0-44.5-19.9-44.5-44.5
	s19.9-44.5,44.5-44.5s44.5,19.9,44.5,44.5S93.8,125.7,69.3,125.7z M175,150.2l-53.6,31.3c-0.6,0.3-1.2,0.5-1.8,0.5
	c-0.6,0-1.3-0.2-1.8-0.5L64.2,150c-2.2-1.3-2.2-4.4,0-5.7l53.6-31.1c0.6-0.3,1.2-0.5,1.8-0.5c0.6,0,1.3,0.2,1.8,0.5l53.6,31.3
	C177.2,145.8,177.2,148.9,175,150.2z M182,137.5c0,2-1.7,3.5-3.5,3.5c-0.6,0-1.2-0.1-1.7-0.5l-54.9-31.2c-1.1-0.6-1.8-1.8-1.8-3
	V43.2c0-2,1.7-3.5,3.5-3.5c0.6,0,1.2,0.1,1.8,0.5L180.5,72c1.1,0.6,1.8,1.8,1.8,3L182,137.5z"/>
<path class="st2" d="M113.8,81.2c0,24.6-19.9,44.5-44.5,44.5s-44.5-19.9-44.5-44.5s19.9-44.5,44.5-44.5S113.8,56.6,113.8,81.2z
	 M119.6,112.2l-60.3,35l60.3,35.4l60.3-35.2L119.6,112.2z M126.5,105l45.7,26.2c1.7,1,3.9-0.3,3.9-2.3l0.1-52.4
	c0-0.3-0.2-0.6-0.4-0.7l-44.5-26c-2.3-1.4-5.3,0.3-5.3,3v51.4C126.1,104.6,126.2,104.9,126.5,105z M182.2,75.1l-0.2,62.4
	c0,2.7-2.9,4.4-5.2,3l-54.9-31.2c-1.1-0.6-1.8-1.8-1.8-3V43.2c0-2.7,2.9-4.4,5.3-3L180.5,72C181.5,72.6,182.2,73.8,182.2,75.1z
	 M176.2,76.6c0-0.3-0.2-0.6-0.4-0.7l-44.5-26c-2.3-1.4-5.3,0.3-5.3,3v51.4c0,0.3,0.2,0.6,0.4,0.7l45.7,26.2c1.7,1,3.9-0.3,3.9-2.3
	L176.2,76.6z"/>
<circle class="st0" cx="69.3" cy="81.2" r="44.5"/>
<g>
	<path class="st3" d="M117.7,113.2l-53.6,31.1c-2.2,1.3-2.2,4.4,0,5.7l53.6,31.4c1.1,0.7,2.5,0.7,3.7,0l53.6-31.3
		c2.2-1.3,2.2-4.4,0-5.7l-53.6-31.3C120.3,112.6,118.9,112.6,117.7,113.2z"/>
</g>
<g>
	<path class="st4" d="M126.1,104.3V52.9c0-2.7,2.9-4.4,5.3-3l44.5,26c0.3,0.1,0.4,0.4,0.4,0.7l-0.1,52.4c0,2-2.2,3.2-3.9,2.3
		L126.5,105C126.2,104.9,126.1,104.6,126.1,104.3z"/>
</g>
<g>
	<g>
		<path class="st5" d="M181.3,72.9c-0.5-0.5-2.3-1.7-4.1-2.7L128.5,42c-1.8-1-4.4-1.8-5.8-1.7s-2.6,4.5-2.6,6.6v55.7
			c0,2,0.2,4.2,0.3,4.9c0.2,0.7,2.9,2.7,4.7,3.7l48.5,27.6c1.8,1,4.4,1.8,5.8,1.7c1.4-0.1,2.6-4.5,2.6-6.6l0.2-55
			C182.2,76.7,181.8,73.4,181.3,72.9z M176.1,125.3c0,2-0.5,4.4-1.1,5.3s-4.3-0.2-6-1.2l-39.2-22.5c-1.8-1-3.3-1.9-3.4-2.1
			c-0.1-0.1-0.2-2.2-0.2-4.2v-44c0-2,0.7-4.7,1.5-5.9c0.8-1.2,5.2,0,7,1L172.6,74c1.8,1,3.3,2,3.4,2.1c0.1,0.1,0.2,2.2,0.2,4.2
			L176.1,125.3z"/>
	</g>
</g>
<circle class="st1" cx="97.8" cy="80.5" r="8"/>
<path class="st1" d="M109.5,104H94.3c0,0,6.3,6.7,13.8,6.9S109.5,104,109.5,104z"/>
<path class="st1" d="M118.3,121.4l5.7,3.4c0.3,0.2,0.3,0.5,0,0.7l-5.8,3.5c-0.1,0.1-0.3,0.1-0.4,0l-5.8-3.5c-0.3-0.2-0.3-0.5,0-0.7
	l5.9-3.4C118,121.3,118.2,121.3,118.3,121.4z M126.7,126.6l-5.9,3.4c-0.3,0.1-0.3,0.5,0,0.7l5.8,3.5c0.1,0.1,0.3,0.1,0.4,0l5.8-3.5
	c0.3-0.2,0.3-0.5,0-0.7l-5.7-3.4C127,126.5,126.9,126.5,126.7,126.6z M135.4,131.9l-5.9,3.4c-0.3,0.1-0.3,0.5,0,0.7l5.8,3.5
	c0.1,0.1,0.3,0.1,0.4,0l5.8-3.5c0.3-0.2,0.3-0.5,0-0.7l-5.7-3.4C135.7,131.9,135.5,131.9,135.4,131.9z M144,137.2l-5.9,3.4
	c-0.3,0.1-0.3,0.5,0,0.7l5.8,3.5c0.1,0.1,0.3,0.1,0.4,0l5.8-3.5c0.3-0.2,0.3-0.5,0-0.7l-5.7-3.4C144.3,137.2,144.2,137.1,144,137.2z
	 M152.9,142.5l-5.9,3.4c-0.3,0.1-0.3,0.5,0,0.7l5.8,3.5c0.1,0.1,0.3,0.1,0.4,0l5.8-3.5c0.3-0.2,0.3-0.5,0-0.7l-5.7-3.4
	C153.1,142.4,153,142.4,152.9,142.5z M109.8,126.2l-5.9,3.4c-0.3,0.1-0.3,0.5,0,0.7l5.8,3.5c0.1,0.1,0.3,0.1,0.4,0l5.8-3.5
	c0.3-0.2,0.3-0.5,0-0.7l-5.7-3.4C110.1,126.1,110,126.1,109.8,126.2z M118.7,131.4l-5.9,3.4c-0.3,0.1-0.3,0.5,0,0.7l5.8,3.5
	c0.1,0.1,0.3,0.1,0.4,0l5.8-3.5c0.3-0.2,0.3-0.5,0-0.7l-5.7-3.4C119,131.3,118.8,131.3,118.7,131.4z M127.4,136.7l-5.9,3.4
	c-0.3,0.1-0.3,0.5,0,0.7l5.8,3.5c0.1,0.1,0.3,0.1,0.4,0l5.8-3.5c0.3-0.2,0.3-0.5,0-0.7l-5.7-3.4
	C127.6,136.6,127.5,136.6,127.4,136.7z M136,142l-5.9,3.4c-0.3,0.1-0.3,0.5,0,0.7l5.8,3.5c0.1,0.1,0.3,0.1,0.4,0l5.8-3.5
	c0.3-0.2,0.3-0.5,0-0.7l-5.7-3.4C136.3,141.9,136.1,141.9,136,142z M144.8,147.3l-5.9,3.4c-0.3,0.1-0.3,0.5,0,0.7l5.8,3.5
	c0.1,0.1,0.3,0.1,0.4,0l5.8-3.5c0.3-0.2,0.3-0.5,0-0.7l-5.7-3.4C145.1,147.2,144.9,147.2,144.8,147.3z M100.7,131.4l-5.9,3.4
	c-0.3,0.1-0.3,0.5,0,0.7l5.8,3.5c0.1,0.1,0.3,0.1,0.4,0l5.8-3.5c0.3-0.2,0.3-0.5,0-0.7l-5.7-3.4C101,131.4,100.9,131.4,100.7,131.4z
	 M109.6,136.7l-5.9,3.4c-0.3,0.1-0.3,0.5,0,0.7l5.8,3.5c0.1,0.1,0.3,0.1,0.4,0l5.8-3.5c0.3-0.2,0.3-0.5,0-0.7l-5.7-3.4
	C109.9,136.6,109.7,136.6,109.6,136.7z M118.3,142l-5.9,3.4c-0.3,0.1-0.3,0.5,0,0.7l5.8,3.5c0.1,0.1,0.3,0.1,0.4,0l5.8-3.5
	c0.3-0.2,0.3-0.5,0-0.7l-5.7-3.4C118.5,141.9,118.4,141.9,118.3,142z M126.9,147.3l-5.9,3.4c-0.3,0.1-0.3,0.5,0,0.7l5.8,3.5
	c0.1,0.1,0.3,0.1,0.4,0l5.8-3.5c0.3-0.2,0.3-0.5,0-0.7l-5.7-3.4C127.2,147.2,127,147.2,126.9,147.3z M135.7,152.6l-5.9,3.4
	c-0.3,0.1-0.3,0.5,0,0.7l5.8,3.5c0.1,0.1,0.3,0.1,0.4,0l5.8-3.5c0.3-0.2,0.3-0.5,0-0.7l-5.7-3.4C136,152.5,135.8,152.5,135.7,152.6z
	 M92.1,136.7l-5.9,3.4c-0.3,0.1-0.3,0.5,0,0.7l5.8,3.5c0.1,0.1,0.3,0.1,0.4,0l5.8-3.5c0.3-0.2,0.3-0.5,0-0.7l-5.7-3.4
	C92.4,136.6,92.2,136.6,92.1,136.7z M101,141.9l-5.9,3.4c-0.3,0.1-0.3,0.5,0,0.7l5.8,3.5c0.1,0.1,0.3,0.1,0.4,0l5.8-3.5
	c0.3-0.2,0.3-0.5,0-0.7l-5.7-3.4C101.3,141.9,101.1,141.9,101,141.9z M109.6,147.3l-5.9,3.4c-0.3,0.1-0.3,0.5,0,0.7l5.8,3.5
	c0.1,0.1,0.3,0.1,0.4,0l5.8-3.5c0.3-0.2,0.3-0.5,0-0.7l-5.7-3.4C109.9,147.2,109.8,147.2,109.6,147.3z M118.3,152.6l-5.9,3.4
	c-0.3,0.1-0.3,0.5,0,0.7l5.8,3.5c0.1,0.1,0.3,0.1,0.4,0l5.8-3.5c0.3-0.2,0.3-0.5,0-0.7l-5.7-3.4
	C118.5,152.5,118.4,152.5,118.3,152.6z M127.1,157.9l-5.9,3.4c-0.3,0.1-0.3,0.5,0,0.7l5.8,3.5c0.1,0.1,0.3,0.1,0.4,0l5.8-3.5
	c0.3-0.2,0.3-0.5,0-0.7l-5.7-3.4C127.4,157.8,127.2,157.8,127.1,157.9z"/>
</svg>
