<?xml version="1.0" encoding="utf-8"?>
<!-- Generator: Adobe Illustrator 23.1.0, SVG Export Plug-In . SVG Version: 6.00 Build 0)  -->
<svg version="1.1" id="Logo" xmlns="http://www.w3.org/2000/svg" xmlns:xlink="http://www.w3.org/1999/xlink" x="0px" y="0px"
	 viewBox="0 0 140.6 126.8" style="enable-background:new 0 0 140.6 126.8;" xml:space="preserve">
<style type="text/css">
	.st0{fill:#3C3E98;}
	.st1{fill:#15153E;}
</style>
<g>
	<path class="st0" d="M84.6,71.7c-0.3,0.2-0.5,0.4-0.8,0.6c-0.3,0.2-0.5,0.4-0.7,0.5c0,0-0.1,0.1-0.1,0.1C83,73,83,73,83,73
		c0,0-0.1,0.1-0.3,0.2c-0.2,0.1-0.3,0.2-0.3,0.2c0.1,0.3,0.3,0.6,0.4,0.9c0.1,0.3,0.3,0.6,0.5,0.8c0.2,0.3,0.4,0.5,0.6,0.7
		c0.2,0.2,0.5,0.3,0.9,0.3c0-0.3,0.1-0.7,0.2-1.1c0.1-0.4,0.1-0.9,0.2-1.4c0.1-0.5,0.2-0.9,0.3-1.4c0.1-0.5,0.2-0.9,0.4-1.2h-0.3
		C85.2,71.3,84.9,71.5,84.6,71.7z"/>
	<path class="st0" d="M139.5,94.4c-5.5-14.9-28.4-11.7-33.4-26.3c-2.4-7.1,1-14.5,7.8-29.3c8.8-19.2,16.4-23.5,14.1-29.7
		C125,1,108.6-1.6,96.5,1C80,4.5,70.9,17.9,68.3,21.7c-6.3,9.2-10,20.7-10.9,32.7h6.8l0.1,0.1v2.2c0.2,0,0.4-0.1,0.7-0.2
		c0.4-0.2,0.7-0.4,1.1-0.6c0.4-0.2,0.8-0.4,1.1-0.6c0.4-0.2,0.6-0.3,0.8-0.3l0-0.5c0-0.1,0.1-0.3,0.2-0.7c0.1-0.3,0.2-0.7,0.3-1
		c0.1-0.4,0.2-0.7,0.2-1.1c0.1-0.3,0.1-0.6,0.2-0.7c0.1-0.5,0.3-1,0.5-1.6c0.2-0.6,0.4-1.1,0.7-1.6c0.3-0.5,0.7-0.9,1.2-1.2
		c0.5-0.3,1.1-0.5,1.8-0.5c0.3,0,0.5,0.1,0.6,0.3c0.1,0.2,0.2,0.4,0.3,0.6c0,0.1,0,0.2,0,0.4c0,0.2,0,0.4,0,0.4
		c0,0.9-0.1,1.7-0.3,2.4c-0.2,0.7-0.4,1.3-0.8,1.9c-0.4,0.6-0.8,1.1-1.3,1.6c-0.5,0.5-1.1,1-1.8,1.6c0,0.1-0.1,0.2-0.1,0.3
		c0,0.1-0.1,0.2-0.1,0.3V56c0,0.4,0.1,0.7,0.2,0.9s0.3,0.4,0.5,0.5c0.2,0.1,0.5,0.2,0.7,0.2c0.3,0,0.6,0,0.9,0c1,0,1.9-0.1,2.8-0.4
		c0.9-0.3,1.7-0.7,2.5-1.3c0.1-0.1,0.2-0.3,0.4-0.4c0.2-0.2,0.3-0.4,0.5-0.6c0.2-0.2,0.3-0.4,0.5-0.5c0.2-0.2,0.4-0.2,0.6-0.2
		c0.2,0,0.3,0.1,0.4,0.2c0,0.2,0.1,0.3,0.1,0.5c0,0.5-0.1,0.9-0.4,1.3c-0.3,0.4-0.6,0.8-1.1,1.1c-0.4,0.3-1,0.6-1.5,0.9
		c-0.6,0.2-1.1,0.5-1.7,0.6c-0.6,0.2-1.1,0.3-1.6,0.4c-0.5,0.1-0.9,0.1-1.3,0.1c-1.1,0-2-0.2-2.8-0.5c-0.7-0.4-1.2-1.1-1.5-2.1
		c-0.5,0.3-1,0.7-1.6,1c-0.6,0.3-1.2,0.6-1.8,0.8c-0.1,0-0.1,0-0.2,0.1v0.3l-0.1,0.1h-7c0,1.7,0,3.5,0.1,5.2h0.9
		c1,0,1.8,0.5,2.4,1.4c0.3,0.5,0.5,1.2,0.5,2.2v2.8c0,1.7-0.7,2.8-2.1,3.4v0l1.9,3.6c0,0,0,0,0,0c0.2,0,0.5,0,0.7-0.1
		c0.2-0.1,0.4-0.2,0.6-0.3c0.2-0.1,0.4-0.2,0.6-0.3c0.2-0.1,0.4-0.2,0.7-0.2l2.7-1.7c0.1-0.1,0.2-0.3,0.3-0.4
		c0.1-0.1,0.3-0.2,0.4-0.3c0.2-0.1,0.5-0.3,0.7-0.5c0.1-0.1,0.2-0.2,0.3-0.2l0.1-0.8c0-0.1,0.1-0.3,0.2-0.6c0.1-0.3,0.2-0.6,0.3-0.9
		c0.1-0.3,0.2-0.6,0.3-0.9c0.1-0.3,0.2-0.5,0.2-0.6c0.1-0.3,0.2-0.5,0.4-0.6c0.1-0.1,0.3-0.2,0.6-0.2c0.3,0,0.6,0.1,0.7,0.3
		C71,69.5,71,69.7,71,70c0,0.5-0.1,1-0.2,1.5c-0.2,0.4-0.3,0.9-0.5,1.3c-0.2,0.4-0.4,0.9-0.5,1.4s-0.2,1.1-0.2,1.7
		c0,0.1,0,0.2,0,0.4c0,0.2,0,0.3,0,0.5c0,0.2,0.1,0.3,0.1,0.4s0.1,0.2,0.2,0.2c0.5,0,1.1-0.1,1.6-0.3c0.6-0.2,1.1-0.5,1.6-0.8
		c0.5-0.3,1-0.6,1.5-1c0.5-0.4,0.9-0.7,1.3-0.9c0.1-0.1,0.3-0.2,0.3-0.3c0.1-0.1,0.1-0.2,0.2-0.3c0.1-0.1,0.1-0.2,0.2-0.2
		c0.1-0.1,0.2-0.1,0.5-0.1c0.3,0,0.5,0.1,0.7,0.2c0,0,0.1,0.1,0.1,0.1c0.1-0.1,0.2-0.2,0.3-0.3c0.2-0.1,0.5-0.2,0.8-0.3
		c0.3-0.1,0.5-0.1,0.8,0c-0.1-0.4-0.1-0.7,0-1s0.4-0.4,0.7-0.4c0.2,0,0.4,0,0.5,0c0.2,0,0.3,0.1,0.4,0.3c0.3-0.2,0.7-0.5,1.2-0.9
		c0.5-0.4,1.1-0.9,1.6-1.4c0.6-0.5,1.1-0.9,1.5-1.2c0.5-0.4,0.8-0.5,0.9-0.5c0.1,0,0.1,0,0.2,0c0.1,0,0.2,0,0.3,0.1
		c0.1,0,0.2,0.1,0.3,0.1c0.1,0.1,0.1,0.1,0.1,0.2v0.8c0.1,0,0.1-0.1,0.2-0.1c0.4-0.2,1.1-0.4,2.2-0.5c0.1,0,0.2,0,0.4-0.1
		c0.2-0.1,0.5-0.1,0.7-0.1c0.3,0,0.5-0.1,0.7-0.1c0.2-0.1,0.4-0.1,0.4-0.1c0.1,0,0.3,0,0.5,0c0.3,0,0.5,0,0.8,0c0.3,0,0.6,0,0.8,0
		c0.3,0,0.4,0,0.5,0l0.2-0.2l2.4-4.1c0.1-0.1,0.2-0.3,0.5-0.3c0.2-0.1,0.4-0.1,0.5-0.1c0.3,0,0.5,0.1,0.6,0.3
		c0.1,0.2,0.2,0.4,0.2,0.6c0,0,0,0,0,0.1c0,0,0,0,0,0.1v0.1l-1.4,3.3v0.2c0-0.1,0.1-0.2,0.2-0.2c0.1,0,0.2,0,0.3,0
		c0.3,0,0.6,0.1,0.9,0.3c0.3,0.2,0.4,0.5,0.4,0.8c0,0.2-0.1,0.3-0.2,0.4c-0.1,0.1-0.2,0.2-0.4,0.2c-0.1,0.1-0.3,0.1-0.5,0.1
		c-0.2,0-0.3,0-0.4,0c-0.2,0-0.5,0-0.7-0.1c-0.2-0.1-0.5-0.1-0.7-0.1c-0.2,0-0.4,0.1-0.6,0.4c-0.2,0.2-0.4,0.5-0.5,0.9
		c-0.2,0.4-0.3,0.8-0.4,1.3c-0.1,0.5-0.2,0.9-0.3,1.4c-0.1,0.5-0.1,0.9-0.2,1.3c0,0.4,0,0.7,0,0.9c0,0.1,0,0.2,0,0.5
		c0,0.2,0,0.4,0,0.5c0,0.1,0.1,0.2,0.2,0.3c0.1,0.1,0.2,0.2,0.2,0.3h0.7c0.8,0,1.7-0.2,2.5-0.6c0.8-0.4,1.6-0.8,2.3-1.3
		c0,0,0.1-0.1,0.3-0.3c0.2-0.2,0.3-0.4,0.5-0.5c0.2-0.2,0.4-0.3,0.5-0.5c0.2-0.1,0.3-0.2,0.3-0.2c0.1,0,0.3,0.1,0.4,0.2
		c0.1,0.1,0.2,0.3,0.2,0.5c0,0.4-0.1,0.8-0.4,1.1c-0.3,0.4-0.6,0.7-1.1,1c-0.4,0.3-0.9,0.6-1.5,0.9c-0.6,0.3-1.1,0.5-1.7,0.7
		c-0.6,0.2-1.1,0.3-1.6,0.4c-0.5,0.1-0.9,0.2-1.2,0.2c-0.3,0-0.6,0-0.9-0.1c-0.3-0.1-0.6-0.2-0.8-0.4c-0.2-0.2-0.5-0.4-0.6-0.6
		c-0.2-0.2-0.2-0.6-0.2-0.9v-2.3c-0.1,0.1-0.2,0.2-0.3,0.2c-0.2,0.2-0.4,0.3-0.5,0.4c-0.2,0.1-0.5,0.2-0.9,0.4
		c-0.4,0.2-0.8,0.4-1.3,0.6c-0.5,0.2-0.9,0.4-1.3,0.6c-0.4,0.2-0.7,0.3-0.9,0.4c0,0-0.1,0-0.3,0.1c-0.1,0-0.3,0.1-0.5,0.1
		c-0.2,0.1-0.3,0.1-0.5,0.1c-0.2,0-0.3,0.1-0.3,0.1c-0.2,0.1-0.3,0.2-0.4,0.3c-0.1,0.1-0.2,0.3-0.3,0.4c-0.1,0.1-0.2,0.3-0.3,0.4
		c-0.1,0.1-0.3,0.1-0.6,0.1c0,0-0.1-0.1-0.3-0.1c-0.2-0.1-0.3-0.1-0.3-0.2c-0.5-0.4-0.9-0.7-1.3-1c-0.4-0.3-0.7-0.6-1-0.9
		c-0.3-0.3-0.6-0.6-0.8-1c-0.3-0.4-0.6-0.7-0.9-1.2c-0.2,0.1-0.3,0.1-0.5,0.1c-0.2,0-0.4,0-0.6,0s-0.4,0-0.6,0
		c-0.2,0-0.4,0.1-0.6,0.1c-0.1,0-0.2,0-0.3,0c0,0,0,0-0.1,0.1c-0.1,0.1-0.3,0.2-0.4,0.3c-0.1,0.1-0.3,0.2-0.4,0.3
		c-0.1,0.1-0.2,0.1-0.3,0.2c0,0-0.1,0-0.2,0.1C76.4,76,76.4,76,76.4,76c0,0,0,0-0.1,0.1c0,0,0,0.1,0,0.1c-0.4,0.3-0.9,0.7-1.4,1
		c-0.5,0.3-1,0.6-1.6,0.9c-0.6,0.3-1.1,0.5-1.7,0.7c-0.6,0.2-1.2,0.3-1.8,0.3c-0.5,0-0.9-0.1-1.1-0.4c-0.3-0.3-0.5-0.6-0.6-1
		c-0.1-0.4-0.2-0.8-0.2-1.2c0-0.4,0-0.7,0-1c-0.1,0.1-0.2,0.2-0.3,0.2c-0.6,0.4-1.2,0.8-1.9,1.2c-0.7,0.4-1.4,0.7-2,1
		c-0.7,0.3-1.3,0.6-1.8,0.7c0,0,0,0-0.1,0l0.1,0.2l-0.1,0.1h-1.9c2.5,9,6.9,17.6,13.3,24.8c14.3,16.1,42.2,29.1,57.1,18.2
		C137.9,116.3,142.9,103.8,139.5,94.4z M71.1,64.8c-0.3,0.2-0.5,0.3-0.8,0.3c-0.2,0-0.4-0.1-0.5-0.2c-0.1-0.2-0.2-0.3-0.2-0.5
		c0-0.4,0.1-0.6,0.2-0.7c0.1-0.1,0.4-0.2,0.8-0.2c0.2,0,0.4,0,0.6,0.1c0.2,0.1,0.3,0.2,0.3,0.5C71.5,64.4,71.4,64.6,71.1,64.8z
		 M98.4,55.5c-0.3,0.3-0.7,0.6-1.2,0.9c-0.5,0.3-1,0.5-1.6,0.7c-0.6,0.2-1.2,0.4-1.8,0.5c-0.6,0.2-1.1,0.3-1.6,0.3
		c-0.5,0.1-0.8,0.1-1.1,0.1c-0.7,0-1.3-0.1-1.9-0.2c-0.6-0.1-1.1-0.3-1.6-0.6c-0.5-0.3-0.9-0.6-1.2-1.1c-0.3-0.4-0.6-1-0.7-1.7
		c-1.1,0.6-2.1,1.2-3.1,2.1c-1,0.8-1.9,1.6-2.7,2.5c0,0,0,0-0.1,0h-0.1c-0.2,0-0.3-0.1-0.4-0.2c-0.1-0.1-0.1-0.3-0.1-0.4
		c0-0.1,0-0.2,0-0.3c0-0.1,0.1-0.2,0.2-0.3c0.5-0.6,1-1.1,1.5-1.6c0.5-0.5,0.9-0.9,1.4-1.3c0.5-0.4,1-0.8,1.5-1.1
		c0.5-0.4,1-0.7,1.6-1.2c0,0,0.1-0.1,0.2-0.2c0.1-0.1,0.1-0.1,0.1-0.2c0-0.2,0.1-0.4,0.2-0.8c0.1-0.3,0.1-0.7,0.2-1
		c0-0.4,0.1-0.7,0.1-1.1c0-0.4,0.1-0.7,0.1-1c0-0.1,0-0.3,0-0.4c0-0.2-0.1-0.3-0.3-0.3c0,0-0.1,0-0.2,0.1c-0.1,0-0.1,0.1-0.2,0.1
		l-4.6,3.6l-0.2,0.2l0.2-2.3c0.3-0.2,0.7-0.6,1.2-1c0.4-0.4,0.9-0.8,1.4-1.2c0.5-0.4,1-0.7,1.5-1c0.5-0.3,1-0.4,1.5-0.4
		c0.4,0,0.6,0.1,0.8,0.2c0.2,0.2,0.3,0.4,0.4,0.6c0.1,0.3,0.2,0.5,0.2,0.8c0,0.3,0,0.6,0,0.9c0,0.5,0,0.9-0.1,1.4
		c-0.1,0.5-0.1,0.9-0.1,1.3v0.2c0.2-0.1,0.4-0.2,0.8-0.4c0.4-0.2,0.8-0.4,1.2-0.6c0.4-0.2,0.8-0.4,1.2-0.6c0.4-0.2,0.6-0.3,0.8-0.4
		c0,0,0.1-0.1,0.2-0.2c0.1-0.1,0.2-0.2,0.4-0.3c0.1-0.1,0.2-0.2,0.4-0.3c0.1-0.1,0.2-0.1,0.2-0.2h0.2c0.1,0,0.2,0,0.3,0.1
		c0.1,0.1,0.2,0.2,0.3,0.3c0.1,0.1,0.2,0.2,0.3,0.3c0.1,0.1,0.1,0.2,0.1,0.4c0,0.1,0,0.1,0,0.2c0,0.1-0.1,0.2-0.1,0.2l-6.3,3.5
		c-0.1,0.1-0.2,0.1-0.2,0.2c0,0.1,0,0.2,0,0.3c0,0.5,0.1,0.9,0.3,1.3c0.2,0.3,0.4,0.6,0.7,0.8c0.3,0.2,0.6,0.3,1,0.4
		c0.4,0.1,0.8,0.1,1.3,0.1c0.3,0,0.7,0,1-0.1c0.4-0.1,0.7-0.1,1-0.1c0.1,0,0.3-0.1,0.5-0.1c0.2-0.1,0.5-0.1,0.8-0.2
		c0.3-0.1,0.5-0.2,0.8-0.2c0.2-0.1,0.4-0.1,0.5-0.2c0.2-0.1,0.4-0.2,0.6-0.4c0.2-0.2,0.5-0.4,0.7-0.6c0.2-0.2,0.5-0.4,0.7-0.5
		c0.2-0.1,0.5-0.2,0.7-0.2c0.4,0,0.5,0.2,0.5,0.5C98.9,54.8,98.8,55.2,98.4,55.5z"/>
	<path class="st0" d="M72,50.7c0.2-0.3,0.3-0.7,0.4-1.1c0.1-0.4,0.1-0.8,0.2-1.3c-0.4,0.4-0.7,0.7-1,1c-0.2,0.3-0.4,0.6-0.6,0.9
		c-0.1,0.3-0.2,0.7-0.3,1c-0.1,0.4-0.2,0.8-0.3,1.3c0.4-0.3,0.7-0.6,1-0.9C71.6,51.3,71.9,51,72,50.7z"/>
	<path class="st0" d="M86,70.7c0-0.1,0-0.1-0.1-0.1c-0.1,0-0.1,0-0.1,0.1c0,0.1,0,0.1,0.1,0.1C86,70.9,86,70.8,86,70.7z"/>
	<path class="st0" d="M89.5,75.2c0.5-0.2,0.9-0.4,1.3-0.6c0.4-0.2,0.7-0.4,1-0.5c0,0,0.1-0.1,0.3-0.2c0.1-0.1,0.3-0.3,0.5-0.4
		c0.2-0.1,0.3-0.3,0.5-0.4c0.2-0.1,0.3-0.2,0.3-0.2c0,0,0.1-0.1,0.2-0.1l0.5-2c0-0.1,0.1-0.2,0.2-0.4c0.1-0.2,0.2-0.3,0.2-0.4v-0.1
		c0,0,0,0-0.1-0.1c0,0-0.1,0-0.1,0h-0.6C93.3,69.9,92.7,70,92,70c-0.7,0.1-1.3,0.1-2,0.1c-0.6,0-1.2-0.1-1.6-0.2
		c-0.2,0-0.4-0.1-0.5-0.1v0c-0.1,0.6-0.3,1.1-0.4,1.6c-0.1,0.5-0.2,1-0.3,1.5c-0.1,0.5-0.2,1-0.2,1.5c0,0.5-0.1,1-0.1,1.6
		c0.3,0,0.7-0.1,1.2-0.2C88.5,75.6,89,75.4,89.5,75.2z"/>
</g>
<g>
	<polygon class="st1" points="38.8,45.8 38.8,45.8 37.8,51.1 39.8,51.1 	"/>
	<path class="st1" d="M73.1,52.1c-0.4,0.6-0.8,1.1-1.3,1.6c-0.5,0.5-1.1,1-1.8,1.6c0,0.1-0.1,0.2-0.1,0.3c0,0.1-0.1,0.2-0.1,0.3V56
		c0,0.4,0.1,0.7,0.2,0.9s0.3,0.4,0.5,0.5c0.2,0.1,0.5,0.2,0.7,0.2c0.3,0,0.6,0,0.9,0c1,0,1.9-0.1,2.8-0.4l0.6-2.1l-1.8-4.7
		C73.6,51,73.4,51.6,73.1,52.1z"/>
	<path class="st1" d="M72,50.7c0.2-0.3,0.3-0.7,0.4-1.1c0.1-0.4,0.1-0.8,0.2-1.3c-0.4,0.4-0.7,0.7-1,1c-0.2,0.3-0.4,0.6-0.6,0.9
		c-0.1,0.3-0.2,0.7-0.3,1c-0.1,0.4-0.2,0.8-0.3,1.3c0.4-0.3,0.7-0.6,1-0.9C71.6,51.3,71.9,51,72,50.7z"/>
	<path class="st1" d="M70.3,72.8c-0.2,0.4-0.4,0.9-0.5,1.4c-0.1,0.3-0.2,0.7-0.2,1.1l0.9-3.1C70.4,72.5,70.4,72.7,70.3,72.8z"/>
	<path class="st1" d="M68.6,78.7c-0.3-0.3-0.5-0.6-0.6-1c-0.1-0.4-0.2-0.8-0.2-1.2c0-0.4,0-0.7,0-1c-0.1,0.1-0.2,0.2-0.3,0.2
		c-0.6,0.4-1.2,0.8-1.9,1.2c-0.7,0.4-1.4,0.7-2,1c-0.7,0.3-1.3,0.6-1.8,0.7c0,0,0,0-0.1,0l0.1,0.2l-0.1,0.1h-5.2
		c-0.1-0.2-1.1-1.9-2.8-5.1l0,0h-2.4l-0.1,0.1v5l-0.1,0.1h-4.9l-0.1-0.1V64l0.1-0.1h11.9c1,0,1.8,0.5,2.4,1.4
		c0.3,0.5,0.5,1.2,0.5,2.2v2.8c0,1.7-0.7,2.8-2.1,3.4v0l1.9,3.6c0,0,0,0,0,0c0.2,0,0.5,0,0.7-0.1c0.2-0.1,0.4-0.2,0.6-0.3
		c0.2-0.1,0.4-0.2,0.6-0.3c0.2-0.1,0.4-0.2,0.7-0.2l2.7-1.7c0.1-0.1,0.2-0.3,0.3-0.4c0.1-0.1,0.3-0.2,0.4-0.3
		c0.2-0.1,0.5-0.3,0.7-0.5c0.1-0.1,0.2-0.2,0.3-0.2l0.1-0.8c0-0.1,0.1-0.3,0.2-0.6c0.1-0.3,0.2-0.6,0.3-0.9c0.1-0.3,0.2-0.6,0.3-0.9
		c0.1-0.3,0.2-0.5,0.2-0.6c0.1-0.3,0.2-0.5,0.4-0.6c0.1-0.1,0.3-0.2,0.6-0.2c0.3,0,0.6,0.1,0.7,0.3C71,69.5,71,69.7,71,70
		c0,0.2,0,0.4,0,0.6l3.5-11.7c-0.3,0.1-0.6,0.1-0.9,0.2c-0.5,0.1-0.9,0.1-1.3,0.1c-1.1,0-2-0.2-2.8-0.5c-0.7-0.4-1.2-1.1-1.5-2.1
		c-0.5,0.3-1,0.7-1.6,1c-0.6,0.3-1.2,0.6-1.8,0.8c-0.1,0-0.1,0-0.2,0.1v0.3l-0.1,0.1h-15l-0.1-0.1V41.1l0.1-0.1h5.8l0.1,0.1v13.3
		h9.1l0.1,0.1v2.2c0.2,0,0.4-0.1,0.7-0.2c0.4-0.2,0.7-0.4,1.1-0.6c0.4-0.2,0.8-0.4,1.1-0.6c0.4-0.2,0.6-0.3,0.8-0.3l0-0.5
		c0-0.1,0.1-0.3,0.2-0.7c0.1-0.3,0.2-0.7,0.3-1c0.1-0.4,0.2-0.7,0.2-1.1c0.1-0.3,0.1-0.6,0.2-0.7c0.1-0.5,0.3-1,0.5-1.6
		c0.2-0.6,0.4-1.1,0.7-1.6c0.3-0.5,0.7-0.9,1.2-1.2c0.2-0.1,0.5-0.3,0.8-0.3L54.9,0H0l21.8,55.4L2,108.9l52.4,17.8L68.6,78.7
		C68.6,78.7,68.6,78.7,68.6,78.7z M69.9,63.7c0.1-0.1,0.4-0.2,0.8-0.2c0.2,0,0.4,0,0.6,0.1c0.2,0.1,0.3,0.2,0.3,0.5
		c0,0.3-0.1,0.5-0.4,0.7c-0.3,0.2-0.5,0.3-0.8,0.3c-0.2,0-0.4-0.1-0.5-0.2c-0.1-0.2-0.2-0.3-0.2-0.5C69.7,64,69.7,63.8,69.9,63.7z
		 M34,41h9.5c0.1,0,0.2,0.7,0.4,2c1.8,8.3,2.9,13.5,3.3,15.7l0,0h-5.9c-0.1,0-0.2-0.9-0.4-2.8c0,0-0.1-0.1-0.1-0.3h-4.1
		c-0.1,0-0.2,0.8-0.3,2.4c-0.1,0.5-0.1,0.7-0.2,0.7h-6C30.5,57.6,31.7,51.7,34,41z M44.7,69.6L44.7,69.6l-5.1,0.1l-0.1-0.1v-1
		c0-1-0.3-1.4-0.8-1.4H36c-0.6,0-0.8,0.5-0.8,1.4v5.3c0,0.7,0.2,1.2,0.6,1.4h3.1c0.4,0,0.7-0.4,0.7-1.3v-1.7l0.1-0.1h5l0.1,0.1v2.9
		c0,1.2-0.6,2.2-1.8,3.1c-0.7,0.5-1.5,0.7-2.5,0.7h-6.2c-2,0-3.4-0.9-4.1-2.8c-0.1-0.5-0.2-0.9-0.2-1.4v-6.7c0-1.9,0.9-3.3,2.8-4
		c0.4-0.1,0.7-0.2,0.9-0.2H41c1.1,0,2.1,0.5,3,1.6c0.5,0.7,0.7,1.4,0.7,2V69.6z"/>
	<path class="st1" d="M51.4,67.7v2.4h4.4c0.5,0,0.9-0.2,1-0.7v-1.1c0-0.3-0.3-0.6-0.9-0.7H51.4z"/>
</g>
</svg>
