<?xml version="1.0" standalone="no"?><!DOCTYPE svg PUBLIC "-//W3C//DTD SVG 1.1//EN" "http://www.w3.org/Graphics/SVG/1.1/DTD/svg11.dtd"><svg class="icon" height="512" viewBox="0 0 1024 1024" version="1.1" xmlns="http://www.w3.org/2000/svg"><path d="M512.004 1C229.778 1 1 229.782 1 512.004 1 794.23 229.778 1023 512.004 1023c282.218 0 510.996-228.77 510.996-510.996C1023 229.782 794.222 1 512.004 1z m0 938.082c-235.494 0-427.076-191.59-427.076-427.078 0-235.484 191.584-427.076 427.076-427.076 235.488 0 427.07 191.592 427.07 427.076 0 235.488-191.582 427.078-427.07 427.078z m315.714-526.886c-0.054-0.398-0.156-0.78-0.222-1.178a26.168 26.168 0 0 0-0.472-2.28c-0.118-0.45-0.286-0.88-0.426-1.312a28.606 28.606 0 0 0-0.696-1.978 28.648 28.648 0 0 0-0.61-1.328 20.75 20.75 0 0 0-0.922-1.794c-0.25-0.434-0.516-0.85-0.774-1.264a30.94 30.94 0 0 0-2.078-2.828 23.25 23.25 0 0 0-1.356-1.46c-0.356-0.366-0.708-0.73-1.078-1.064-0.5-0.448-1.016-0.882-1.54-1.294-0.406-0.316-0.804-0.632-1.23-0.932-0.156-0.1-0.296-0.232-0.446-0.334L527.06 200.612a27.152 27.152 0 0 0-30.126 0l-288.806 192.538c-0.15 0.102-0.292 0.234-0.448 0.334-0.426 0.298-0.824 0.616-1.222 0.932-0.532 0.412-1.048 0.848-1.536 1.294-0.384 0.334-0.732 0.7-1.088 1.064a23.08 23.08 0 0 0-2.284 2.642c-0.398 0.532-0.784 1.08-1.14 1.646-0.274 0.414-0.53 0.83-0.78 1.264-0.334 0.58-0.632 1.178-0.924 1.794-0.208 0.432-0.422 0.88-0.606 1.328-0.266 0.648-0.482 1.312-0.7 1.978-0.142 0.432-0.298 0.864-0.422 1.312-0.202 0.746-0.334 1.512-0.476 2.28-0.064 0.398-0.166 0.78-0.214 1.178-0.16 1.164-0.25 2.344-0.25 3.542v192.538c0 1.196 0.09 2.376 0.25 3.558 0.05 0.382 0.15 0.78 0.214 1.16 0.142 0.768 0.274 1.532 0.476 2.28 0.126 0.45 0.282 0.88 0.422 1.312 0.218 0.664 0.434 1.33 0.7 1.994 0.184 0.452 0.398 0.882 0.606 1.314 0.292 0.614 0.59 1.21 0.924 1.81 0.25 0.418 0.504 0.83 0.78 1.246a25.632 25.632 0 0 0 3.424 4.29c0.358 0.364 0.706 0.728 1.088 1.058 0.488 0.454 1.004 0.884 1.536 1.3 0.398 0.316 0.796 0.63 1.222 0.93 0.156 0.1 0.298 0.232 0.448 0.332l288.806 192.54a27.16 27.16 0 0 0 15.068 4.57c5.242 0 10.496-1.532 15.058-4.57l288.808-192.54c0.148-0.1 0.29-0.232 0.446-0.332 0.426-0.298 0.824-0.614 1.23-0.93 0.524-0.416 1.04-0.848 1.54-1.3 0.372-0.33 0.722-0.696 1.078-1.058 0.476-0.466 0.926-0.966 1.356-1.464 0.316-0.382 0.632-0.764 0.93-1.178 0.41-0.534 0.786-1.082 1.148-1.648 0.258-0.416 0.524-0.828 0.774-1.246 0.34-0.6 0.636-1.198 0.922-1.81 0.208-0.432 0.422-0.864 0.61-1.314 0.262-0.664 0.48-1.33 0.696-1.994 0.14-0.432 0.308-0.864 0.426-1.312 0.2-0.748 0.34-1.512 0.472-2.28 0.066-0.38 0.168-0.778 0.222-1.16a28.58 28.58 0 0 0 0.242-3.558v-192.538c0-1.198-0.092-2.378-0.242-3.542z m-288.562-138.254l212.754 141.826-95.032 63.576-117.722-78.75v-126.652z m-54.31 0v126.652l-117.718 78.75-95.04-63.576 212.758-141.826z m-234.496 192.622l67.936 45.44-67.936 45.444v-90.884z m234.496 283.504l-212.758-141.83 95.04-63.556 117.718 78.734v126.652z m27.158-173.824l-96.044-64.24 96.044-64.24 96.036 64.24-96.036 64.24z m27.152 173.824v-126.652l117.722-78.734 95.032 63.556-212.754 141.83z m234.496-192.62l-67.93-45.444 67.93-45.44v90.884z" fill="" /></svg>