<?xml version="1.0" encoding="utf-8"?>
<!-- Generator: Adobe Illustrator 23.0.6, SVG Export Plug-In . SVG Version: 6.00 Build 0)  -->
<svg version="1.1" id="Capa_1" xmlns="http://www.w3.org/2000/svg" xmlns:xlink="http://www.w3.org/1999/xlink" x="0px" y="0px"
	 viewBox="0 0 730.8 703.2" style="enable-background:new 0 0 730.8 703.2;" xml:space="preserve">
<style type="text/css">
	.st0{fill:#FFFFFF;}
</style>
<path class="st0" d="M601,359.6v122.9c0,48.2-39.2,87.5-87.5,87.5H217.3c-48.2,0-87.5-39.2-87.5-87.5V357.7c0-7.5,6-13.5,13.5-13.5
	s13.5,6,13.5,13.5v124.8c0,33.3,27.1,60.5,60.5,60.5h296.2c33.3,0,60.5-27.1,60.5-60.5V359.6c0-7.5,6-13.5,13.5-13.5
	S601,352.2,601,359.6z M365.4,133.3c-7.5,0-13.5,6-13.5,13.5v273.8l-62.8-62.8c-5.3-5.3-13.8-5.3-19.1,0s-5.3,13.8,0,19.1l85.9,85.9
	c2.6,2.6,6.1,4,9.5,4c3.4,0,6.9-1.3,9.5-4l85.8-85.8c5.3-5.3,5.3-13.8,0-19.1s-13.8-5.3-19.1,0l-62.7,62.8V146.8
	C378.9,139.3,372.9,133.3,365.4,133.3z"/>
</svg>
