<?xml version="1.0" encoding="utf-8"?>
<!-- Generator: Adobe Illustrator 23.0.2, SVG Export Plug-In . SVG Version: 6.00 Build 0)  -->
<svg version="1.1" id="Layer_1" xmlns="http://www.w3.org/2000/svg" xmlns:xlink="http://www.w3.org/1999/xlink" x="0px" y="0px"
	 viewBox="0 0 84.69 84.69" style="enable-background:new 0 0 84.69 84.69;" xml:space="preserve">
<g>
	<path d="M73.3,21.43H11.39c-1.5,0-2.72-1.22-2.72-2.72s1.22-2.72,2.72-2.72H73.3c1.5,0,2.72,1.22,2.72,2.72S74.81,21.43,73.3,21.43
		z"/>
</g>
<g>
	<path d="M73.3,45.06H11.39c-1.5,0-2.72-1.22-2.72-2.72c0-1.5,1.22-2.72,2.72-2.72H73.3c1.5,0,2.72,1.22,2.72,2.72
		C76.02,43.85,74.81,45.06,73.3,45.06z"/>
</g>
<g>
	<path d="M73.3,68.7H11.39c-1.5,0-2.72-1.22-2.72-2.72s1.22-2.72,2.72-2.72H73.3c1.5,0,2.72,1.22,2.72,2.72S74.81,68.7,73.3,68.7z"
		/>
</g>
<g>
	<path d="M69.97,84.69H14.72C6.6,84.69,0,78.09,0,69.97V14.72C0,6.6,6.6,0,14.72,0h55.25c8.12,0,14.72,6.6,14.72,14.72v55.25
		C84.69,78.09,78.09,84.69,69.97,84.69z M14.72,5.44c-5.12,0-9.28,4.16-9.28,9.28v55.25c0,5.12,4.16,9.28,9.28,9.28h55.25
		c5.12,0,9.28-4.16,9.28-9.28V14.72c0-5.12-4.16-9.28-9.28-9.28H14.72z"/>
</g>
</svg>
