<?xml version="1.0" encoding="utf-8"?>
<!-- Generator: Adobe Illustrator 23.1.0, SVG Export Plug-In . SVG Version: 6.00 Build 0)  -->
<svg version="1.1" xmlns="http://www.w3.org/2000/svg" xmlns:xlink="http://www.w3.org/1999/xlink" x="0px" y="0px"
	 viewBox="0 0 31.1 31.2" style="enable-background:new 0 0 31.1 31.2;" xml:space="preserve">
<style type="text/css">
	.st0{fill:#4EA346;}
</style>
<g id="Layer_1">
</g>
<g id="Capa_1">
	<g>
		<path class="st0" d="M0,3.1v25c0,1.7,1.4,3.1,3.1,3.1h28.1V0H3.1C1.4,0,0,1.4,0,3.1z M27,16c-0.1,0.1-1.3,1.5-3.3,2.9
			c-2.7,1.9-5.5,3-8.1,3s-5.4-1-8.1-3c-2-1.4-3.3-2.9-3.3-2.9c-0.2-0.2-0.2-0.6,0-0.9c0.1-0.1,1.3-1.5,3.3-2.9c2.7-1.9,5.5-3,8.1-3
			s5.4,1,8.1,3c2,1.4,3.3,2.9,3.3,2.9C27.2,15.4,27.2,15.8,27,16z"/>
		<path class="st0" d="M22.9,13.3c-1.7-1.2-4.4-2.7-7.3-2.7S10,12,8.2,13.3C7,14.1,6,15.1,5.5,15.6C6,16.1,7,17,8.2,17.9
			c1.7,1.2,4.4,2.7,7.3,2.7s5.6-1.5,7.3-2.7c1.3-0.9,2.2-1.8,2.7-2.3C25.1,15.1,24.2,14.2,22.9,13.3z M15.4,19.6
			c-2.1-0.1-3.7-1.8-3.8-3.8c-0.1-2.3,1.7-4.3,4.1-4.3c1,0,1.9,0.4,2.7,1c0.3,0.2,0.3,0.7,0.1,0.9c-0.2,0.3-0.7,0.3-0.9,0.1
			c-0.6-0.5-1.3-0.7-2.1-0.7c-1.4,0.1-2.5,1.3-2.5,2.7c0,1.5,1.2,2.8,2.8,2.8c1.5,0,2.8-1.2,2.8-2.8c0-0.3,0.1-0.5,0.4-0.6
			c0.5-0.2,0.9,0.2,0.9,0.6C19.6,17.9,17.7,19.8,15.4,19.6z M16.9,15.5c0.1,0.8-0.6,1.5-1.4,1.4c-0.6-0.1-1.2-0.6-1.2-1.2
			c-0.1-0.8,0.6-1.5,1.4-1.4C16.3,14.3,16.8,14.8,16.9,15.5z"/>
	</g>
</g>
</svg>
