<?xml version="1.0" encoding="utf-8"?>
<!-- Generator: Adobe Illustrator 23.0.2, SVG Export Plug-In . SVG Version: 6.00 Build 0)  -->
<svg version="1.1" id="Layer_1" xmlns="http://www.w3.org/2000/svg" xmlns:xlink="http://www.w3.org/1999/xlink" x="0px" y="0px"
	 viewBox="0 0 223.78 223.78" style="enable-background:new 0 0 223.78 223.78;" xml:space="preserve">
<style type="text/css">
	.st0{fill:#46C146;}
	.st1{fill:#52C452;}
	.st2{fill:#429D42;}
	.st3{fill:#399A39;}
	.st4{fill:#E2F0E2;}
	.st5{fill:#4FC34F;}
	.st6{fill:#F0F7F0;}
	.st7{fill:#349834;}
	.st8{fill:#72CE72;}
	.st9{fill:#6ACC6A;}
	.st10{fill:#4EC34E;}
	.st11{fill:#F1FAF1;}
	.st12{fill:#42C042;}
	.st13{fill:#AEE1AE;}
	.st14{fill:#E8F6E8;}
	.st15{fill:#49C249;}
</style>
<circle class="st0" cx="111.89" cy="111.89" r="111.89"/>
<g>
	<path class="st1" d="M102.88,0.55c3.78-0.43,14.57-1.17,28.17,1.57c13.59,2.74,31.03,7.89,48.06,21.03
		c21.4,16.52,35.35,37.25,41.77,63.26c1.07,4.33,1.51,8.81,2.25,13.23c-2,0.01-2.7-1.76-3.82-2.88
		c-14.38-14.34-28.71-28.74-43.13-43.05c-0.56-0.45-1.12-0.88-1.68-1.33c-0.4-0.31-0.74-0.68-1.05-1.08
		c-0.45-0.66-0.93-1.3-1.65-1.71c-1.45-0.58-2.97-0.47-4.46-0.47c-36.82-0.02-73.64-0.02-110.46,0c-1,0-2,0.02-2.98,0.19
		c-0.25,0.1-0.52,0.19-0.78,0.29c-0.21,0.16-0.44,0.32-0.66,0.48c-0.81,0.69-1.61,1.38-2.33,2.17c-0.17,0.21-0.35,0.4-0.52,0.61
		c-0.33,0.46-0.57,0.96-0.7,1.52c-0.24,38.56-0.19,77.1-0.01,115.62c0.11,0.51,0.28,1.02,0.52,1.48c0.25,0.4,0.45,0.85,0.6,1.3
		c-0.86,2.08,1.43,1.53,2.04,2.38c0.48,0.46,0.92,0.95,1.37,1.43c14.44,14.48,28.91,28.93,43.37,43.37
		c1.01,1.01,2.58,1.67,2.51,3.48c-51.58-5.46-93.56-47.42-98.83-98.8c-0.07-0.66,0.02-1.33,0.03-1.99c1.42-6.97,1.42-13.94,0-20.91
		c1.75-22.35,9.93-42.2,23.95-59.53C41.53,21.12,63.39,7.61,90.14,2.37C93.86,1.64,99.1,0.98,102.88,0.55z"/>
	<path class="st2" d="M133.45,222.02c-1.48,0.28-4.99,1.11-11.12,1.55c-6.13,0.43-26.58-0.22-20.92,0c5.66,0.22-1.4-0.08-2.1-0.12
		c-4.27-2.96-7.58-6.94-11.2-10.57c-11.96-12.01-23.82-24.11-35.72-36.18c2.25-2.08,5.04-1.37,7.63-1.38
		c34.95-0.05,69.9-0.03,104.86-0.05c2.15,0,4.34,0.32,6.39-0.64c1.35-0.69,2.4-1.67,3.08-3.05c0.95-2.07,0.61-4.27,0.61-6.41
		c0.02-34.94,0-69.89,0.05-104.83c0-2.58-0.7-5.38,1.38-7.63c15.97,15.26,31.74,30.71,46.75,46.92c0.02,0.37,0.66,9.19,0.66,12.84
		s-0.43,8.75-0.59,11.16s-0.39,6.97-1.72,10.27c-0.64-0.3-0.36-1.05-0.74-1.54c0.33,1.11-0.19,2.29,0.51,3.29
		c-7.3,41.17-45.03,78.9-85.91,85.9C135.34,221.58,134.93,221.74,133.45,222.02z"/>
	<path class="st3" d="M221.25,135.68c-1.2-1.13-0.97-2.48-0.43-4.7c0.33,1.47,0.5,2.2,0.66,2.94
		C221.4,134.51,221.32,135.09,221.25,135.68z"/>
	<path class="st4" d="M175,173.64c-0.56,0.56-1.13,1.13-1.69,1.69c-0.92,1.52-2.41,0.82-3.63,0.82
		c-38.31,0.04-76.63,0.04-114.94,0.02c-1.14,0-2.35,0.3-3.35-0.57c-0.49-0.74-2.37-0.28-1.75-2c-0.38-2.62-0.71-5.23-0.71-7.91
		c0.04-35.99,0.03-71.98,0.03-107.97c0-1.99-0.16-4.01,0.53-5.94c0.1-1.21,0.74-1.87,1.96-1.95c1.76-0.64,3.61-0.53,5.43-0.53
		c36.59,0,73.19-0.02,109.78,0.03c2.7,0,5.82-0.81,7.59,2.38c0.33-0.01,0.65-0.01,0.98,0.01c0.92,0.98,0.6,2.2,0.6,3.34
		c0.02,38.32,0.02,76.64-0.02,114.96C175.83,171.23,176.52,172.72,175,173.64z"/>
	<path class="st5" d="M51.4,48.77c1.42-1.75,3.4-1.04,5.13-1.04c37.29-0.04,74.59-0.04,111.88,0c2.14,0,4.89-1,5.8,2.32
		c-0.98,0.26-1.91-0.02-2.84-0.24c-37.73-0.27-75.46-0.03-113.18-0.14C55.91,49.67,53.5,50.24,51.4,48.77z"/>
	<path class="st6" d="M172.38,49.51c0.61,0.18,1.23,0.37,1.84,0.55c0.02,0.55,0.03,1.1,0.05,1.65c-1.93-1.37-4.15-0.99-6.29-1
		c-36.93-0.01-73.86,0-110.79-0.04c-1.91,0-4.01,0.74-5.73-0.84c0,0-0.14-0.24-0.14-0.24c1.1-0.55,2.28-0.37,3.43-0.37
		c38.22-0.01,76.45-0.01,114.67,0C170.41,49.22,171.42,49.14,172.38,49.51z"/>
	<path class="st6" d="M49.5,51.79c1.41,1.37,0.85,3.13,0.85,4.73c0.03,37.43,0.03,74.86,0,112.28c0,1.61,0.51,3.35-0.71,4.8
		c-0.19-0.27-0.33-0.55-0.43-0.87c-1.18-1.82-0.82-3.87-0.82-5.84c-0.02-36.47-0.02-72.95,0-109.42c0-1.97-0.35-4.02,0.84-5.83
		L49.5,51.79z"/>
	<path class="st7" d="M175,173.64c0.06-15.99,0.16-31.97,0.18-47.96c0.04-24.65,0.04-49.31,0.06-73.96c0.37,0.33,0.75,0.67,1.12,1
		c0,38.5,0.02,77-0.04,115.5C176.33,170.05,177.32,172.3,175,173.64z"/>
	<path class="st7" d="M51.39,175.6c38.81-0.02,77.63-0.03,116.44-0.05c1.83,0,3.65-0.14,5.48-0.22c-1.34,2.31-3.59,1.33-5.42,1.33
		c-38.5,0.06-77,0.04-115.5,0.04C52.06,176.34,51.72,175.97,51.39,175.6z"/>
	<path class="st8" d="M172.38,49.51c-23.25,0.06-46.5,0.16-69.74,0.18c-17.1,0.02-34.21-0.06-51.31-0.1
		c0.05-0.27,0.07-0.55,0.08-0.82c39.07-0.02,78.13-0.05,117.2-0.06C169.9,48.71,171.29,48.44,172.38,49.51z"/>
	<path class="st5" d="M48.4,172.7c-1.67-1.46-0.99-3.42-0.99-5.16c-0.04-36.89-0.04-73.78,0-110.67c0-1.74-0.68-3.7,0.99-5.16
		c0.75,1.23,0.45,2.59,0.45,3.9c0.02,37.73,0.02,75.46,0,113.19C48.85,170.11,49.15,171.47,48.4,172.7z"/>
	<path class="st9" d="M48.4,172.7c0-40.33,0-80.66,0-120.99c0.28-0.01,0.56-0.03,0.84-0.07c-0.01,40.36-0.01,80.73-0.02,121.09
		C48.94,172.72,48.67,172.71,48.4,172.7z"/>
	<path class="st1" d="M142.09,145.66c-4.91-0.02-9.82-0.04-14.73-0.06c-2-6.47-0.83-13.09-0.77-19.64c0.03-2.61,0.23-5.26,0.26-7.88
		c-0.26-0.54-0.68-0.9-1.26-1.05c-8.82,0.08-17.65,0.04-26.47,0.04c-0.62,0.19-1.03,0.58-1.25,1.19
		c-0.02,7.66-0.11,15.32,0.05,22.96c0.06,2.96-0.72,4.15-3.9,4.03c-11.47-0.41-11.04,2.12-11.05-10.91
		c-0.01-15.97-0.05-31.94,0.02-47.91c0.03-5.97,0.34-6.19,6.18-6.21c8.69-0.03,8.55-0.03,8.75,8.6c0.11,4.91-0.86,9.87,0.55,14.73
		c8.28,0.1,16.55,0.13,24.83,0.33c2.52,0.06,3.04-1.07,2.99-3.28c-0.12-5.8,0.05-11.6-0.14-17.39c-0.09-2.78,0.76-3.85,3.63-3.68
		c4.13,0.25,8.28,0.16,12.41,0.21c0.89,0.77,0.66,1.82,0.66,2.79c0.01,20.14,0.01,40.27,0,60.41
		C142.85,143.9,143.14,144.98,142.09,145.66z"/>
	<path class="st10" d="M98.46,103.55c-2.16,0.08-1.02-1.58-1.03-2.31c-0.11-5.66-0.14-11.33-0.03-17c0.05-2.52-0.84-3.45-3.45-3.6
		c-9.58-0.54-9.57-0.64-9.57,8.95c0,16.66,0.09,33.33-0.07,49.99c-0.04,3.73,0.72,5.38,4.93,5.21c9.41-0.39,8.04,0.81,8.13-7.91
		c0.06-5.17-0.04-10.33,0.04-15.5c0.02-1.57-0.66-3.4,1.09-4.59c0.23,0.21,0.32,0.43,0.28,0.67c-0.04,0.25-0.1,0.37-0.16,0.37
		c-0.08,8.13-0.28,16.26-0.16,24.39c0.04,2.88-0.89,3.85-3.68,3.61c-3.78-0.33-7.61,0.49-11.39-0.36c-1.27-1.38-0.99-3.1-0.99-4.73
		c-0.03-18.71-0.02-37.42,0-56.14c0-1.63-0.27-3.35,0.99-4.73c3.98-0.1,7.98-0.07,11.95-0.33c2.77-0.18,3.33,1.07,3.28,3.53
		C98.45,89.9,98.5,96.73,98.46,103.55z"/>
	<path class="st11" d="M82.66,145.6c-1.57-0.73-1.28-2.17-1.28-3.46c-0.01-19.61-0.01-39.22,0-58.83c0-1.29-0.29-2.72,1.19-3.53
		c0.64,14.96,0.17,29.92,0.25,44.88C82.87,131.63,83.11,138.62,82.66,145.6z"/>
	<path class="st1" d="M82.66,145.6c-0.03-21.94-0.06-43.88-0.08-65.82c0.27,0.01,0.54,0.04,0.8,0.11c0,21.87,0,43.73,0,65.59
		C83.14,145.52,82.9,145.56,82.66,145.6z"/>
	<path class="st11" d="M142.09,145.66c0.03-21.98,0.06-43.95,0.09-65.93c1.79,1.15,1.16,2.98,1.16,4.55
		c0.04,18.96,0.04,37.93,0,56.89C143.35,142.74,144,144.59,142.09,145.66z"/>
	<path class="st12" d="M126.3,116.76c1.66,1.22,1.04,3.01,1.05,4.58c0.05,8.09,0.02,16.17,0.01,24.26
		c-0.38-0.31-0.77-0.63-1.15-0.94c-0.53-6.64-0.53-13.27,0-19.91c0-2.32,0-4.64,0-6.96C125.94,117.42,125.97,117.08,126.3,116.76z"
		/>
	<path class="st13" d="M126.3,116.76c-0.03,0.34-0.06,0.68-0.09,1.02c-0.31-0.01-0.62,0-0.92,0.03c-8.6,0.64-17.2,0.55-25.8,0.04
		c-0.29-0.02-0.58-0.03-0.88-0.03c-0.04-0.34-0.08-0.69-0.12-1.03c0,0-0.11,0-0.11,0c9.33-0.95,18.66-0.95,27.99,0L126.3,116.76z"/>
	<path class="st11" d="M99.49,117.86c8.6-0.02,17.2-0.03,25.8-0.04C116.69,119.31,108.09,119.24,99.49,117.86z"/>
	<ellipse class="st14" cx="124.91" cy="90.67" rx="0.34" ry="13.95"/>
	<path class="st14" d="M126.21,124.75c0,6.64,0,13.27,0,19.91C124.85,138.02,124.85,131.39,126.21,124.75z"/>
	<path class="st14" d="M127.63,77.97c4.57,0,9.14,0,13.71,0c0,0.17,0,0.33,0,0.5c-4.58,0-9.16,0-13.75,0
		C127.6,78.31,127.62,78.14,127.63,77.97z"/>
	<path class="st14" d="M97.29,78.47c-4.58,0-9.15,0-13.73,0c0-0.16,0-0.31,0-0.47c4.58,0,9.15,0,13.73,0
		C97.29,78.16,97.29,78.32,97.29,78.47z"/>
	<path class="st15" d="M126.37,116.79c-9.33,0-18.66,0-27.99,0c1.39-1.76,3.38-1.15,5.08-1.04
		C111.09,116.28,118.83,114.39,126.37,116.79z"/>
</g>
</svg>
