<?xml version="1.0" encoding="utf-8"?>
<!-- Generator: Adobe Illustrator 22.1.0, SVG Export Plug-In . SVG Version: 6.00 Build 0)  -->
<svg version="1.1" id="Layer_1" xmlns="http://www.w3.org/2000/svg" xmlns:xlink="http://www.w3.org/1999/xlink" x="0px" y="0px"
	 viewBox="0 0 120 120" style="enable-background:new 0 0 120 120;" xml:space="preserve">
<style type="text/css">
	.st0{fill:#563D7C;}
	.st1{fill:#FFFFFF;}
</style>
<g inkscape:version="0.48.1 r9760" sodipodi:docname="twitter_bootstrap_logo.svg" xmlns:cc="http://creativecommons.org/ns#" xmlns:dc="http://purl.org/dc/elements/1.1/" xmlns:inkscape="http://www.inkscape.org/namespaces/inkscape" xmlns:rdf="http://www.w3.org/1999/02/22-rdf-syntax-ns#" xmlns:sodipodi="http://sodipodi.sourceforge.net/DTD/sodipodi-0.dtd" xmlns:svg="http://www.w3.org/2000/svg">
	<path class="st0" d="M120,100c0,11-9,20-20,20H20c-11,0-20-9-20-20V20C0,9,9,0,20,0h80c11,0,20,9,20,20V100z"/>
	<path class="st1" d="M32.6,26.1h34c6.3,0,11.3,1.4,15.1,4.3s5.7,7.2,5.7,13c0,3.5-0.9,6.5-2.6,9.1c-1.7,2.5-4.2,4.5-7.4,5.8v0.2
		c4.3,0.9,7.6,3,9.8,6.1c2.2,3.2,3.3,7.1,3.3,11.9c0,2.7-0.5,5.3-1.5,7.7c-1,2.4-2.5,4.5-4.6,6.2c-2.1,1.7-4.8,3.1-8,4.1
		c-3.3,1-7.2,1.5-11.7,1.5H32.6L32.6,26.1L32.6,26.1z M44.9,55.4h20c2.9,0,5.4-0.8,7.4-2.5c2-1.7,2.9-4.1,2.9-7.2
		c0-3.5-0.9-6-2.6-7.5c-1.8-1.4-4.3-2.2-7.6-2.2h-20L44.9,55.4L44.9,55.4z M44.9,86.1h21.7c3.7,0,6.6-1,8.7-2.9
		c2.1-1.9,3.1-4.7,3.1-8.2c0-3.5-1-6.1-3.1-8c-2.1-1.9-4.9-2.8-8.7-2.8H44.9V86.1z"/>
</g>
</svg>
