<?xml version="1.0" encoding="utf-8"?>
<!-- Generator: Adobe Illustrator 22.1.0, SVG Export Plug-In . SVG Version: 6.00 Build 0)  -->
<svg version="1.1" id="Layer_1" xmlns="http://www.w3.org/2000/svg" xmlns:xlink="http://www.w3.org/1999/xlink" x="0px" y="0px"
	 viewBox="0 0 120 120" style="enable-background:new 0 0 120 120;" xml:space="preserve">
<style type="text/css">
	.st0{fill:#115A91;}
	.st1{fill:#FFFFFF;}
	.st2{fill:url(#SVGID_1_);}
	.st3{filter:url(#b);}
	.st4{fill:#4D4D4D;}
	.st5{filter:url(#c);}
</style>
<filter  filterUnits="objectBoundingBox" height="200%" id="c" width="200%" x="-50%" y="-50%">
	<feOffset  dy="2" in="SourceAlpha" result="shadowOffsetOuter1"></feOffset>
	<feGaussianBlur  in="shadowOffsetOuter1" result="shadowBlurOuter1" stdDeviation="2"></feGaussianBlur>
	<feColorMatrix  in="shadowBlurOuter1" result="shadowMatrixOuter1" values="0 0 0 0 0 0 0 0 0 0 0 0 0 0 0 0 0 0 0.273992301 0">
		</feColorMatrix>
	<feMerge>
		<feMergeNode  in="shadowMatrixOuter1"></feMergeNode>
		<feMergeNode  in="SourceGraphic"></feMergeNode>
	</feMerge>
</filter>
<filter  filterUnits="objectBoundingBox" height="200%" id="b" width="200%" x="-50%" y="-50%">
	<feOffset  dy="2" in="SourceAlpha" result="shadowOffsetOuter1"></feOffset>
	<feGaussianBlur  in="shadowOffsetOuter1" result="shadowBlurOuter1" stdDeviation="2"></feGaussianBlur>
	<feColorMatrix  in="shadowBlurOuter1" result="shadowMatrixOuter1" values="0 0 0 0 0 0 0 0 0 0 0 0 0 0 0 0 0 0 0.273992301 0">
		</feColorMatrix>
	<feMerge>
		<feMergeNode  in="shadowMatrixOuter1"></feMergeNode>
		<feMergeNode  in="SourceGraphic"></feMergeNode>
	</feMerge>
</filter>
<path class="st0" d="M120,96c0,13.2-10.8,24-24,24H24c-13.2,0-24-10.8-24-24V24C0,10.8,10.8,0,24,0h72c13.2,0,24,10.8,24,24V96z"/>
<path class="st1" d="M96,13.2c6,0,10.8,4.8,10.8,10.8v60c0,6-4.8,10.8-10.8,10.8H24c-6,0-10.8-4.8-10.8-10.8V24
	c0-6,4.8-10.8,10.8-10.8L96,13.2"/>
<linearGradient id="SVGID_1_" gradientUnits="userSpaceOnUse" x1="1069.5959" y1="-1070.6355" x2="1069.5959" y2="-1070.6836" gradientTransform="matrix(2500 0 0 -2250 -2673930 -2408930)">
	<stop  offset="0" style="stop-color:#29ABE2"/>
	<stop  offset="0.4757" style="stop-color:#28A9E1"/>
	<stop  offset="0.6639" style="stop-color:#23A2DC"/>
	<stop  offset="0.8012" style="stop-color:#1A96D4"/>
	<stop  offset="0.913" style="stop-color:#0E85C9"/>
	<stop  offset="1" style="stop-color:#0071BC"/>
</linearGradient>
<path class="st2" d="M96,13.2c6,0,10.8,4.8,10.8,10.8v60c0,6-4.8,10.8-10.8,10.8H24c-6,0-10.8-4.8-10.8-10.8V24
	c0-6,4.8-10.8,10.8-10.8L96,13.2L96,13.2z M96,0H24C10.8,0,0,10.8,0,24v60c0,13.2,10.8,24,24,24h72c13.2,0,24-10.8,24-24V24
	C120,10.8,109.2,0,96,0z"/>
<g>
	<g class="st3">
		<polygon class="st4" points="93.6,25.2 93.6,82.8 63.6,82.8 63.6,68.4 80.4,68.4 80.4,38.4 63.6,38.4 63.6,25.2 		"/>
	</g>
	<g class="st5">
		<polygon class="st4" points="56.4,25.2 56.4,38.4 39.6,38.4 39.6,68.4 56.4,68.4 56.4,82.8 26.4,82.8 26.4,25.2 		"/>
	</g>
</g>
</svg>
