<?xml version="1.0" encoding="utf-8"?>
<!-- Generator: Adobe Illustrator 22.1.0, SVG Export Plug-In . SVG Version: 6.00 Build 0)  -->
<svg version="1.1" id="Capa_1" xmlns="http://www.w3.org/2000/svg" xmlns:xlink="http://www.w3.org/1999/xlink" x="0px" y="0px"
	 viewBox="0 0 120 120" style="enable-background:new 0 0 120 120;" xml:space="preserve">
<style type="text/css">
	.st0{fill:#261300;}
	.st1{fill:#FF7C00;}
</style>
<g>
	<path class="st0" d="M5,5.1h110v109.7H5V5.1z"/>
	<path class="st1" d="M0,0v120h120V0H0z M5,5.1h110v109.7H5V5.1z"/>
	<path class="st1" d="M41.7,67.9l-4,15.4c-0.1,0.4-0.3,0.5-0.8,0.5h-7.4c-0.5,0-0.6-0.2-0.5-0.8l14.2-51c0.3-0.9,0.4-1.7,0.5-4.3
		c0-0.4,0.2-0.5,0.4-0.5h10.5c0.3,0,0.5,0.1,0.6,0.5l15.9,55.3c0.1,0.4,0,0.7-0.4,0.7h-8.3c-0.4,0-0.7-0.1-0.8-0.5l-4.2-15.4H41.7
		L41.7,67.9z M55.5,59.6c-1.4-5.7-4.7-18.1-6-24.1h-0.1c-1,6-3.7,16.2-5.8,24.1H55.5z M78.1,31.1c0-3.3,2.3-5.2,5.1-5.2
		c3.1,0,5.1,2.1,5.1,5.2c0,3.4-2.2,5.2-5.2,5.2C80.2,36.4,78.1,34.5,78.1,31.1L78.1,31.1z M78.7,42.8c0-0.4,0.2-0.6,0.6-0.6h7.8
		c0.4,0,0.6,0.2,0.6,0.6v40.5c0,0.4-0.1,0.6-0.6,0.6h-7.8c-0.5,0-0.7-0.3-0.7-0.7L78.7,42.8L78.7,42.8z"/>
</g>
</svg>
