<?xml version="1.0" encoding="utf-8"?>
<!-- Generator: Adobe Illustrator 22.1.0, SVG Export Plug-In . SVG Version: 6.00 Build 0)  -->
<svg version="1.1" id="Layer_1" xmlns="http://www.w3.org/2000/svg" xmlns:xlink="http://www.w3.org/1999/xlink" x="0px" y="0px"
	 viewBox="0 0 120 120" style="enable-background:new 0 0 120 120;" xml:space="preserve">
<style type="text/css">
	.st0{fill:#0868AC;}
</style>
<path class="st0" d="M21,37.2c-7.9,11.4-6.9,26.2-0.9,38.2c0.1,0.3,0.3,0.6,0.4,0.9c0.1,0.2,0.2,0.4,0.3,0.5
	c0.1,0.1,0.1,0.2,0.2,0.3c0.1,0.2,0.2,0.4,0.3,0.6c0.2,0.3,0.4,0.7,0.6,1c0.1,0.2,0.2,0.4,0.3,0.5c0.2,0.4,0.4,0.7,0.7,1
	c0.1,0.1,0.2,0.3,0.3,0.4c0.3,0.5,0.6,0.9,1,1.4l0,0c0.1,0.1,0.1,0.1,0.2,0.2c0.3,0.4,0.6,0.8,0.9,1.2c0.1,0.1,0.2,0.3,0.3,0.4
	c0.4,0.5,0.7,0.9,1.1,1.4c0.4,0.4,0.8,0.9,1.2,1.3c0,0,0,0,0,0c0.8,0.9,1.6,1.7,2.5,2.5c0.1,0.1,0.3,0.2,0.4,0.4
	c0.4,0.4,0.8,0.8,1.3,1.2c0.1,0.1,0.1,0.1,0.2,0.2c0.4,0.3,0.8,0.7,1.1,1c0.2,0.1,0.3,0.3,0.5,0.4c0.3,0.3,0.6,0.5,1,0.7l0.5,0.4
	c0.4,0.3,0.7,0.5,1.1,0.8c0.1,0.1,0.3,0.2,0.4,0.3c0,0,0.1,0.1,0.1,0.1c0.3,0.2,0.7,0.5,1,0.7c0.2,0.1,0.3,0.2,0.5,0.3
	c0.5,0.3,1.1,0.7,1.6,1c0.1,0.1,0.3,0.2,0.5,0.3c0.4,0.2,0.8,0.5,1.2,0.7c0.2,0.1,0.5,0.2,0.7,0.3c0.3,0.2,0.6,0.3,0.9,0.5
	c0.1,0,0.1,0.1,0.2,0.1c0.1,0.1,0.2,0.1,0.4,0.2c0.6,0.3,1.1,0.5,1.7,0.8c0.5,0.2,1.1,0.5,1.6,0.7c0.1,0.1,0.3,0.1,0.4,0.2
	c0.6,0.2,1.1,0.4,1.7,0.6c0.6,0.2,1.1,0.4,1.7,0.6c0.1,0,0.3,0.1,0.4,0.1c0.6,0.2,1.2,0.4,1.8,0.5c38.3,7,49.4-23,49.4-23
	c-9.3,12.2-25.9,15.4-41.6,11.8c-0.6-0.1-1.2-0.3-1.8-0.5c-0.7-0.2-1.4-0.4-2.1-0.7l-0.2-0.1c-0.5-0.2-1-0.4-1.5-0.6
	c-0.1-0.1-0.3-0.1-0.4-0.2c-0.5-0.2-1.1-0.4-1.6-0.7c-0.1,0-0.2-0.1-0.3-0.1c-0.6-0.3-1.2-0.5-1.7-0.8c-0.4-0.2-0.7-0.4-1-0.5
	c-0.2-0.1-0.5-0.2-0.7-0.4c-0.4-0.2-0.8-0.5-1.3-0.7c-0.1-0.1-0.3-0.2-0.4-0.2c-0.6-0.3-1.1-0.7-1.6-1c-0.1-0.1-0.3-0.2-0.4-0.3
	c-0.4-0.3-0.8-0.5-1.2-0.8c-0.1-0.1-0.3-0.2-0.4-0.3c-0.4-0.3-0.7-0.5-1.1-0.8c-0.2-0.1-0.3-0.2-0.5-0.4c-0.5-0.4-1-0.7-1.4-1.1
	c-0.4-0.3-0.8-0.7-1.2-1l-0.1-0.1c-0.4-0.4-0.9-0.8-1.3-1.2c-0.1-0.1-0.2-0.2-0.4-0.4c-0.3-0.3-0.6-0.6-0.9-0.9
	c-0.1-0.1-0.2-0.2-0.4-0.4c-0.4-0.4-0.8-0.8-1.1-1.2l-0.1-0.1c-0.4-0.4-0.8-0.9-1.2-1.3c-0.1-0.1-0.2-0.2-0.3-0.4
	c-0.3-0.3-0.6-0.7-0.8-1c-0.1-0.1-0.2-0.3-0.3-0.4c-0.3-0.4-0.7-0.9-1-1.3c-8.7-11.9-11.8-28.3-4.9-41.7"/>
<path class="st0" d="M45.6,27.6c-5.7,8.2-5.4,19.2-0.9,28c0.7,1.5,1.6,2.9,2.5,4.2c0.9,1.2,1.8,2.7,2.9,3.7c0.4,0.5,0.8,0.9,1.3,1.3
	c0.1,0.1,0.2,0.2,0.3,0.3c0.4,0.4,0.9,0.8,1.3,1.2c0,0,0,0,0.1,0c0,0,0,0,0,0c0.5,0.4,1,0.9,1.5,1.3c0.1,0.1,0.2,0.2,0.3,0.3
	c0.5,0.4,1.1,0.8,1.6,1.2c0,0,0,0,0,0c0.2,0.2,0.5,0.3,0.7,0.5c0.1,0.1,0.2,0.2,0.3,0.2c0.4,0.3,0.8,0.5,1.2,0.7
	c0.1,0,0.1,0.1,0.2,0.1c0.3,0.2,0.7,0.4,1,0.6c0.1,0.1,0.2,0.1,0.4,0.2c0.2,0.1,0.5,0.3,0.7,0.4c0,0,0.1,0,0.1,0.1
	c0.5,0.2,1,0.5,1.5,0.7c0.1,0,0.2,0.1,0.3,0.1c0.4,0.2,0.8,0.3,1.3,0.5c0.2,0.1,0.4,0.1,0.5,0.2c0.4,0.1,0.8,0.3,1.2,0.4
	c0.2,0.1,0.3,0.1,0.5,0.2c0.5,0.2,1.1,0.4,1.7,0.5c29.5,4.9,36.4-17.8,36.4-17.8c-6.1,8.9-18,13.1-30.7,9.8
	c-0.7-0.2-1.5-0.4-2.2-0.6c-0.6-0.2-1.1-0.4-1.7-0.6c-0.4-0.2-0.8-0.3-1.3-0.5c-0.1,0-0.2-0.1-0.3-0.1c-0.5-0.2-1-0.5-1.5-0.7
	c-0.3-0.1-0.5-0.3-0.8-0.4l-0.4-0.2c-0.3-0.2-0.7-0.4-1-0.6c-0.1,0-0.2-0.1-0.2-0.1c-0.4-0.2-0.8-0.5-1.2-0.7
	c-0.1-0.1-0.2-0.2-0.4-0.2c-0.3-0.2-0.5-0.3-0.8-0.5c-0.5-0.4-1.1-0.8-1.6-1.2c-0.1-0.1-0.2-0.2-0.4-0.3c-5.6-4.4-10-10.4-12.1-17.2
	c-2.2-7.1-1.7-15,2.1-21.4"/>
<path class="st0" d="M66.2,20.4c-3.4,5-3.7,11.1-1.4,16.6c2.5,5.8,7.5,10.4,13.4,12.5c0.2,0.1,0.5,0.2,0.7,0.3
	c0.1,0,0.2,0.1,0.3,0.1c0.3,0.1,0.7,0.2,1.1,0.3c16.3,3.2,20.7-8.4,21.9-10.1c-3.9,5.6-10.4,6.9-18.4,5c-0.7-0.2-1.3-0.4-1.9-0.6
	c-0.8-0.3-1.5-0.6-2.3-1c-1.4-0.7-2.8-1.5-4-2.5c-7.1-5.4-11.6-15.8-6.9-24.2"/>
</svg>
