<?xml version="1.0" encoding="utf-8"?>
<!-- Generator: Adobe Illustrator 22.1.0, SVG Export Plug-In . SVG Version: 6.00 Build 0)  -->
<svg version="1.1" id="Layer_1" xmlns="http://www.w3.org/2000/svg" xmlns:xlink="http://www.w3.org/1999/xlink" x="0px" y="0px"
	 viewBox="0 0 120 120" style="enable-background:new 0 0 120 120;" xml:space="preserve">
<style type="text/css">
	.st0{fill:#577FA2;}
	.st1{fill:#FFA230;}
	.st2{fill:#FFCE92;}
	.st3{fill:#ADC0D1;}
	.st4{fill:#FEFEFE;}
</style>
<g>
	<g>
		<path class="st0" d="M36.4,10.4c12.1-6.8,35.1-6.8,47.2,0c0.6,0.5,1.4,0.7,2.1,1.1c1.3,0.6,2.4,1.5,3.8,2.1c0.5,0.7,1.4,1,2.1,1.5
			c2.2,1.5,4.1,3.3,6.2,4.9c1.3,1.4,2.5,2.9,4,4.2c0.8,1.4,2,2.4,2.8,3.8c0.8,1,1.4,2.3,2.3,3.2c0.4,1.1,1,1.9,1.5,2.8
			c0.5,0.9,0.9,2,1.5,2.8c2.4,5.6,4.3,11.6,4.9,19.1c0.1,0.6-0.2,1.6,0.2,1.9c0,1.4,0,2.9,0,4.3c-0.4,0.3-0.1,1.3-0.2,1.9
			c-0.6,7.4-2.5,13.5-4.9,19.1c-0.6,0.8-1,1.9-1.5,2.8c-0.5,1-1.2,1.7-1.5,2.8c-0.9,0.9-1.5,2.2-2.3,3.2c-0.9,1.3-2,2.4-2.8,3.8
			c-1.5,1.2-2.6,2.8-4,4.2c-2.1,1.6-4,3.4-6.2,4.9c-0.7,0.5-1.5,0.9-2.1,1.5c-1.4,0.6-2.5,1.5-3.8,2.1c-0.7,0.4-1.5,0.6-2.1,1.1
			c-12.1,6.8-35.1,6.8-47.2,0c-0.6-0.5-1.4-0.7-2.1-1.1c-1.3-0.6-2.4-1.5-3.8-2.1c-0.5-0.7-1.4-1-2.1-1.5c-2.2-1.5-4.1-3.3-6.2-4.9
			c-1.3-1.4-2.5-2.9-4-4.2c-0.8-1.4-2-2.4-2.8-3.8c-0.8-1-1.4-2.3-2.3-3.2c-0.4-1.1-1-1.9-1.5-2.8c-0.5-0.9-0.9-2-1.5-2.8
			c-2.4-5.6-4.3-11.6-4.9-19.1c-0.1-0.6,0.2-1.6-0.2-1.9c0-1.4,0-2.9,0-4.3c0.4-0.3,0.1-1.3,0.2-1.9c0.6-7.4,2.5-13.5,4.9-19.1
			c0.6-0.8,1-1.9,1.5-2.8c0.5-1,1.2-1.7,1.5-2.8c0.9-0.9,1.5-2.2,2.3-3.2c0.9-1.3,2-2.4,2.8-3.8c1.5-1.2,2.6-2.8,4-4.2
			c2.1-1.6,4-3.4,6.2-4.9c0.7-0.5,1.5-0.9,2.1-1.5c1.4-0.6,2.5-1.5,3.8-2.1C35,11.1,35.8,10.9,36.4,10.4z M56.8,6.8
			c-10.7,0.6-18.5,4-25.5,8.3c-0.7,0.5-1.6,0.8-2.1,1.5c-1.3,0.5-2.1,1.5-3.2,2.3c-1,0.8-2.1,1.6-2.8,2.6c-2.5,2-4.5,4.5-6.2,7.2
			c-1,0.9-1.6,2.1-2.3,3.2c-0.5,0.9-1.2,1.7-1.5,2.8c-0.7,0.7-1.1,1.8-1.5,2.8c-2.5,5.5-4.5,11.5-4.9,19.1C6.3,57,6.7,58,6.5,58.6
			c0,0.9,0,1.9,0,2.8C6.7,62,6.3,63,6.7,63.3c0.4,7.6,2.4,13.6,4.9,19.1c0.4,1,0.8,2.1,1.5,2.8c0.3,1.1,1,1.9,1.5,2.8
			c0.7,1.1,1.3,2.4,2.3,3.2c1.8,2.7,3.7,5.2,6.2,7.2c0.8,1.1,1.9,1.8,2.8,2.6c1.1,0.8,1.9,1.7,3.2,2.3c0.5,0.7,1.3,1.1,2.1,1.5
			c7,4.3,14.8,7.7,25.5,8.3c1.7,0.3,4.7,0.3,6.4,0c10.7-0.6,18.5-4,25.5-8.3c0.7-0.5,1.6-0.8,2.1-1.5c1.3-0.5,2.1-1.5,3.2-2.3
			c1-0.8,2.1-1.6,2.8-2.6c2.5-2,4.5-4.5,6.2-7.2c1-0.9,1.6-2.1,2.3-3.2c0.5-0.9,1.2-1.7,1.5-2.8c0.7-0.7,1.1-1.8,1.5-2.8
			c2.5-5.5,4.5-11.5,4.9-19.1c0.4-0.3,0.1-1.3,0.2-1.9c0-0.9,0-1.9,0-2.8c-0.1-0.6,0.2-1.6-0.2-1.9c-0.4-7.6-2.4-13.6-4.9-19.1
			c-0.4-1-0.8-2.1-1.5-2.8c-0.3-1.1-1-1.9-1.5-2.8c-0.7-1.1-1.3-2.4-2.3-3.2c-1.8-2.7-3.7-5.2-6.2-7.2c-0.8-1.1-1.9-1.8-2.8-2.6
			c-1.1-0.8-1.9-1.7-3.2-2.3c-0.5-0.7-1.3-1.1-2.1-1.5c-7-4.3-14.8-7.7-25.5-8.3C61.5,6.5,58.5,6.5,56.8,6.8z"/>
		<path class="st1" d="M48.1,49.1c-2.7-4-5.5-7.5-5.5-14c0-12.6,5.8-25.3,17.9-27c0.3,0.4,1.3,0.1,1.9,0.2
			c10.5,0.8,18.4,4.2,25.5,8.3c0.5,0.7,1.4,1,2.1,1.5c0.5,0.3,0.8,0.8,1.5,0.9c2.5,2.1,4.9,4.3,7.2,6.6c0.8,1.4,2,2.4,2.8,3.8
			c0.8,1,1.4,2.3,2.3,3.2c0.4,1.1,1,1.9,1.5,2.8c0.5,0.9,0.9,2,1.5,2.8c6.3,11.4,6.3,31.8,0,43.3c-0.6,0.8-1,1.9-1.5,2.8
			c-0.5,1-1.2,1.7-1.5,2.8c-0.9,0.9-1.5,2.2-2.3,3.2c-0.9,1.3-2,2.4-2.8,3.8c-2.3,2.3-4.7,4.5-7.2,6.6c-0.7,0.1-1,0.7-1.5,0.9
			c-0.7,0.5-1.5,0.9-2.1,1.5c-6.6,3.9-13.9,7-23.2,8.1c8.8-3.9,13.5-11.9,15.3-22.9c0.4-0.4,0.1-1.6,0.2-2.3
			c0.2-8.3-1.8-14.3-5.7-18.5c-0.7-0.9-1.6-1.7-2.5-2.5c-6.4-5.5-14.9-8.9-21.7-14C49.7,50.6,48.9,49.8,48.1,49.1z M80,29.3
			c-3.7-3-7-6.3-13.6-6.4c-1.9-2.3-9.5-5.3-9.8-0.6c-0.2,2.8,2.9,4.6,4,6.8c1.8,3.7,2.1,7.8,4.3,9.4c-2.5,3.8-1.6,16.3,3.2,15.9
			c2.3-0.2,1.5-3.2,2.5-5.1c1,3,2.9,5.1,5.3,6.8c0.7,0.8,1.8,2.1,2.6,2.1c-0.8-0.5-1.3-1.4-2.1-1.9c-2.5-3.3-4.4-7.2-6.2-11.1
			c-1.7,1.6-2.1,4.6-2.6,7.4c-1.6-1.1-2.1-3.3-2.5-5.7c0-1,0-2,0-3c-0.3-2.1,1.8-3.7,1.3-5.9c-0.2-0.8-1.3-1.6-1.7-2.3
			c-1.2-2-1.6-4.8-2.8-7.2c-1.2-2.5-3.6-4.1-3.6-6.6c2.8-0.9,5.4,1.4,7.2,2.8c5.4-0.1,8.5,2.1,11.3,4.3c4.8,3.8,6.9,7.9,9.6,13.8
			c1.1,2.4,2.3,6.5,4.2,7.7c1.8,1.2,4,1.4,5.9,2.5c1.8,1.1,3.5,1.8,4.9,3.6c-3.3-0.2-5.8,0.4-7.7,1.5c0.8,2.6,3,4,5.3,5.3
			c2.3,1.2,4.6,2.6,6.4,3.8c-1.9-3.8-6.1-5.2-8.7-8.3c2.4-0.4,4.7-0.8,7-1.3c-2.5-4.3-6.8-6.6-11.7-8.5c-3.5-5.8-5.3-13.4-10-17.9
			C81.4,30.5,80.7,29.9,80,29.3z M66.4,28c0.4,1.2,1.4,1.7,1.7,3C70,30.3,68.7,27.3,66.4,28z"/>
		<path class="st2" d="M60.6,8.1c0.6,0.1,1.6-0.2,1.9,0.2C61.9,8.2,60.8,8.6,60.6,8.1z"/>
		<path class="st0" d="M37.9,13.4c4.6-1.9,9.3-3.7,14.9-4.5c0.2,0.5-1.2,0.9-2.1,1.5c-5.8,4-9.7,11.3-10.6,20.4
			C39.7,31.5,40.1,33,40,34c0.1,20.4,17.8,23.1,29.3,32.1c0.7,0.8,1.4,1.6,2.3,2.3c2.6,3.6,5.6,7.8,5.9,14.2
			c0.3,7.6-2,16.6-5.9,20.8c-0.7,0.6-1.3,1.2-1.9,1.9c-2.9,3.1-6.4,5.6-11.3,6.2c-7.1,0.9-15-3-20.4-4.9c-0.6-0.5-1.4-0.7-2.1-1.1
			c-1.3-0.6-2.4-1.5-3.8-2.1c-0.5-0.7-1.4-1-2.1-1.5c-2.2-1.5-4.1-3.3-6.2-4.9C23,96,22.3,95,21.3,94.3c-0.8-1.4-2-2.4-2.8-3.8
			c-0.8-1-1.4-2.3-2.3-3.2c-0.4-1.1-1-1.9-1.5-2.8c-0.5-0.9-0.9-2-1.5-2.8C10.8,76,8.8,70,8.2,62.6c-0.1-0.6,0.2-1.6-0.2-1.9
			c0-0.4,0-0.9,0-1.3c0.4-0.3,0.1-1.3,0.2-1.9C8.8,50,10.8,44,13.2,38.4c0.6-0.8,1-1.9,1.5-2.8c0.5-1,1.2-1.7,1.5-2.8
			c0.9-0.9,1.5-2.2,2.3-3.2c0.9-1.3,2-2.4,2.8-3.8c1-0.7,1.7-1.7,2.5-2.6c2.1-1.6,4-3.4,6.2-4.9c0.7-0.5,1.5-0.9,2.1-1.5
			c1.4-0.6,2.5-1.5,3.8-2.1C36.5,14.2,37.3,13.9,37.9,13.4z M55.7,75.8c0.3,2.1-1.8,3.7-1.3,5.9c0.2,0.8,1.3,1.6,1.7,2.3
			c1.2,2,1.6,4.8,2.8,7.2c1.2,2.5,3.6,4.1,3.6,6.6c-2.8,0.9-5.4-1.4-7.2-2.8c-5.4,0.1-8.5-2.1-11.3-4.3c-4.8-3.8-7-7.9-9.6-13.8
			c-1.1-2.4-2.3-6.5-4.2-7.7c-1.8-1.3-4.3-1.2-6-2.3c-1.8-1.1-3.1-2.2-4.7-3.8c3.3,0.2,5.8-0.4,7.7-1.5c-1-4-5.4-4.9-8.5-6.8
			c-1.2-0.8-1.9-2-3.2-2.3c1.9,3.8,6.1,5.2,8.7,8.3c-2.3,0.5-4.7,0.8-7,1.3c2.5,4.2,6.8,6.6,11.7,8.5c3.5,5.8,5.3,13.4,10,17.9
			c0.6,0.7,1.2,1.3,1.9,1.9c3.7,3,7,6.3,13.6,6.4c1.9,2.3,9.5,5.3,9.8,0.6c0.2-2.8-2.9-4.6-4-6.8c-1.8-3.7-2.1-7.8-4.3-9.4
			c2.5-3.7,1.6-16.4-3.2-15.9c-2.3,0.2-1.5,3.3-2.5,5.1c-1-2.9-2.8-5-5.1-6.6c-0.7-0.8-1.9-2.3-2.8-2.3c0.9,0.6,1.4,1.5,2.3,2.1
			c2.1,3.4,4.4,6.5,5.7,10.8c2.4-1,2.3-4.5,3-7.2c1.7,1,2.1,3.2,2.5,5.5C55.7,73.6,55.7,74.7,55.7,75.8z M54.3,91.6
			c-0.4-1.2-1.5-1.7-1.7-3C50.8,89.3,52,92.3,54.3,91.6z"/>
		<path class="st3" d="M40.2,30.8c-0.1,1,0.2,2.5-0.2,3.2C40.1,33,39.7,31.5,40.2,30.8z"/>
		<path class="st2" d="M65.1,43.8c0,1,0,2,0,3C64.8,46.3,64.8,44.4,65.1,43.8z"/>
		<path class="st3" d="M5,57.8c0.1-0.6-0.2-1.6,0.2-1.9C5.1,56.5,5.5,57.6,5,57.8z"/>
		<path class="st3" d="M114.8,55.9c0.4,0.3,0.1,1.3,0.2,1.9C114.5,57.6,114.9,56.5,114.8,55.9z"/>
		<path class="st3" d="M6.7,56.7c0,0.6,0,1.3,0,1.9c-0.1,0-0.1,0-0.2,0C6.7,58,6.3,57,6.7,56.7z"/>
		<path class="st3" d="M113.3,56.7c0.4,0.3,0.1,1.3,0.2,1.9c-0.1,0-0.1,0-0.2,0C113.3,58,113.3,57.3,113.3,56.7z"/>
		<path class="st3" d="M8.1,59.3c0.1-0.6-0.2-1.6,0.2-1.9C8.1,58,8.5,59.1,8.1,59.3z"/>
		<path class="st4" d="M6.5,58.6c0.1,0,0.1,0,0.2,0c0,0.9,0,1.9,0,2.8c-0.1,0-0.1,0-0.2,0C6.5,60.5,6.5,59.5,6.5,58.6z"/>
		<path class="st4" d="M113.3,58.6c0.1,0,0.1,0,0.2,0c0,0.9,0,1.9,0,2.8c-0.1,0-0.1,0-0.2,0C113.3,60.5,113.3,59.5,113.3,58.6z"/>
		<path class="st3" d="M8.1,60.7c0.4,0.3,0.1,1.3,0.2,1.9C7.8,62.3,8.2,61.2,8.1,60.7z"/>
		<path class="st3" d="M6.5,61.4c0.1,0,0.1,0,0.2,0c0,0.6,0,1.3,0,1.9C6.3,63,6.7,62,6.5,61.4z"/>
		<path class="st3" d="M113.3,61.4c0.1,0,0.1,0,0.2,0c-0.1,0.6,0.2,1.6-0.2,1.9C113.3,62.7,113.3,62,113.3,61.4z"/>
		<path class="st3" d="M5,62.2c0.4,0.3,0.1,1.3,0.2,1.9C4.8,63.8,5.1,62.7,5,62.2z"/>
		<path class="st3" d="M115,62.2c-0.1,0.6,0.2,1.6-0.2,1.9C114.9,63.5,114.5,62.4,115,62.2z"/>
		<path class="st3" d="M55.7,72.6c0.3,0.6,0.3,2.6,0,3.2C55.7,74.7,55.7,73.6,55.7,72.6z"/>
		<path class="st2" d="M80,88.6c0.1-0.7-0.2-1.9,0.2-2.3C80.1,87,80.5,88.2,80,88.6z"/>
		<path class="st3" d="M34.3,11.5c0.5-0.6,1.3-0.8,2.1-1.1C35.8,10.9,35,11.1,34.3,11.5z"/>
		<path class="st3" d="M28.5,15.1c0.5-0.7,1.3-1.1,2.1-1.5C30,14.3,29.1,14.6,28.5,15.1z"/>
		<path class="st3" d="M18.3,24.2c1.3-1.4,2.5-3,4-4.2C20.9,21.4,19.7,23,18.3,24.2z"/>
		<path class="st3" d="M13.2,31.2c0.7-1.1,1.3-2.4,2.3-3.2C14.6,29,14.1,30.3,13.2,31.2z"/>
		<path class="st3" d="M10.1,36.9c0.4-1,0.8-2.1,1.5-2.8C11.1,34.9,10.8,36,10.1,36.9z"/>
		<path class="st3" d="M10.1,83.1c0.6,0.8,1,1.9,1.5,2.8C10.9,85.3,10.5,84.2,10.1,83.1z"/>
		<path class="st3" d="M15.4,92c-1-0.9-1.6-2.1-2.3-3.2C14.1,89.7,14.6,91,15.4,92z"/>
		<path class="st3" d="M22.2,100c-1.5-1.2-2.7-2.7-4-4.2C19.7,97,20.9,98.6,22.2,100z"/>
		<path class="st3" d="M30.5,106.4c-0.7-0.5-1.6-0.8-2.1-1.5C29.1,105.4,30,105.7,30.5,106.4z"/>
		<path class="st3" d="M36.4,109.6c-0.8-0.3-1.6-0.5-2.1-1.1C35,108.9,35.8,109.1,36.4,109.6z"/>
		<path class="st3" d="M83.6,109.6c0.6-0.5,1.4-0.7,2.1-1.1C85.2,109.1,84.4,109.3,83.6,109.6z"/>
		<path class="st3" d="M89.5,106.4c0.5-0.7,1.4-1,2.1-1.5C91.1,105.6,90.2,105.9,89.5,106.4z"/>
		<path class="st3" d="M97.8,100c1.3-1.4,2.5-2.9,4-4.2C100.4,97.2,99.3,98.7,97.8,100z"/>
		<path class="st3" d="M106.8,88.8c-0.7,1.1-1.3,2.4-2.3,3.2C105.4,91,105.9,89.7,106.8,88.8z"/>
		<path class="st3" d="M109.9,83.1c-0.4,1-0.8,2.1-1.5,2.8C108.9,85.1,109.2,84,109.9,83.1z"/>
		<path class="st3" d="M108.4,34c0.7,0.7,1.1,1.8,1.5,2.8C109.2,36,108.9,34.9,108.4,34z"/>
		<path class="st3" d="M104.6,28c1,0.9,1.6,2.1,2.3,3.2C105.9,30.3,105.4,29,104.6,28z"/>
		<path class="st3" d="M97.8,20c1.5,1.2,2.7,2.7,4,4.2C100.3,23,99.1,21.4,97.8,20z"/>
		<path class="st3" d="M89.5,13.6c0.7,0.5,1.6,0.8,2.1,1.5C90.9,14.6,90,14.3,89.5,13.6z"/>
		<path class="st3" d="M83.6,10.4c0.8,0.3,1.6,0.5,2.1,1.1C85,11.1,84.2,10.9,83.6,10.4z"/>
		<path class="st3" d="M29.2,16.6c0.5-0.7,1.3-1.1,2.1-1.5C30.8,15.8,29.9,16.1,29.2,16.6z"/>
		<path class="st3" d="M23.2,21.6c0.8-1.1,1.9-1.8,2.8-2.6C25.2,19.9,24.1,20.7,23.2,21.6z"/>
		<path class="st3" d="M14.7,31.9c0.7-1.1,1.3-2.4,2.3-3.2C16.1,29.8,15.6,31,14.7,31.9z"/>
		<path class="st3" d="M11.6,37.6c0.4-1,0.8-2.1,1.5-2.8C12.6,35.7,12.3,36.8,11.6,37.6z"/>
		<path class="st3" d="M11.6,82.4c0.6,0.8,1,1.9,1.5,2.8C12.4,84.5,12.1,83.4,11.6,82.4z"/>
		<path class="st3" d="M14.7,88.1c0.9,0.9,1.5,2.2,2.3,3.2C16,90.4,15.4,89.2,14.7,88.1z"/>
		<path class="st3" d="M23.2,98.4c0.9,0.9,2,1.6,2.8,2.6C25,100.2,23.9,99.5,23.2,98.4z"/>
		<path class="st3" d="M29.2,103.4c0.7,0.5,1.5,0.9,2.1,1.5C30.6,104.4,29.7,104.1,29.2,103.4z"/>
		<path class="st3" d="M88.7,104.9c0.5-0.7,1.4-1,2.1-1.5C90.3,104.1,89.4,104.4,88.7,104.9z"/>
		<path class="st3" d="M94,101.1c0.8-1,1.9-1.7,2.8-2.6C96.1,99.5,95,100.2,94,101.1z"/>
		<path class="st3" d="M103.1,91.3c0.8-1,1.4-2.3,2.3-3.2C104.6,89.2,104,90.4,103.1,91.3z"/>
		<path class="st3" d="M106.8,85.2c0.5-0.9,0.9-2,1.5-2.8C107.9,83.4,107.6,84.5,106.8,85.2z"/>
		<path class="st3" d="M108.4,37.6c-0.6-0.8-1-1.9-1.5-2.8C107.6,35.5,107.9,36.6,108.4,37.6z"/>
		<path class="st3" d="M105.3,31.9c-0.9-0.9-1.5-2.2-2.3-3.2C104,29.6,104.6,30.8,105.3,31.9z"/>
		<path class="st3" d="M94,18.9c1,0.8,2.1,1.6,2.8,2.6C95.9,20.7,94.8,19.9,94,18.9z"/>
		<path class="st3" d="M90.8,16.6c-0.7-0.5-1.5-0.9-2.1-1.5C89.4,15.6,90.3,15.9,90.8,16.6z"/>
		<path class="st2" d="M48.1,49.1c0.8,0.7,1.6,1.4,2.3,2.3C49.5,50.7,48.8,50,48.1,49.1z"/>
		<path class="st2" d="M72.1,65.4c0.9,0.7,1.7,1.6,2.5,2.5C73.6,67.1,72.8,66.3,72.1,65.4z"/>
		<path class="st2" d="M88,103.4c0.5-0.7,1.4-1,2.1-1.5C89.5,102.6,88.7,102.9,88,103.4z"/>
		<path class="st2" d="M91.5,100.9c2.5-2.1,4.9-4.3,7.2-6.6C96.6,96.8,94.2,98.9,91.5,100.9z"/>
		<path class="st2" d="M103.8,87.3c-0.7,1.1-1.3,2.4-2.3,3.2C102.3,89.5,102.9,88.2,103.8,87.3z"/>
		<path class="st2" d="M106.8,81.6c-0.4,1-0.8,2.1-1.5,2.8C105.9,83.5,106.2,82.4,106.8,81.6z"/>
		<path class="st2" d="M105.3,35.5c0.7,0.7,1.1,1.8,1.5,2.8C106.2,37.6,105.9,36.5,105.3,35.5z"/>
		<path class="st2" d="M101.6,29.5c1,0.9,1.6,2.1,2.3,3.2C102.9,31.8,102.3,30.5,101.6,29.5z"/>
		<path class="st2" d="M91.5,19.1c2.6,2,5.1,4.1,7.2,6.6C96.5,23.4,94,21.2,91.5,19.1z"/>
		<path class="st2" d="M88,16.6c0.7,0.5,1.6,0.8,2.1,1.5C89.4,17.6,88.5,17.3,88,16.6z"/>
		<path class="st3" d="M35.8,14.6c0.5-0.6,1.3-0.8,2.1-1.1C37.3,13.9,36.5,14.2,35.8,14.6z"/>
		<path class="st3" d="M30,18.2c0.5-0.7,1.3-1.1,2.1-1.5C31.5,17.3,30.6,17.6,30,18.2z"/>
		<path class="st3" d="M21.3,25.7c0.8-0.9,1.5-1.9,2.5-2.6C23,24,22.3,25,21.3,25.7z"/>
		<path class="st3" d="M16.2,32.7c0.7-1.1,1.3-2.4,2.3-3.2C17.7,30.5,17.1,31.8,16.2,32.7z"/>
		<path class="st3" d="M13.2,38.4c0.4-1,0.8-2.1,1.5-2.8C14.1,36.5,13.8,37.6,13.2,38.4z"/>
		<path class="st3" d="M13.2,81.6c0.6,0.8,1,1.9,1.5,2.8C13.9,83.7,13.6,82.7,13.2,81.6z"/>
		<path class="st3" d="M18.4,90.5c-1-0.9-1.6-2.1-2.3-3.2C17.1,88.2,17.7,89.5,18.4,90.5z"/>
		<path class="st3" d="M23.7,96.9c-0.9-0.8-1.6-1.8-2.5-2.6C22.3,95,23,96,23.7,96.9z"/>
		<path class="st3" d="M32,103.4c-0.7-0.5-1.6-0.8-2.1-1.5C30.6,102.4,31.5,102.7,32,103.4z"/>
		<path class="st3" d="M37.9,106.6c-0.8-0.3-1.6-0.5-2.1-1.1C36.5,105.8,37.3,106.1,37.9,106.6z"/>
		<path class="st3" d="M69.6,105.2c0.6-0.7,1.2-1.3,1.9-1.9C71,104.1,70.3,104.7,69.6,105.2z"/>
		<path class="st3" d="M69.3,66.1c0.8,0.7,1.6,1.4,2.3,2.3C70.7,67.7,69.9,67,69.3,66.1z"/>
		<path class="st2" d="M76.4,56.3c0.8,0.5,1.3,1.4,2.1,1.9c-0.9,0.1-2-1.3-2.6-2.1C76.1,56,76.3,56.9,76.4,56.3z"/>
		<path class="st4" d="M81.9,31.2c4.8,4.6,6.5,12.1,10,17.9c4.9,1.9,9.2,4.2,11.7,8.5c-2.3,0.5-4.6,0.9-7,1.3
			c2.6,3.1,6.8,4.5,8.7,8.3c-1.8-1.2-4.1-2.5-6.4-3.8c-2.3-1.2-4.5-2.7-5.3-5.3c1.9-1.1,4.5-1.7,7.7-1.5c-1.5-1.8-3.1-2.5-4.9-3.6
			c-1.8-1.1-4.1-1.2-5.9-2.5c-1.8-1.3-3-5.4-4.2-7.7c-2.8-5.9-4.8-10-9.6-13.8c-2.9-2.2-5.9-4.4-11.3-4.3c-1.8-1.4-4.4-3.7-7.2-2.8
			c0,2.5,2.4,4.1,3.6,6.6c1.2,2.4,1.6,5.2,2.8,7.2c0.4,0.6,1.5,1.5,1.7,2.3c0.4,2.1-1.6,3.7-1.3,5.9c-0.3,0.6-0.3,2.4,0,3
			c0.3,2.4,0.8,4.6,2.5,5.7c0.6-2.8,0.9-5.8,2.6-7.4c1.9,3.9,3.7,7.9,6.2,11.1c-0.1,0.5-0.3-0.3-0.6-0.2c-2.4-1.7-4.3-3.8-5.3-6.8
			c-1,1.9-0.2,4.9-2.5,5.1c-4.9,0.5-5.7-12.1-3.2-15.9c-2.3-1.7-2.6-5.7-4.3-9.4c-1-2.2-4.2-4-4-6.8c0.3-4.7,7.9-1.7,9.8,0.6
			C73,23,76.3,26.3,80,29.3C80.6,30,81.2,30.6,81.9,31.2z"/>
		<path class="st2" d="M80,29.3c0.7,0.6,1.3,1.2,1.9,1.9C81.2,30.6,80.6,30,80,29.3z"/>
		<path class="st4" d="M68.1,31c-0.3-1.3-1.3-1.9-1.7-3C68.7,27.3,70,30.3,68.1,31z"/>
		<path class="st3" d="M38.8,88.4c0.7,0.6,1.3,1.2,1.9,1.9C40,89.8,39.4,89.1,38.8,88.4z"/>
		<path class="st3" d="M44.5,63.5c-0.9-0.6-1.4-1.5-2.3-2.1c1,0,2.1,1.4,2.8,2.3C44.8,63.8,44.6,62.9,44.5,63.5z"/>
		<path class="st4" d="M38.8,88.4c-4.8-4.6-6.5-12.1-10-17.9c-4.9-1.9-9.2-4.3-11.7-8.5c2.3-0.5,4.7-0.9,7-1.3
			c-2.5-3.1-6.8-4.5-8.7-8.3c1.3,0.2,2,1.5,3.2,2.3c3.1,1.9,7.5,2.8,8.5,6.8c-2,1.1-4.5,1.7-7.7,1.5c1.6,1.6,2.9,2.7,4.7,3.8
			c1.8,1.1,4.2,1,6,2.3c1.8,1.3,3.1,5.3,4.2,7.7c2.7,5.9,4.8,10,9.6,13.8c2.8,2.2,5.9,4.5,11.3,4.3c1.8,1.4,4.4,3.7,7.2,2.8
			c0-2.5-2.4-4.1-3.6-6.6c-1.2-2.4-1.6-5.2-2.8-7.2c-0.4-0.6-1.5-1.5-1.7-2.3c-0.4-2.1,1.6-3.7,1.3-5.9c0.3-0.6,0.3-2.6,0-3.2
			c-0.4-2.2-0.8-4.5-2.5-5.5c-0.8,2.6-0.6,6.2-3,7.2c-1.2-4.2-3.5-7.4-5.7-10.8c0.1-0.5,0.3,0.3,0.6,0.2c2.3,1.6,4.1,3.7,5.1,6.6
			c1-1.8,0.2-4.9,2.5-5.1c4.8-0.5,5.7,12.1,3.2,15.9c2.3,1.7,2.6,5.7,4.3,9.4c1,2.2,4.2,4,4,6.8c-0.4,4.7-7.9,1.7-9.8-0.6
			c-6.6-0.1-9.9-3.4-13.6-6.4C40.2,89.6,39.6,89,38.8,88.4z"/>
		<path class="st4" d="M52.6,88.6c0.2,1.4,1.3,1.8,1.7,3C52,92.3,50.8,89.3,52.6,88.6z"/>
		<path class="st3" d="M56.8,6.8c1.7-0.3,4.7-0.3,6.4,0C61.1,6.8,58.9,6.8,56.8,6.8z"/>
		<path class="st3" d="M56.8,113.2c2.1,0,4.3,0,6.4,0C61.5,113.5,58.5,113.5,56.8,113.2z"/>
	</g>
</g>
</svg>
