<?xml version="1.0" encoding="utf-8"?>
<!-- Generator: Adobe Illustrator 23.1.0, SVG Export Plug-In . SVG Version: 6.00 Build 0)  -->
<svg version="1.1" id="Layer_1" xmlns="http://www.w3.org/2000/svg" xmlns:xlink="http://www.w3.org/1999/xlink" x="0px" y="0px"
	 viewBox="0 0 1100 152" style="enable-background:new 0 0 1100 152;" xml:space="preserve">
<style type="text/css">
	.st0{fill:#F0F0F0;}
	.st1{fill:#0D122D;}
	.st2{fill:#16153E;}
</style>
<polygon class="st0" points="1100,46.1 900,46.1 900,44.6 891.9,46.1 884.8,46.1 884.8,47.5 550,110.3 200,44.6 200,47.5 0,47.5 
	0,151.8 200,151.8 200,152 900,152 900,150.5 1100,150.5 "/>
<polygon class="st1" points="550,76.1 343.3,0 0,0 0,75.8 343.3,75.8 343.3,75.7 550,151.8 756.7,75.7 756.7,0 "/>
<polygon class="st2" points="756.7,0 550,76.1 550,151.8 756.7,75.7 756.7,75.8 1100,75.8 1100,0 "/>
</svg>
