<?xml version="1.0" encoding="utf-8"?>
<!-- Generator: Adobe Illustrator 23.0.2, SVG Export Plug-In . SVG Version: 6.00 Build 0)  -->
<svg version="1.1" id="Capa_1" xmlns="http://www.w3.org/2000/svg" xmlns:xlink="http://www.w3.org/1999/xlink" x="0px" y="0px"
	 viewBox="0 0 730.8 703.2" style="enable-background:new 0 0 730.8 703.2;" xml:space="preserve">
<style type="text/css">
	.st0{fill:#FFFFFF;}
</style>
<path class="st0" d="M0,0v703.2h730.8V0H0z M270,357.8c5.3-5.3,13.8-5.3,19.1,0l62.8,62.8V146.8c0-7.5,6-13.5,13.5-13.5
	s13.5,6,13.5,13.5v273.9l62.7-62.8c5.3-5.3,13.8-5.3,19.1,0c5.3,5.3,5.3,13.8,0,19.1l-85.8,85.8c-2.6,2.7-6.1,4-9.5,4
	c-3.4,0-6.9-1.4-9.5-4L270,376.9C264.7,371.6,264.7,363.1,270,357.8z M601,482.5c0,48.2-39.2,87.5-87.5,87.5H217.3
	c-48.2,0-87.5-39.2-87.5-87.5V357.7c0-7.5,6-13.5,13.5-13.5s13.5,6,13.5,13.5v124.8c0,33.3,27.1,60.5,60.5,60.5h296.2
	c33.3,0,60.5-27.1,60.5-60.5V359.6c0-7.5,6-13.5,13.5-13.5s13.5,6.1,13.5,13.5V482.5z"/>
</svg>
