<?xml version="1.0" encoding="utf-8"?>
<!-- Generator: Adobe Illustrator 23.0.2, SVG Export Plug-In . SVG Version: 6.00 Build 0)  -->
<svg version="1.1" id="Capa_1" xmlns="http://www.w3.org/2000/svg" xmlns:xlink="http://www.w3.org/1999/xlink" x="0px" y="0px"
	 viewBox="0 0 750 750" style="enable-background:new 0 0 750 750;" xml:space="preserve">
<style type="text/css">
	.st0{display:none;}
	.st1{display:inline;fill:#6BCCE2;}
	.st2{fill:#FFFFFF;}
</style>
<g class="st0">
	<path class="st1" d="M708.5,541.7c0,14.6-4.1,28.2-10.7,40.1L487.2,346.2L695.5,164c8.1,12.9,13,28,13,44.3L708.5,541.7
		L708.5,541.7z M375,389l289.9-253.6c-11.9-6.5-25.3-10.5-39.7-10.5H124.9c-14.5,0-27.9,4-39.7,10.5L375,389z M455.8,373.7
		l-67.1,58.7c-3.9,3.4-8.8,5.1-13.7,5.1c-4.9,0-9.8-1.7-13.7-5.1l-67.1-58.7L80.9,612.3c12.8,8,27.8,12.8,44,12.8h500.3
		c16.2,0,31.2-4.8,44-12.8L455.8,373.7z M54.5,164c-8.1,12.9-13,28-13,44.3v333.5c0,14.6,4.1,28.2,10.7,40.1l210.6-235.7L54.5,164z"
		/>
</g>
<path class="st2" d="M0,0v750h750V0H0z M124.9,124.9h500.3c14.4,0,27.8,4,39.7,10.5L375,389L85.2,135.4
	C97,128.9,110.4,124.9,124.9,124.9z M41.5,541.7V208.3c0-16.3,4.9-31.4,13-44.3l208.3,182.2L52.2,581.9
	C45.6,569.9,41.5,556.4,41.5,541.7z M625.1,625.1H124.9c-16.2,0-31.2-4.8-44-12.8l213.3-238.6l67.1,58.7c3.9,3.4,8.8,5.1,13.7,5.1
	c4.9,0,9.8-1.7,13.7-5.1l67.1-58.7l213.3,238.6C656.3,620.3,641.3,625.1,625.1,625.1z M708.5,541.7L708.5,541.7
	c0,14.6-4.1,28.2-10.7,40.1L487.2,346.2L695.5,164c8.1,12.9,13,28,13,44.3V541.7z"/>
</svg>
