<?xml version="1.0" encoding="utf-8"?>
<!-- Generator: Adobe Illustrator 23.0.6, SVG Export Plug-In . SVG Version: 6.00 Build 0)  -->
<svg version="1.1" id="Capa_1" xmlns="http://www.w3.org/2000/svg" xmlns:xlink="http://www.w3.org/1999/xlink" x="0px" y="0px"
	 viewBox="0 0 594 594" style="enable-background:new 0 0 594 594;" xml:space="preserve">
<style type="text/css">
	.st0{fill:#AC6B36;}
</style>
<g>
	<path class="st0" d="M0.5,50.5v493c0,27.6,22.4,50,50,50h542.8c0.1,0,0.2-0.1,0.2-0.2V0.7c0-0.1-0.1-0.2-0.2-0.2H50.5
		C22.9,0.5,0.5,22.9,0.5,50.5z M515,305.2c-1,1.1-24.8,28.4-63.3,55.9c-51.5,36.8-105,56.2-154.7,56.2s-103.2-19.4-154.7-56.2
		C103.8,333.6,80,306.3,79,305.2c-4.1-4.7-4.1-11.7,0-16.4c1-1.1,24.8-28.4,63.3-55.9c51.5-36.8,105-56.2,154.7-56.2
		s103.2,19.4,154.7,56.2c38.5,27.5,62.3,54.7,63.3,55.9C519,293.5,519,300.5,515,305.2z"/>
	<path class="st0" d="M436.7,252.9c-32.8-23.4-83.7-51.2-139.7-51.2s-106.9,27.9-139.7,51.2c-23.9,17-42.1,34.3-51.7,44.1
		c9.6,9.8,27.7,27,51.7,44.1c32.8,23.4,83.7,51.2,139.7,51.2s106.9-27.9,139.7-51.2c23.9-17,42.1-34.3,51.7-44.1
		C478.8,287.2,460.6,270,436.7,252.9z M292.8,374.4c-39.3-2.1-71-33.9-73.1-73.1c-2.4-44.6,33.3-81.7,77.4-81.7
		c18.8,0,36.9,6.8,51,19.2c5.2,4.5,5.7,12.4,1.2,17.6c-4.5,5.2-12.4,5.7-17.6,1.2c-10.7-9.4-24.7-14-39.2-12.8
		c-26.5,2.3-47.3,24.5-47.9,51.1c-0.7,29.4,23.2,53.7,52.5,53.7c29,0,52.5-23.6,52.5-52.5c0-5,2.8-9.6,7.4-11.5
		c9-3.6,17.6,3,17.6,11.5C374.5,341.1,337.4,376.8,292.8,374.4z M321.9,295c1.2,15.4-11.6,28.2-27,27c-12.1-1-21.9-10.8-22.9-22.9
		c-1.2-15.4,11.6-28.2,27-27C311.1,273,321,282.9,321.9,295z"/>
</g>
</svg>
