<?xml version="1.0" encoding="utf-8"?>
<!-- Generator: Adobe Illustrator 23.0.2, SVG Export Plug-In . SVG Version: 6.00 Build 0)  -->
<svg version="1.1" id="Capa_1" xmlns="http://www.w3.org/2000/svg" xmlns:xlink="http://www.w3.org/1999/xlink" x="0px" y="0px"
	 viewBox="0 0 594 594" style="enable-background:new 0 0 594 594;" xml:space="preserve">
<style type="text/css">
	.st0{fill:#1F7FBE;stroke:#000000;stroke-width:0.9894;stroke-miterlimit:10;}
</style>
<g>
	<path class="st0" d="M0.5,0.5v593h593V0.5H0.5z M515,305.2c-1,1.1-24.8,28.4-63.3,55.9c-51.5,36.8-105,56.2-154.7,56.2
		c-49.7,0-103.2-19.4-154.7-56.2C103.8,333.6,80,306.3,79,305.2c-4.1-4.7-4.1-11.7,0-16.4c1-1.1,24.8-28.4,63.3-55.9
		c51.5-36.8,105-56.2,154.7-56.2c49.7,0,103.2,19.4,154.7,56.2c38.5,27.5,62.3,54.7,63.3,55.9C519,293.5,519,300.5,515,305.2z"/>
	<path class="st0" d="M436.7,252.9c-32.8-23.4-83.7-51.2-139.7-51.2s-106.9,27.9-139.7,51.2c-23.9,17-42.1,34.3-51.7,44.1
		c9.6,9.8,27.7,27,51.7,44.1c32.8,23.4,83.7,51.2,139.7,51.2s106.9-27.9,139.7-51.2c23.9-17,42.1-34.3,51.7-44.1
		C478.8,287.2,460.6,270,436.7,252.9z M297,374.5c-42.7,0-77.5-34.8-77.5-77.5c0-42.7,34.8-77.5,77.5-77.5c18.8,0,36.9,6.8,51,19.2
		c5.2,4.5,5.7,12.4,1.2,17.6s-12.4,5.7-17.6,1.2c-9.6-8.4-21.8-13-34.6-13c-28.9,0-52.5,23.6-52.5,52.5s23.6,52.5,52.5,52.5
		c29,0,52.5-23.6,52.5-52.5c0-6.9,5.6-12.5,12.5-12.5s12.5,5.6,12.5,12.5C374.5,339.7,339.7,374.5,297,374.5z M322,297
		c0,13.8-11.2,25-25,25c-13.8,0-25-11.2-25-25c0-13.8,11.2-25,25-25C310.8,272,322,283.2,322,297z"/>
</g>
</svg>
